{
.appVersion = "1171";
copyright = "Copyright 2018 The Charm Project Authors (https://github.com/cadsondemak/Sarabun)";
customParameters = (
{
name = vendorID;
value = CDK;
},
{
name = license;
value = "This Font Software is licensed under the SIL Open Font License, Version 1.1. This license is available with a FAQ at: http://scripts.sil.org/OFL";
},
{
name = licenseURL;
value = "http://scripts.sil.org/OFL";
},
{
name = fsType;
value = (
);
},
{
name = "Use Typo Metrics";
value = 1;
},
{
name = "Disable Last Change";
value = 1;
},
{
name = "Use Line Breaks";
value = 1;
},
{
name = glyphOrder;
value = (
A,
B,
C,
D,
E,
F,
G,
H,
I,
J,
K,
L,
M,
N,
O,
P,
Q,
R,
S,
T,
U,
V,
W,
X,
Y,
Z,
a,
b,
c,
d,
e,
f,
g,
h,
i,
j,
k,
l,
m,
n,
o,
p,
q,
r,
s,
t,
u,
v,
w,
x,
y,
z
);
}
);
date = "2018-10-10 12:55:10 +0000";
designer = "Katatrad Aksorn Co.,Ltd.";
designerURL = "http://www.katatrad.com";
familyName = Charm;
featurePrefixes = (
{
automatic = 1;
code = "languagesystem DFLT dflt;
languagesystem latn dflt;
languagesystem thai dflt;
languagesystem latn ROM;
languagesystem latn MOL;
languagesystem latn CAT;
";
name = Languagesystems;
}
);
features = (
{
automatic = 1;
code = "feature locl;
feature subs;
feature sups;
feature frac;
feature ordn;
feature sinf;
";
name = aalt;
},
{
code = "lookup latn_decomb {
	script latn;
@CombiningTopAccents = [acutecomb brevecomb caroncomb circumflexcomb dieresiscomb dotaccentcomb gravecomb hookabovecomb hungarumlautcomb macroncomb ringcomb tildecomb];
@CombiningNonTopAccents = [brevebelowcomb cedillacomb dieresisbelowcomb dotbelowcomb macronbelowcomb ogonekcomb horncomb];
	sub [i j]' @CombiningTopAccents by [idotless jdotless];
	sub [i j]' @CombiningNonTopAccents @CombiningTopAccents by [idotless jdotless];
} latn_decomb;

lookup thai_decomb {
	script thai;
	sub saraAm-thai by nikhahit-thai saraAa-thai;
} thai_decomb;

lookup thai_comb {
    script thai;
sub maiEk-thai nikhahit-thai by nikhahit_maiEk-thai;

glyphs = (
{
glyphname = A;
layers = (
{
anchors = (
{
name = bottom;
position = "{234, 0}";
},
{
name = ogonek;
position = "{464, 10}";
},
{
name = top;
position = "{408, 694}";
}
);
background = {
anchors = (
{
name = bottom;
position = "{234, 0}";
},
{
name = ogonek;
position = "{464, 10}";
},
{
name = top;
position = "{408, 694}";
}
);
paths = (
{
closed = 1;
nodes = (
"472 -10 OFFCURVE",
"533 35 OFFCURVE",
"560 82 CURVE SMOOTH",
"567 94 OFFCURVE",
"569 103 OFFCURVE",
"569 109 CURVE SMOOTH",
"569 115 OFFCURVE",
"568 120 OFFCURVE",
"563 120 CURVE SMOOTH",
"551 120 OFFCURVE",
"523 88 OFFCURVE",
"492 88 CURVE SMOOTH",
"475 88 OFFCURVE",
"467 97 OFFCURVE",
"464 122 CURVE SMOOTH",
"459 156 OFFCURVE",
"451 217 OFFCURVE",
"451 325 CURVE SMOOTH",
"451 496 OFFCURVE",
"471 627 OFFCURVE",
"508 693 CURVE",
"508 694 LINE",
"491 688 OFFCURVE",
"469 684 OFFCURVE",
"439 684 CURVE SMOOTH",
"379 684 OFFCURVE",
"325 704 OFFCURVE",
"265 704 CURVE SMOOTH",
"159 704 OFFCURVE",
"83 649 OFFCURVE",
"60 567 CURVE SMOOTH",
"58 561 OFFCURVE",
"56 553 OFFCURVE",
"56 543 CURVE SMOOTH",
"56 534 OFFCURVE",
"60 531 OFFCURVE",
"64 531 CURVE SMOOTH",
"73 531 OFFCURVE",
"77 538 OFFCURVE",
"86 551 CURVE SMOOTH",
"118 603 OFFCURVE",
"171 631 OFFCURVE",
"236 631 CURVE SMOOTH",
"275 631 OFFCURVE",
"305 622 OFFCURVE",
"329 622 CURVE",
"329 621 LINE",
"246 554 OFFCURVE",
"210 449 OFFCURVE",
"165 319 CURVE SMOOTH",
"117 180 OFFCURVE",
"88 103 OFFCURVE",
"7 74 CURVE SMOOTH",
"-6 71 OFFCURVE",
"-17 67 OFFCURVE",
"-22 64 CURVE SMOOTH",
"-40 56 OFFCURVE",
"-52 21 OFFCURVE",
"-52 10 CURVE SMOOTH",
"-52 4 OFFCURVE",
"-48 0 OFFCURVE",
"-43 0 CURVE SMOOTH",
"-33 0 OFFCURVE",
"-7 16 OFFCURVE",
"17 16 CURVE SMOOTH",
"42 16 OFFCURVE",
"83 0 OFFCURVE",
"107 0 CURVE SMOOTH",
"131 0 OFFCURVE",
"160 15 OFFCURVE",
"182 50 CURVE SMOOTH",
"190 61 OFFCURVE",
"192 69 OFFCURVE",
"192 77 CURVE SMOOTH",
"192 82 OFFCURVE",
"191 86 OFFCURVE",
"186 86 CURVE SMOOTH",
"179 86 OFFCURVE",
"162 76 OFFCURVE",
"143 76 CURVE SMOOTH",
"131 76 OFFCURVE",
"120 79 OFFCURVE",
"113 82 CURVE",
"113 83 LINE",
"159 108 OFFCURVE",
"200 161 OFFCURVE",
"222 224 CURVE",
"326 224 LINE",
"346 234 LINE",
"347 184 OFFCURVE",
"348 112 OFFCURVE",
"360 60 CURVE SMOOTH",
"370 12 OFFCURVE",
"387 -10 OFFCURVE",
"422 -10 CURVE SMOOTH"
);
},
{
closed = 1;
nodes = (
"257 343 LINE SMOOTH",
"286 465 OFFCURVE",
"325 548 OFFCURVE",
"382 594 CURVE",
"383 594 LINE",
"360 509 OFFCURVE",
"350 428 OFFCURVE",
"346 308 CURVE",
"248 308 LINE"
);
}
);
};
layerId = "56450C88-1299-454A-B666-E6F9AF06B23F";
paths = (
{
closed = 1;
nodes = (
"472 -10 OFFCURVE",
"533 35 OFFCURVE",
"560 82 CURVE SMOOTH",
"567 94 OFFCURVE",
"569 103 OFFCURVE",
"569 109 CURVE SMOOTH",
"569 115 OFFCURVE",
"568 120 OFFCURVE",
"563 120 CURVE SMOOTH",
"551 120 OFFCURVE",
"523 88 OFFCURVE",
"492 88 CURVE SMOOTH",
"475 88 OFFCURVE",
"467 97 OFFCURVE",
"464 122 CURVE SMOOTH",
"459 156 OFFCURVE",
"451 217 OFFCURVE",
"451 325 CURVE SMOOTH",
"451 496 OFFCURVE",
"471 627 OFFCURVE",
"508 693 CURVE",
"508 694 LINE",
"491 688 OFFCURVE",
"469 684 OFFCURVE",
"439 684 CURVE SMOOTH",
"379 684 OFFCURVE",
"325 704 OFFCURVE",
"265 704 CURVE SMOOTH",
"159 704 OFFCURVE",
"83 649 OFFCURVE",
"60 567 CURVE SMOOTH",
"58 561 OFFCURVE",
"56 553 OFFCURVE",
"56 543 CURVE SMOOTH",
"56 534 OFFCURVE",
"60 531 OFFCURVE",
"64 531 CURVE SMOOTH",
"73 531 OFFCURVE",
"77 538 OFFCURVE",
"86 551 CURVE SMOOTH",
"118 603 OFFCURVE",
"171 631 OFFCURVE",
"236 631 CURVE SMOOTH",
"275 631 OFFCURVE",
"305 622 OFFCURVE",
"329 622 CURVE",
"329 621 LINE",
"246 554 OFFCURVE",
"210 449 OFFCURVE",
"165 319 CURVE SMOOTH",
"117 180 OFFCURVE",
"88 103 OFFCURVE",
"7 74 CURVE SMOOTH",
"-6 71 OFFCURVE",
"-17 67 OFFCURVE",
"-22 64 CURVE SMOOTH",
"-40 56 OFFCURVE",
"-52 21 OFFCURVE",
"-52 10 CURVE SMOOTH",
"-52 4 OFFCURVE",
"-48 0 OFFCURVE",
"-43 0 CURVE SMOOTH",
"-33 0 OFFCURVE",
"-7 16 OFFCURVE",
"17 16 CURVE SMOOTH",
"42 16 OFFCURVE",
"83 0 OFFCURVE",
"107 0 CURVE SMOOTH",
"131 0 OFFCURVE",
"160 15 OFFCURVE",
"182 50 CURVE SMOOTH",
"190 61 OFFCURVE",
"192 69 OFFCURVE",
"192 77 CURVE SMOOTH",
"192 82 OFFCURVE",
"191 86 OFFCURVE",
"186 86 CURVE SMOOTH",
"179 86 OFFCURVE",
"162 76 OFFCURVE",
"143 76 CURVE SMOOTH",
"131 76 OFFCURVE",
"120 79 OFFCURVE",
"113 82 CURVE",
"113 83 LINE",
"159 108 OFFCURVE",
"200 161 OFFCURVE",
"222 224 CURVE",
"326 224 LINE",
"346 234 LINE",
"347 184 OFFCURVE",
"348 112 OFFCURVE",
"360 60 CURVE SMOOTH",
"370 12 OFFCURVE",
"387 -10 OFFCURVE",
"422 -10 CURVE SMOOTH"
);
},
{
closed = 1;
nodes = (
"257 343 LINE SMOOTH",
"286 465 OFFCURVE",
"325 548 OFFCURVE",
"382 594 CURVE",
"383 594 LINE",
"360 509 OFFCURVE",
"350 428 OFFCURVE",
"346 308 CURVE",
"248 308 LINE"
);
}
);
width = 574;
},
{
anchors = (
{
name = bottom;
position = "{231, 0}";
},
{
name = ogonek;
position = "{474, 16}";
},
{
name = top;
position = "{418, 694}";
}
);
background = {
anchors = (
{
name = bottom;
position = "{231, 0}";
},
{
name = ogonek;
position = "{474, 16}";
},
{
name = top;
position = "{418, 694}";
}
);
paths = (
{
closed = 1;
nodes = (
"465 -10 OFFCURVE",
"513 27 OFFCURVE",
"538 72 CURVE SMOOTH",
"543 81 OFFCURVE",
"544 86 OFFCURVE",
"544 91 CURVE SMOOTH",
"544 94 OFFCURVE",
"542 95 OFFCURVE",
"538 95 CURVE SMOOTH",
"525 95 OFFCURVE",
"494 62 OFFCURVE",
"469 62 CURVE SMOOTH",
"446 62 OFFCURVE",
"440 86 OFFCURVE",
"438 120 CURVE SMOOTH",
"434 154 OFFCURVE",
"432 248 OFFCURVE",
"432 316 CURVE SMOOTH",
"432 511 OFFCURVE",
"455 635 OFFCURVE",
"489 693 CURVE",
"489 694 LINE",
"469 687 OFFCURVE",
"454 684 OFFCURVE",
"434 684 CURVE SMOOTH",
"384 684 OFFCURVE",
"326 704 OFFCURVE",
"270 704 CURVE SMOOTH",
"175 704 OFFCURVE",
"97 650 OFFCURVE",
"77 569 CURVE SMOOTH",
"76 564 OFFCURVE",
"76 560 OFFCURVE",
"76 559 CURVE SMOOTH",
"76 554 OFFCURVE",
"77 551 OFFCURVE",
"82 551 CURVE SMOOTH",
"87 551 OFFCURVE",
"91 556 OFFCURVE",
"98 567 CURVE SMOOTH",
"140 627 OFFCURVE",
"185 652 OFFCURVE",
"257 652 CURVE SMOOTH",
"305 652 OFFCURVE",
"327 645 OFFCURVE",
"355 641 CURVE",
"355 640 LINE",
"269 585 OFFCURVE",
"224 459 OFFCURVE",
"177 325 CURVE SMOOTH",
"136 207 OFFCURVE",
"93 87 OFFCURVE",
"10 55 CURVE SMOOTH",
"-4 50 OFFCURVE",
"-5 52 OFFCURVE",
"-15 47 CURVE SMOOTH",
"-30 40 OFFCURVE",
"-42 17 OFFCURVE",
"-42 5 CURVE SMOOTH",
"-42 1 OFFCURVE",
"-40 0 OFFCURVE",
"-37 0 CURVE SMOOTH",
"-25 0 OFFCURVE",
"-12 16 OFFCURVE",
"14 16 CURVE SMOOTH",
"38 16 OFFCURVE",
"62 0 OFFCURVE",
"87 0 CURVE SMOOTH",
"108 0 OFFCURVE",
"133 11 OFFCURVE",
"155 33 CURVE SMOOTH",
"165 45 OFFCURVE",
"169 51 OFFCURVE",
"169 57 CURVE SMOOTH",
"169 61 OFFCURVE",
"166 62 OFFCURVE",
"162 62 CURVE SMOOTH",
"153 62 OFFCURVE",
"141 52 OFFCURVE",
"117 52 CURVE SMOOTH",
"109 52 OFFCURVE",
"103 53 OFFCURVE",
"92 58 CURVE",
"92 60 LINE",
"139 92 OFFCURVE",
"181 160 OFFCURVE",
"210 236 CURVE",
"332 236 LINE",
"357 255 LINE",
"357 184 OFFCURVE",
"358 107 OFFCURVE",
"366 58 CURVE SMOOTH",
"372 22 OFFCURVE",
"386 -10 OFFCURVE",
"424 -10 CURVE SMOOTH"
);
},
{
closed = 1;
nodes = (
"239 330 LINE SMOOTH",
"300 512 OFFCURVE",
"345 602 OFFCURVE",
"398 626 CURVE",
"399 626 LINE",
"376 550 OFFCURVE",
"360 418 OFFCURVE",
"358 296 CURVE",
"228 296 LINE"
);
}
);
};
layerId = "0B1DFD06-3317-40CA-B510-4969A0718C16";
paths = (
{
closed = 1;
nodes = (
"465 -10 OFFCURVE",
"513 27 OFFCURVE",
"538 72 CURVE SMOOTH",
"543 81 OFFCURVE",
"544 86 OFFCURVE",
"544 91 CURVE SMOOTH",
"544 94 OFFCURVE",
"542 95 OFFCURVE",
"538 95 CURVE SMOOTH",
"525 95 OFFCURVE",
"494 62 OFFCURVE",
"469 62 CURVE SMOOTH",
"446 62 OFFCURVE",
"440 86 OFFCURVE",
"438 120 CURVE SMOOTH",
"434 154 OFFCURVE",
"432 248 OFFCURVE",
"432 316 CURVE SMOOTH",
"432 511 OFFCURVE",
"455 635 OFFCURVE",
"489 693 CURVE",
"489 694 LINE",
"469 687 OFFCURVE",
"454 684 OFFCURVE",
"434 684 CURVE SMOOTH",
"384 684 OFFCURVE",
"326 704 OFFCURVE",
"270 704 CURVE SMOOTH",
"175 704 OFFCURVE",
"97 650 OFFCURVE",
"77 569 CURVE SMOOTH",
"76 564 OFFCURVE",
"76 560 OFFCURVE",
"76 559 CURVE SMOOTH",
"76 554 OFFCURVE",
"77 551 OFFCURVE",
"82 551 CURVE SMOOTH",
"87 551 OFFCURVE",
"91 556 OFFCURVE",
"98 567 CURVE SMOOTH",
"140 627 OFFCURVE",
"185 652 OFFCURVE",
"257 652 CURVE SMOOTH",
"305 652 OFFCURVE",
"327 645 OFFCURVE",
"355 641 CURVE",
"355 640 LINE",
"269 585 OFFCURVE",
"224 459 OFFCURVE",
"177 325 CURVE SMOOTH",
"136 207 OFFCURVE",
"93 87 OFFCURVE",
"10 55 CURVE SMOOTH",
"-4 50 OFFCURVE",
"-5 52 OFFCURVE",
"-15 47 CURVE SMOOTH",
"-30 40 OFFCURVE",
"-42 17 OFFCURVE",
"-42 5 CURVE SMOOTH",
"-42 1 OFFCURVE",
"-40 0 OFFCURVE",
"-37 0 CURVE SMOOTH",
"-25 0 OFFCURVE",
"-12 16 OFFCURVE",
"14 16 CURVE SMOOTH",
"38 16 OFFCURVE",
"62 0 OFFCURVE",
"87 0 CURVE SMOOTH",
"108 0 OFFCURVE",
"133 11 OFFCURVE",
"155 33 CURVE SMOOTH",
"165 45 OFFCURVE",
"169 51 OFFCURVE",
"169 57 CURVE SMOOTH",
"169 61 OFFCURVE",
"166 62 OFFCURVE",
"162 62 CURVE SMOOTH",
"153 62 OFFCURVE",
"141 52 OFFCURVE",
"117 52 CURVE SMOOTH",
"109 52 OFFCURVE",
"103 53 OFFCURVE",
"92 58 CURVE",
"92 60 LINE",
"139 92 OFFCURVE",
"181 160 OFFCURVE",
"210 236 CURVE",
"332 236 LINE",
"357 255 LINE",
"357 184 OFFCURVE",
"358 107 OFFCURVE",
"366 58 CURVE SMOOTH",
"372 22 OFFCURVE",
"386 -10 OFFCURVE",
"424 -10 CURVE SMOOTH"
);
},
{
closed = 1;
nodes = (
"239 330 LINE SMOOTH",
"300 512 OFFCURVE",
"345 602 OFFCURVE",
"398 626 CURVE",
"399 626 LINE",
"376 550 OFFCURVE",
"360 418 OFFCURVE",
"358 296 CURVE",
"228 296 LINE"
);
}
);
width = 559;
}
);
leftKerningGroup = A;
note = A;
rightKerningGroup = A;
unicode = 0041;
},
{
glyphname = B;
layers = (
{
anchors = (
{
name = bottom;
position = "{269, 0}";
},
{
name = top;
position = "{348, 694}";
}
);
background = {
anchors = (
{
name = bottom;
position = "{269, 0}";
},
{
name = top;
position = "{348, 694}";
}
);
paths = (
{
closed = 1;
nodes = (
"56 0 OFFCURVE",
"83 15 OFFCURVE",
"118 15 CURVE SMOOTH",
"153 15 OFFCURVE",
"222 0 OFFCURVE",
"275 0 CURVE SMOOTH",
"403 0 OFFCURVE",
"541 87 OFFCURVE",
"541 215 CURVE SMOOTH",
"541 281 OFFCURVE",
"502 336 OFFCURVE",
"439 377 CURVE",
"511 420 OFFCURVE",
"552 479 OFFCURVE",
"552 553 CURVE SMOOTH",
"552 652 OFFCURVE",
"476 704 OFFCURVE",
"347 704 CURVE SMOOTH",
"188 704 OFFCURVE",
"76 625 OFFCURVE",
"42 541 CURVE SMOOTH",
"40 534 OFFCURVE",
"37 526 OFFCURVE",
"37 520 CURVE SMOOTH",
"37 512 OFFCURVE",
"41 507 OFFCURVE",
"48 507 CURVE SMOOTH",
"57 507 OFFCURVE",
"64 513 OFFCURVE",
"81 531 CURVE SMOOTH",
"117 568 OFFCURVE",
"181 629 OFFCURVE",
"306 629 CURVE SMOOTH",
"394 629 OFFCURVE",
"434 599 OFFCURVE",
"434 531 CURVE SMOOTH",
"434 464 OFFCURVE",
"396 407 OFFCURVE",
"337 393 CURVE",
"254 393 LINE",
"269 497 LINE SMOOTH",
"278 558 OFFCURVE",
"293 563 OFFCURVE",
"293 578 CURVE SMOOTH",
"293 585 OFFCURVE",
"286 588 OFFCURVE",
"277 588 CURVE SMOOTH",
"228 588 OFFCURVE",
"174 543 OFFCURVE",
"167 505 CURVE SMOOTH",
"112 139 LINE SMOOTH",
"107 107 OFFCURVE",
"98 98 OFFCURVE",
"73 78 CURVE SMOOTH",
"53 62 OFFCURVE",
"32 43 OFFCURVE",
"32 14 CURVE SMOOTH",
"32 5 OFFCURVE",
"35 0 OFFCURVE",
"42 0 CURVE SMOOTH"
);
},
{
closed = 1;
nodes = (
"257 87 OFFCURVE",
"219 92 OFFCURVE",
"201 97 CURVE",
"200 98 LINE",
"210 112 OFFCURVE",
"213 123 OFFCURVE",
"216 144 CURVE SMOOTH",
"241 317 LINE",
"345 317 LINE",
"394 290 OFFCURVE",
"425 249 OFFCURVE",
"425 192 CURVE SMOOTH",
"425 122 OFFCURVE",
"377 87 OFFCURVE",
"288 87 CURVE SMOOTH"
);
}
);
};
layerId = "56450C88-1299-454A-B666-E6F9AF06B23F";
paths = (
{
closed = 1;
nodes = (
"56 0 OFFCURVE",
"83 15 OFFCURVE",
"118 15 CURVE SMOOTH",
"153 15 OFFCURVE",
"222 0 OFFCURVE",
"275 0 CURVE SMOOTH",
"403 0 OFFCURVE",
"541 87 OFFCURVE",
"541 215 CURVE SMOOTH",
"541 281 OFFCURVE",
"502 336 OFFCURVE",
"439 377 CURVE",
"511 420 OFFCURVE",
"552 479 OFFCURVE",
"552 553 CURVE SMOOTH",
"552 652 OFFCURVE",
"476 704 OFFCURVE",
"347 704 CURVE SMOOTH",
"188 704 OFFCURVE",
"76 625 OFFCURVE",
"42 541 CURVE SMOOTH",
"40 534 OFFCURVE",
"37 526 OFFCURVE",
"37 520 CURVE SMOOTH",
"37 512 OFFCURVE",
"41 507 OFFCURVE",
"48 507 CURVE SMOOTH",
"57 507 OFFCURVE",
"64 513 OFFCURVE",
"81 531 CURVE SMOOTH",
"117 568 OFFCURVE",
"181 629 OFFCURVE",
"306 629 CURVE SMOOTH",
"394 629 OFFCURVE",
"434 599 OFFCURVE",
"434 531 CURVE SMOOTH",
"434 464 OFFCURVE",
"396 407 OFFCURVE",
"337 393 CURVE",
"254 393 LINE",
"269 497 LINE SMOOTH",
"278 558 OFFCURVE",
"293 563 OFFCURVE",
"293 578 CURVE SMOOTH",
"293 585 OFFCURVE",
"286 588 OFFCURVE",
"277 588 CURVE SMOOTH",
"228 588 OFFCURVE",
"174 543 OFFCURVE",
"167 505 CURVE SMOOTH",
"112 139 LINE SMOOTH",
"107 107 OFFCURVE",
"98 98 OFFCURVE",
"73 78 CURVE SMOOTH",
"53 62 OFFCURVE",
"32 43 OFFCURVE",
"32 14 CURVE SMOOTH",
"32 5 OFFCURVE",
"35 0 OFFCURVE",
"42 0 CURVE SMOOTH"
);
},
{
closed = 1;
nodes = (
"257 87 OFFCURVE",
"219 92 OFFCURVE",
"201 97 CURVE",
"200 98 LINE",
"210 112 OFFCURVE",
"213 123 OFFCURVE",
"216 144 CURVE SMOOTH",
"241 317 LINE",
"345 317 LINE",
"394 290 OFFCURVE",
"425 249 OFFCURVE",
"425 192 CURVE SMOOTH",
"425 122 OFFCURVE",
"377 87 OFFCURVE",
"288 87 CURVE SMOOTH"
);
}
);
width = 577;
},
{
anchors = (
{
name = bottom;
position = "{244, 0}";
},
{
name = top;
position = "{325, 694}";
}
);
background = {
anchors = (
{
name = bottom;
position = "{244, 0}";
},
{
name = top;
position = "{325, 694}";
}
);
paths = (
{
closed = 1;
nodes = (
"64 0 OFFCURVE",
"74 15 OFFCURVE",
"108 15 CURVE SMOOTH",
"141 15 OFFCURVE",
"192 0 OFFCURVE",
"255 0 CURVE SMOOTH",
"398 0 OFFCURVE",
"503 79 OFFCURVE",
"503 203 CURVE SMOOTH",
"503 275 OFFCURVE",
"467 332 OFFCURVE",
"392 374 CURVE",
"471 417 OFFCURVE",
"520 489 OFFCURVE",
"520 562 CURVE SMOOTH",
"520 652 OFFCURVE",
"443 704 OFFCURVE",
"324 704 CURVE SMOOTH",
"184 704 OFFCURVE",
"72 644 OFFCURVE",
"45 548 CURVE SMOOTH",
"42 539 OFFCURVE",
"42 537 OFFCURVE",
"42 534 CURVE SMOOTH",
"42 529 OFFCURVE",
"45 526 OFFCURVE",
"51 526 CURVE SMOOTH",
"58 526 OFFCURVE",
"64 534 OFFCURVE",
"74 547 CURVE SMOOTH",
"133 619 OFFCURVE",
"207 647 OFFCURVE",
"291 647 CURVE SMOOTH",
"392 647 OFFCURVE",
"446 608 OFFCURVE",
"446 539 CURVE SMOOTH",
"446 475 OFFCURVE",
"398 404 OFFCURVE",
"319 383 CURVE",
"232 383 LINE",
"254 533 LINE SMOOTH",
"262 582 OFFCURVE",
"279 588 OFFCURVE",
"279 596 CURVE SMOOTH",
"279 600 OFFCURVE",
"275 603 OFFCURVE",
"268 603 CURVE SMOOTH",
"237 603 OFFCURVE",
"188 560 OFFCURVE",
"184 528 CURVE SMOOTH",
"123 119 LINE SMOOTH",
"119 95 OFFCURVE",
"112 77 OFFCURVE",
"79 53 CURVE SMOOTH",
"58 38 OFFCURVE",
"43 24 OFFCURVE",
"43 7 CURVE SMOOTH",
"43 2 OFFCURVE",
"46 0 OFFCURVE",
"51 0 CURVE SMOOTH"
);
},
{
closed = 1;
nodes = (
"242 60 OFFCURVE",
"192 62 OFFCURVE",
"166 69 CURVE",
"166 71 LINE",
"182 87 OFFCURVE",
"190 103 OFFCURVE",
"195 136 CURVE SMOOTH",
"224 335 LINE",
"326 335 LINE",
"396 305 OFFCURVE",
"432 252 OFFCURVE",
"432 181 CURVE SMOOTH",
"432 97 OFFCURVE",
"381 60 OFFCURVE",
"272 60 CURVE SMOOTH"
);
}
);
};
layerId = "0B1DFD06-3317-40CA-B510-4969A0718C16";
paths = (
{
closed = 1;
nodes = (
"64 0 OFFCURVE",
"74 15 OFFCURVE",
"108 15 CURVE SMOOTH",
"141 15 OFFCURVE",
"192 0 OFFCURVE",
"255 0 CURVE SMOOTH",
"398 0 OFFCURVE",
"503 79 OFFCURVE",
"503 203 CURVE SMOOTH",
"503 275 OFFCURVE",
"467 332 OFFCURVE",
"392 374 CURVE",
"471 417 OFFCURVE",
"520 489 OFFCURVE",
"520 562 CURVE SMOOTH",
"520 652 OFFCURVE",
"443 704 OFFCURVE",
"324 704 CURVE SMOOTH",
"184 704 OFFCURVE",
"72 644 OFFCURVE",
"45 548 CURVE SMOOTH",
"42 539 OFFCURVE",
"42 537 OFFCURVE",
"42 534 CURVE SMOOTH",
"42 529 OFFCURVE",
"45 526 OFFCURVE",
"51 526 CURVE SMOOTH",
"58 526 OFFCURVE",
"64 534 OFFCURVE",
"74 547 CURVE SMOOTH",
"133 619 OFFCURVE",
"207 647 OFFCURVE",
"291 647 CURVE SMOOTH",
"392 647 OFFCURVE",
"446 608 OFFCURVE",
"446 539 CURVE SMOOTH",
"446 475 OFFCURVE",
"398 404 OFFCURVE",
"319 383 CURVE",
"232 383 LINE",
"254 533 LINE SMOOTH",
"262 582 OFFCURVE",
"279 588 OFFCURVE",
"279 596 CURVE SMOOTH",
"279 600 OFFCURVE",
"275 603 OFFCURVE",
"268 603 CURVE SMOOTH",
"237 603 OFFCURVE",
"188 560 OFFCURVE",
"184 528 CURVE SMOOTH",
"123 119 LINE SMOOTH",
"119 95 OFFCURVE",
"112 77 OFFCURVE",
"79 53 CURVE SMOOTH",
"58 38 OFFCURVE",
"43 24 OFFCURVE",
"43 7 CURVE SMOOTH",
"43 2 OFFCURVE",
"46 0 OFFCURVE",
"51 0 CURVE SMOOTH"
);
},
{
closed = 1;
nodes = (
"242 60 OFFCURVE",
"192 62 OFFCURVE",
"166 69 CURVE",
"166 71 LINE",
"182 87 OFFCURVE",
"190 103 OFFCURVE",
"195 136 CURVE SMOOTH",
"224 335 LINE",
"326 335 LINE",
"396 305 OFFCURVE",
"432 252 OFFCURVE",
"432 181 CURVE SMOOTH",
"432 97 OFFCURVE",
"381 60 OFFCURVE",
"272 60 CURVE SMOOTH"
);
}
);
width = 554;
}
);
note = B;
unicode = 0042;
},
{
glyphname = C;
layers = (
{
anchors = (
{
name = bottom;
position = "{253, 0}";
},
{
name = top;
position = "{441, 694}";
}
);
background = {
anchors = (
{
name = bottom;
position = "{253, 0}";
},
{
name = top;
position = "{441, 694}";
}
);
paths = (
{
closed = 1;
nodes = (
"365 -10 OFFCURVE",
"461 62 OFFCURVE",
"496 180 CURVE SMOOTH",
"506 213 OFFCURVE",
"502 222 OFFCURVE",
"492 222 CURVE SMOOTH",
"484 222 OFFCURVE",
"477 216 OFFCURVE",
"471 205 CURVE SMOOTH",
"443 156 OFFCURVE",
"396 82 OFFCURVE",
"298 82 CURVE SMOOTH",
"207 82 OFFCURVE",
"171 144 OFFCURVE",
"171 275 CURVE SMOOTH",
"171 479 OFFCURVE",
"260 629 OFFCURVE",
"399 629 CURVE SMOOTH",
"445 629 OFFCURVE",
"481 613 OFFCURVE",
"492 568 CURVE SMOOTH",
"497 548 OFFCURVE",
"496 522 OFFCURVE",
"513 522 CURVE SMOOTH",
"528 522 OFFCURVE",
"539 538 OFFCURVE",
"548 553 CURVE SMOOTH",
"560 575 OFFCURVE",
"568 595 OFFCURVE",
"568 616 CURVE SMOOTH",
"568 672 OFFCURVE",
"511 704 OFFCURVE",
"429 704 CURVE SMOOTH",
"231 704 OFFCURVE",
"52 512 OFFCURVE",
"52 246 CURVE SMOOTH",
"52 74 OFFCURVE",
"126 -10 OFFCURVE",
"250 -10 CURVE SMOOTH"
);
}
);
};
layerId = "56450C88-1299-454A-B666-E6F9AF06B23F";
paths = (
{
closed = 1;
nodes = (
"365 -10 OFFCURVE",
"461 62 OFFCURVE",
"496 180 CURVE SMOOTH",
"506 213 OFFCURVE",
"502 222 OFFCURVE",
"492 222 CURVE SMOOTH",
"484 222 OFFCURVE",
"477 216 OFFCURVE",
"471 205 CURVE SMOOTH",
"443 156 OFFCURVE",
"396 82 OFFCURVE",
"298 82 CURVE SMOOTH",
"209 82 OFFCURVE",
"171 144 OFFCURVE",
"171 275 CURVE SMOOTH",
"171 479 OFFCURVE",
"260 629 OFFCURVE",
"399 629 CURVE SMOOTH",
"445 629 OFFCURVE",
"481 613 OFFCURVE",
"492 568 CURVE SMOOTH",
"497 548 OFFCURVE",
"496 522 OFFCURVE",
"513 522 CURVE SMOOTH",
"528 522 OFFCURVE",
"539 538 OFFCURVE",
"548 553 CURVE SMOOTH",
"560 575 OFFCURVE",
"568 595 OFFCURVE",
"568 616 CURVE SMOOTH",
"568 672 OFFCURVE",
"511 704 OFFCURVE",
"429 704 CURVE SMOOTH",
"231 704 OFFCURVE",
"52 512 OFFCURVE",
"52 246 CURVE SMOOTH",
"52 74 OFFCURVE",
"126 -10 OFFCURVE",
"250 -10 CURVE SMOOTH"
);
}
);
width = 558;
},
{
anchors = (
{
name = bottom;
position = "{237, 0}";
},
{
name = top;
position = "{440, 694}";
}
);
background = {
anchors = (
{
name = bottom;
position = "{237, 0}";
},
{
name = top;
position = "{440, 694}";
}
);
paths = (
{
closed = 1;
nodes = (
"351 -10 OFFCURVE",
"449 66 OFFCURVE",
"479 174 CURVE SMOOTH",
"480 177 OFFCURVE",
"487 206 OFFCURVE",
"477 206 CURVE SMOOTH",
"471 206 OFFCURVE",
"466 197 OFFCURVE",
"465 195 CURVE SMOOTH",
"422 107 OFFCURVE",
"355 60 OFFCURVE",
"284 60 CURVE SMOOTH",
"195 60 OFFCURVE",
"146 135 OFFCURVE",
"146 263 CURVE SMOOTH",
"146 417 OFFCURVE",
"216 651 OFFCURVE",
"389 651 CURVE SMOOTH",
"453 651 OFFCURVE",
"484 621 OFFCURVE",
"492 578 CURVE SMOOTH",
"495 562 OFFCURVE",
"495 543 OFFCURVE",
"508 543 CURVE SMOOTH",
"516 543 OFFCURVE",
"521 548 OFFCURVE",
"528 558 CURVE SMOOTH",
"538 573 OFFCURVE",
"551 598 OFFCURVE",
"551 622 CURVE SMOOTH",
"551 682 OFFCURVE",
"479 704 OFFCURVE",
"420 704 CURVE SMOOTH",
"268 704 OFFCURVE",
"62 544 OFFCURVE",
"62 243 CURVE SMOOTH",
"62 73 OFFCURVE",
"129 -10 OFFCURVE",
"243 -10 CURVE SMOOTH"
);
}
);
};
layerId = "0B1DFD06-3317-40CA-B510-4969A0718C16";
paths = (
{
closed = 1;
nodes = (
"351 -10 OFFCURVE",
"449 66 OFFCURVE",
"479 174 CURVE SMOOTH",
"480 177 OFFCURVE",
"487 206 OFFCURVE",
"477 206 CURVE SMOOTH",
"471 206 OFFCURVE",
"466 197 OFFCURVE",
"465 195 CURVE SMOOTH",
"422 107 OFFCURVE",
"355 60 OFFCURVE",
"284 60 CURVE SMOOTH",
"195 60 OFFCURVE",
"146 135 OFFCURVE",
"146 263 CURVE SMOOTH",
"146 417 OFFCURVE",
"216 651 OFFCURVE",
"389 651 CURVE SMOOTH",
"453 651 OFFCURVE",
"484 621 OFFCURVE",
"492 578 CURVE SMOOTH",
"495 562 OFFCURVE",
"495 543 OFFCURVE",
"508 543 CURVE SMOOTH",
"516 543 OFFCURVE",
"521 548 OFFCURVE",
"528 558 CURVE SMOOTH",
"538 573 OFFCURVE",
"551 598 OFFCURVE",
"551 622 CURVE SMOOTH",
"551 682 OFFCURVE",
"479 704 OFFCURVE",
"420 704 CURVE SMOOTH",
"268 704 OFFCURVE",
"62 544 OFFCURVE",
"62 243 CURVE SMOOTH",
"62 73 OFFCURVE",
"129 -10 OFFCURVE",
"243 -10 CURVE SMOOTH"
);
}
);
width = 551;
}
);
leftKerningGroup = C;
note = C;
rightKerningGroup = C;
unicode = 0043;
},
{
glyphname = D;
layers = (
{
anchors = (
{
name = bottom;
position = "{254, 0}";
},
{
name = center;
position = "{320, 347}";
},
{
name = top;
position = "{366, 694}";
}
);
background = {
anchors = (
{
name = bottom;
position = "{254, 0}";
},
{
name = center;
position = "{320, 347}";
},
{
name = top;
position = "{366, 694}";
}
);
paths = (
{
closed = 1;
nodes = (
"53 0 OFFCURVE",
"68 14 OFFCURVE",
"108 14 CURVE SMOOTH",
"148 14 OFFCURVE",
"192 0 OFFCURVE",
"250 0 CURVE SMOOTH",
"470 0 OFFCURVE",
"606 179 OFFCURVE",
"606 402 CURVE SMOOTH",
"606 603 OFFCURVE",
"496 704 OFFCURVE",
"320 704 CURVE SMOOTH",
"182 704 OFFCURVE",
"82 645 OFFCURVE",
"43 556 CURVE SMOOTH",
"40 547 OFFCURVE",
"38 539 OFFCURVE",
"38 534 CURVE SMOOTH",
"38 527 OFFCURVE",
"41 521 OFFCURVE",
"50 521 CURVE SMOOTH",
"63 521 OFFCURVE",
"71 531 OFFCURVE",
"83 544 CURVE SMOOTH",
"133 603 OFFCURVE",
"197 632 OFFCURVE",
"284 632 CURVE SMOOTH",
"423 632 OFFCURVE",
"487 558 OFFCURVE",
"487 394 CURVE SMOOTH",
"487 211 OFFCURVE",
"405 82 OFFCURVE",
"257 82 CURVE SMOOTH",
"238 82 OFFCURVE",
"207 83 OFFCURVE",
"186 87 CURVE",
"186 88 LINE",
"197 103 OFFCURVE",
"200 114 OFFCURVE",
"202 129 CURVE SMOOTH",
"268 496 LINE SMOOTH",
"279 556 OFFCURVE",
"291 563 OFFCURVE",
"291 578 CURVE SMOOTH",
"291 584 OFFCURVE",
"289 588 OFFCURVE",
"277 588 CURVE SMOOTH",
"227 588 OFFCURVE",
"172 542 OFFCURVE",
"166 503 CURVE SMOOTH",
"103 145 LINE SMOOTH",
"93 99 OFFCURVE",
"91 97 OFFCURVE",
"58 71 CURVE SMOOTH",
"33 50 OFFCURVE",
"27 21 OFFCURVE",
"27 11 CURVE SMOOTH",
"27 4 OFFCURVE",
"30 0 OFFCURVE",
"38 0 CURVE SMOOTH"
);
}
);
};
layerId = "56450C88-1299-454A-B666-E6F9AF06B23F";
paths = (
{
closed = 1;
nodes = (
"53 0 OFFCURVE",
"68 14 OFFCURVE",
"108 14 CURVE SMOOTH",
"148 14 OFFCURVE",
"192 0 OFFCURVE",
"250 0 CURVE SMOOTH",
"470 0 OFFCURVE",
"606 179 OFFCURVE",
"606 402 CURVE SMOOTH",
"606 603 OFFCURVE",
"496 704 OFFCURVE",
"320 704 CURVE SMOOTH",
"182 704 OFFCURVE",
"82 645 OFFCURVE",
"43 556 CURVE SMOOTH",
"40 547 OFFCURVE",
"38 539 OFFCURVE",
"38 534 CURVE SMOOTH",
"38 527 OFFCURVE",
"41 521 OFFCURVE",
"50 521 CURVE SMOOTH",
"63 521 OFFCURVE",
"71 531 OFFCURVE",
"83 544 CURVE SMOOTH",
"133 603 OFFCURVE",
"197 632 OFFCURVE",
"284 632 CURVE SMOOTH",
"423 632 OFFCURVE",
"487 558 OFFCURVE",
"487 394 CURVE SMOOTH",
"487 211 OFFCURVE",
"405 82 OFFCURVE",
"257 82 CURVE SMOOTH",
"238 82 OFFCURVE",
"207 83 OFFCURVE",
"186 87 CURVE",
"186 88 LINE",
"197 103 OFFCURVE",
"200 114 OFFCURVE",
"202 129 CURVE SMOOTH",
"268 496 LINE SMOOTH",
"279 556 OFFCURVE",
"291 563 OFFCURVE",
"291 578 CURVE SMOOTH",
"291 584 OFFCURVE",
"289 588 OFFCURVE",
"277 588 CURVE SMOOTH",
"227 588 OFFCURVE",
"172 542 OFFCURVE",
"166 503 CURVE SMOOTH",
"103 145 LINE SMOOTH",
"93 99 OFFCURVE",
"91 97 OFFCURVE",
"58 71 CURVE SMOOTH",
"33 50 OFFCURVE",
"27 21 OFFCURVE",
"27 11 CURVE SMOOTH",
"27 4 OFFCURVE",
"30 0 OFFCURVE",
"38 0 CURVE SMOOTH"
);
}
);
width = 631;
},
{
anchors = (
{
name = bottom;
position = "{308, 0}";
},
{
name = center;
position = "{309, 347}";
},
{
name = top;
position = "{308, 694}";
}
);
background = {
anchors = (
{
name = bottom;
position = "{308, 0}";
},
{
name = center;
position = "{309, 347}";
},
{
name = top;
position = "{308, 694}";
}
);
paths = (
{
closed = 1;
nodes = (
"55 0 OFFCURVE",
"67 14 OFFCURVE",
"104 14 CURVE SMOOTH",
"143 14 OFFCURVE",
"188 0 OFFCURVE",
"244 0 CURVE SMOOTH",
"463 0 OFFCURVE",
"580 202 OFFCURVE",
"580 412 CURVE SMOOTH",
"580 595 OFFCURVE",
"487 704 OFFCURVE",
"310 704 CURVE SMOOTH",
"192 704 OFFCURVE",
"97 655 OFFCURVE",
"55 572 CURVE SMOOTH",
"51 563 OFFCURVE",
"48 556 OFFCURVE",
"48 549 CURVE SMOOTH",
"48 544 OFFCURVE",
"51 541 OFFCURVE",
"56 541 CURVE SMOOTH",
"63 541 OFFCURVE",
"67 548 OFFCURVE",
"79 562 CURVE SMOOTH",
"131 621 OFFCURVE",
"200 650 OFFCURVE",
"285 650 CURVE SMOOTH",
"429 650 OFFCURVE",
"495 569 OFFCURVE",
"495 402 CURVE SMOOTH",
"495 210 OFFCURVE",
"407 61 OFFCURVE",
"247 61 CURVE SMOOTH",
"223 61 OFFCURVE",
"181 63 OFFCURVE",
"160 68 CURVE",
"160 69 LINE",
"172 82 OFFCURVE",
"179 104 OFFCURVE",
"182 122 CURVE SMOOTH",
"250 534 LINE SMOOTH",
"258 583 OFFCURVE",
"275 589 OFFCURVE",
"275 598 CURVE SMOOTH",
"275 601 OFFCURVE",
"270 603 OFFCURVE",
"264 603 CURVE SMOOTH",
"233 603 OFFCURVE",
"186 562 OFFCURVE",
"180 528 CURVE SMOOTH",
"114 135 LINE SMOOTH",
"105 83 OFFCURVE",
"83 64 OFFCURVE",
"61 48 CURVE SMOOTH",
"48 40 OFFCURVE",
"37 17 OFFCURVE",
"37 6 CURVE SMOOTH",
"37 2 OFFCURVE",
"38 0 OFFCURVE",
"42 0 CURVE SMOOTH"
);
}
);
};
layerId = "0B1DFD06-3317-40CA-B510-4969A0718C16";
paths = (
{
closed = 1;
nodes = (
"55 0 OFFCURVE",
"67 14 OFFCURVE",
"104 14 CURVE SMOOTH",
"143 14 OFFCURVE",
"188 0 OFFCURVE",
"244 0 CURVE SMOOTH",
"463 0 OFFCURVE",
"580 202 OFFCURVE",
"580 412 CURVE SMOOTH",
"580 595 OFFCURVE",
"487 704 OFFCURVE",
"310 704 CURVE SMOOTH",
"192 704 OFFCURVE",
"97 655 OFFCURVE",
"55 572 CURVE SMOOTH",
"51 563 OFFCURVE",
"48 556 OFFCURVE",
"48 549 CURVE SMOOTH",
"48 544 OFFCURVE",
"51 541 OFFCURVE",
"56 541 CURVE SMOOTH",
"63 541 OFFCURVE",
"67 548 OFFCURVE",
"79 562 CURVE SMOOTH",
"131 621 OFFCURVE",
"200 650 OFFCURVE",
"285 650 CURVE SMOOTH",
"429 650 OFFCURVE",
"495 569 OFFCURVE",
"495 402 CURVE SMOOTH",
"495 210 OFFCURVE",
"407 61 OFFCURVE",
"247 61 CURVE SMOOTH",
"223 61 OFFCURVE",
"181 63 OFFCURVE",
"160 68 CURVE",
"160 69 LINE",
"172 82 OFFCURVE",
"179 104 OFFCURVE",
"182 122 CURVE SMOOTH",
"250 534 LINE SMOOTH",
"258 583 OFFCURVE",
"275 589 OFFCURVE",
"275 598 CURVE SMOOTH",
"275 601 OFFCURVE",
"270 603 OFFCURVE",
"264 603 CURVE SMOOTH",
"233 603 OFFCURVE",
"186 562 OFFCURVE",
"180 528 CURVE SMOOTH",
"114 135 LINE SMOOTH",
"105 83 OFFCURVE",
"83 64 OFFCURVE",
"61 48 CURVE SMOOTH",
"48 40 OFFCURVE",
"37 17 OFFCURVE",
"37 6 CURVE SMOOTH",
"37 2 OFFCURVE",
"38 0 OFFCURVE",
"42 0 CURVE SMOOTH"
);
}
);
width = 615;
}
);
leftKerningGroup = D;
note = D;
rightKerningGroup = D;
unicode = 0044;
},
{
glyphname = E;
layers = (
{
anchors = (
{
name = bottom;
position = "{232, 0}";
},
{
name = ogonek;
position = "{382, 32}";
},
{
name = top;
position = "{362, 694}";
},
{
name = topleft;
position = "{48, 593}";
}
);
background = {
anchors = (
{
name = bottom;
position = "{232, 0}";
},
{
name = ogonek;
position = "{382, 32}";
},
{
name = top;
position = "{362, 694}";
},
{
name = topleft;
position = "{48, 593}";
}
);
paths = (
{
closed = 1;
nodes = (
"52 0 OFFCURVE",
"67 17 OFFCURVE",
"110 17 CURVE SMOOTH",
"153 17 OFFCURVE",
"221 0 OFFCURVE",
"275 0 CURVE SMOOTH",
"379 0 OFFCURVE",
"455 62 OFFCURVE",
"455 113 CURVE SMOOTH",
"455 123 OFFCURVE",
"451 125 OFFCURVE",
"446 125 CURVE SMOOTH",
"440 125 OFFCURVE",
"435 123 OFFCURVE",
"423 115 CURVE SMOOTH",
"397 100 OFFCURVE",
"353 86 OFFCURVE",
"288 86 CURVE SMOOTH",
"247 86 OFFCURVE",
"217 92 OFFCURVE",
"190 98 CURVE",
"190 99 LINE",
"192 107 OFFCURVE",
"197 117 OFFCURVE",
"201 136 CURVE SMOOTH",
"232 322 LINE",
"267 322 LINE SMOOTH",
"312 322 OFFCURVE",
"351 310 OFFCURVE",
"370 310 CURVE SMOOTH",
"410 310 OFFCURVE",
"449 376 OFFCURVE",
"449 389 CURVE SMOOTH",
"449 394 OFFCURVE",
"445 399 OFFCURVE",
"439 399 CURVE SMOOTH",
"246 399 LINE",
"279 605 LINE",
"340 605 OFFCURVE",
"382 599 OFFCURVE",
"410 599 CURVE SMOOTH",
"503 599 OFFCURVE",
"544 666 OFFCURVE",
"544 694 CURVE SMOOTH",
"544 702 OFFCURVE",
"541 704 OFFCURVE",
"534 704 CURVE SMOOTH",
"516 704 OFFCURVE",
"497 684 OFFCURVE",
"410 684 CURVE SMOOTH",
"351 684 OFFCURVE",
"281 694 OFFCURVE",
"229 694 CURVE SMOOTH",
"123 694 OFFCURVE",
"52 651 OFFCURVE",
"38 593 CURVE SMOOTH",
"37 588 OFFCURVE",
"36 583 OFFCURVE",
"36 578 CURVE SMOOTH",
"36 572 OFFCURVE",
"38 568 OFFCURVE",
"43 568 CURVE SMOOTH",
"58 568 OFFCURVE",
"79 608 OFFCURVE",
"167 608 CURVE SMOOTH",
"172 608 LINE",
"103 187 LINE SMOOTH",
"88 107 OFFCURVE",
"79 95 OFFCURVE",
"53 66 CURVE SMOOTH",
"36 47 OFFCURVE",
"27 27 OFFCURVE",
"27 12 CURVE SMOOTH",
"27 2 OFFCURVE",
"31 0 OFFCURVE",
"37 0 CURVE SMOOTH"
);
}
);
};
layerId = "56450C88-1299-454A-B666-E6F9AF06B23F";
paths = (
{
closed = 1;
nodes = (
"52 0 OFFCURVE",
"67 17 OFFCURVE",
"110 17 CURVE SMOOTH",
"153 17 OFFCURVE",
"221 0 OFFCURVE",
"275 0 CURVE SMOOTH",
"379 0 OFFCURVE",
"455 62 OFFCURVE",
"455 113 CURVE SMOOTH",
"455 123 OFFCURVE",
"451 125 OFFCURVE",
"446 125 CURVE SMOOTH",
"440 125 OFFCURVE",
"435 123 OFFCURVE",
"423 115 CURVE SMOOTH",
"397 100 OFFCURVE",
"353 86 OFFCURVE",
"288 86 CURVE SMOOTH",
"247 86 OFFCURVE",
"217 92 OFFCURVE",
"190 98 CURVE",
"190 99 LINE",
"192 107 OFFCURVE",
"197 117 OFFCURVE",
"201 136 CURVE SMOOTH",
"232 322 LINE",
"267 322 LINE SMOOTH",
"312 322 OFFCURVE",
"351 310 OFFCURVE",
"370 310 CURVE SMOOTH",
"410 310 OFFCURVE",
"449 376 OFFCURVE",
"449 389 CURVE SMOOTH",
"449 394 OFFCURVE",
"445 399 OFFCURVE",
"439 399 CURVE SMOOTH",
"246 399 LINE",
"279 605 LINE",
"340 605 OFFCURVE",
"382 599 OFFCURVE",
"410 599 CURVE SMOOTH",
"503 599 OFFCURVE",
"544 666 OFFCURVE",
"544 694 CURVE SMOOTH",
"544 702 OFFCURVE",
"541 704 OFFCURVE",
"534 704 CURVE SMOOTH",
"516 704 OFFCURVE",
"497 684 OFFCURVE",
"410 684 CURVE SMOOTH",
"351 684 OFFCURVE",
"281 694 OFFCURVE",
"229 694 CURVE SMOOTH",
"123 694 OFFCURVE",
"52 651 OFFCURVE",
"38 593 CURVE SMOOTH",
"37 588 OFFCURVE",
"36 583 OFFCURVE",
"36 578 CURVE SMOOTH",
"36 572 OFFCURVE",
"38 568 OFFCURVE",
"43 568 CURVE SMOOTH",
"58 568 OFFCURVE",
"79 608 OFFCURVE",
"167 608 CURVE SMOOTH",
"172 608 LINE",
"103 187 LINE SMOOTH",
"88 107 OFFCURVE",
"79 95 OFFCURVE",
"53 66 CURVE SMOOTH",
"36 47 OFFCURVE",
"27 27 OFFCURVE",
"27 12 CURVE SMOOTH",
"27 2 OFFCURVE",
"31 0 OFFCURVE",
"37 0 CURVE SMOOTH"
);
}
);
width = 512;
},
{
anchors = (
{
name = bottom;
position = "{217, 0}";
},
{
name = ogonek;
position = "{376, 37}";
},
{
name = top;
position = "{371, 694}";
},
{
name = topleft;
position = "{68, 613}";
}
);
background = {
anchors = (
{
name = bottom;
position = "{217, 0}";
},
{
name = ogonek;
position = "{376, 37}";
},
{
name = top;
position = "{371, 694}";
},
{
name = topleft;
position = "{68, 613}";
}
);
paths = (
{
closed = 1;
nodes = (
"56 0 OFFCURVE",
"73 17 OFFCURVE",
"107 17 CURVE SMOOTH",
"139 17 OFFCURVE",
"216 0 OFFCURVE",
"263 0 CURVE SMOOTH",
"355 0 OFFCURVE",
"445 61 OFFCURVE",
"445 102 CURVE SMOOTH",
"445 107 OFFCURVE",
"443 112 OFFCURVE",
"438 112 CURVE SMOOTH",
"434 112 OFFCURVE",
"432 110 OFFCURVE",
"425 107 CURVE SMOOTH",
"384 81 OFFCURVE",
"330 63 OFFCURVE",
"267 63 CURVE SMOOTH",
"233 63 OFFCURVE",
"188 68 OFFCURVE",
"160 76 CURVE",
"160 77 LINE",
"169 87 OFFCURVE",
"179 110 OFFCURVE",
"182 134 CURVE SMOOTH",
"216 330 LINE",
"249 330 LINE SMOOTH",
"295 330 OFFCURVE",
"324 317 OFFCURVE",
"341 317 CURVE SMOOTH",
"379 317 OFFCURVE",
"420 372 OFFCURVE",
"420 384 CURVE SMOOTH",
"420 388 OFFCURVE",
"418 391 OFFCURVE",
"412 391 CURVE SMOOTH",
"224 391 LINE",
"263 632 LINE",
"301 632 OFFCURVE",
"355 625 OFFCURVE",
"392 625 CURVE SMOOTH",
"495 625 OFFCURVE",
"534 677 OFFCURVE",
"534 697 CURVE SMOOTH",
"534 702 OFFCURVE",
"533 704 OFFCURVE",
"527 704 CURVE SMOOTH",
"513 704 OFFCURVE",
"492 684 OFFCURVE",
"410 684 CURVE SMOOTH",
"351 684 OFFCURVE",
"280 694 OFFCURVE",
"227 694 CURVE SMOOTH",
"120 694 OFFCURVE",
"68 656 OFFCURVE",
"55 614 CURVE SMOOTH",
"53 610 OFFCURVE",
"52 605 OFFCURVE",
"52 599 CURVE SMOOTH",
"52 595 OFFCURVE",
"53 590 OFFCURVE",
"58 590 CURVE SMOOTH",
"71 590 OFFCURVE",
"84 631 OFFCURVE",
"184 631 CURVE SMOOTH",
"188 631 LINE",
"114 175 LINE SMOOTH",
"100 89 OFFCURVE",
"91 77 OFFCURVE",
"60 48 CURVE SMOOTH",
"46 36 OFFCURVE",
"37 22 OFFCURVE",
"37 7 CURVE SMOOTH",
"37 2 OFFCURVE",
"38 0 OFFCURVE",
"43 0 CURVE SMOOTH"
);
}
);
};
layerId = "0B1DFD06-3317-40CA-B510-4969A0718C16";
paths = (
{
closed = 1;
nodes = (
"56 0 OFFCURVE",
"73 17 OFFCURVE",
"107 17 CURVE SMOOTH",
"139 17 OFFCURVE",
"216 0 OFFCURVE",
"263 0 CURVE SMOOTH",
"355 0 OFFCURVE",
"445 61 OFFCURVE",
"445 102 CURVE SMOOTH",
"445 107 OFFCURVE",
"443 112 OFFCURVE",
"438 112 CURVE SMOOTH",
"434 112 OFFCURVE",
"432 110 OFFCURVE",
"425 107 CURVE SMOOTH",
"384 81 OFFCURVE",
"330 63 OFFCURVE",
"267 63 CURVE SMOOTH",
"233 63 OFFCURVE",
"188 68 OFFCURVE",
"160 76 CURVE",
"160 77 LINE",
"169 87 OFFCURVE",
"179 110 OFFCURVE",
"182 134 CURVE SMOOTH",
"216 330 LINE",
"249 330 LINE SMOOTH",
"295 330 OFFCURVE",
"324 317 OFFCURVE",
"341 317 CURVE SMOOTH",
"379 317 OFFCURVE",
"420 372 OFFCURVE",
"420 384 CURVE SMOOTH",
"420 388 OFFCURVE",
"418 391 OFFCURVE",
"412 391 CURVE SMOOTH",
"224 391 LINE",
"263 632 LINE",
"301 632 OFFCURVE",
"355 625 OFFCURVE",
"392 625 CURVE SMOOTH",
"495 625 OFFCURVE",
"534 677 OFFCURVE",
"534 697 CURVE SMOOTH",
"534 702 OFFCURVE",
"533 704 OFFCURVE",
"527 704 CURVE SMOOTH",
"513 704 OFFCURVE",
"492 684 OFFCURVE",
"410 684 CURVE SMOOTH",
"351 684 OFFCURVE",
"280 694 OFFCURVE",
"227 694 CURVE SMOOTH",
"120 694 OFFCURVE",
"68 656 OFFCURVE",
"55 614 CURVE SMOOTH",
"53 610 OFFCURVE",
"52 605 OFFCURVE",
"52 599 CURVE SMOOTH",
"52 595 OFFCURVE",
"53 590 OFFCURVE",
"58 590 CURVE SMOOTH",
"71 590 OFFCURVE",
"84 631 OFFCURVE",
"184 631 CURVE SMOOTH",
"188 631 LINE",
"114 175 LINE SMOOTH",
"100 89 OFFCURVE",
"91 77 OFFCURVE",
"60 48 CURVE SMOOTH",
"46 36 OFFCURVE",
"37 22 OFFCURVE",
"37 7 CURVE SMOOTH",
"37 2 OFFCURVE",
"38 0 OFFCURVE",
"43 0 CURVE SMOOTH"
);
}
);
width = 512;
}
);
leftKerningGroup = E;
note = E;
rightKerningGroup = E;
unicode = 0045;
},
{
glyphname = F;
layers = (
{
anchors = (
{
name = bottom;
position = "{129, 0}";
},
{
name = top;
position = "{366, 694}";
}
);
background = {
anchors = (
{
name = bottom;
position = "{129, 0}";
},
{
name = top;
position = "{366, 694}";
}
);
paths = (
{
closed = 1;
nodes = (
"43 0 OFFCURVE",
"63 16 OFFCURVE",
"97 16 CURVE SMOOTH",
"129 16 OFFCURVE",
"159 0 OFFCURVE",
"186 0 CURVE SMOOTH",
"207 0 OFFCURVE",
"232 10 OFFCURVE",
"264 52 CURVE SMOOTH",
"272 62 OFFCURVE",
"277 71 OFFCURVE",
"277 79 CURVE SMOOTH",
"277 84 OFFCURVE",
"274 88 OFFCURVE",
"268 88 CURVE SMOOTH",
"258 88 OFFCURVE",
"246 77 OFFCURVE",
"222 77 CURVE SMOOTH",
"208 77 OFFCURVE",
"193 79 OFFCURVE",
"182 87 CURVE",
"182 88 LINE",
"192 98 OFFCURVE",
"202 114 OFFCURVE",
"205 131 CURVE SMOOTH",
"233 303 LINE",
"267 303 LINE SMOOTH",
"314 303 OFFCURVE",
"352 290 OFFCURVE",
"371 290 CURVE SMOOTH",
"410 290 OFFCURVE",
"450 356 OFFCURVE",
"450 372 CURVE SMOOTH",
"450 378 OFFCURVE",
"446 379 OFFCURVE",
"440 379 CURVE SMOOTH",
"247 379 LINE",
"284 605 LINE",
"345 605 OFFCURVE",
"387 599 OFFCURVE",
"415 599 CURVE SMOOTH",
"508 599 OFFCURVE",
"549 666 OFFCURVE",
"549 694 CURVE SMOOTH",
"549 702 OFFCURVE",
"546 704 OFFCURVE",
"539 704 CURVE SMOOTH",
"521 704 OFFCURVE",
"502 684 OFFCURVE",
"415 684 CURVE SMOOTH",
"356 684 OFFCURVE",
"286 694 OFFCURVE",
"234 694 CURVE SMOOTH",
"128 694 OFFCURVE",
"57 651 OFFCURVE",
"43 593 CURVE SMOOTH",
"42 588 OFFCURVE",
"41 583 OFFCURVE",
"41 578 CURVE SMOOTH",
"41 572 OFFCURVE",
"43 568 OFFCURVE",
"48 568 CURVE SMOOTH",
"63 568 OFFCURVE",
"84 608 OFFCURVE",
"172 608 CURVE SMOOTH",
"177 608 LINE",
"105 176 LINE SMOOTH",
"93 100 OFFCURVE",
"86 91 OFFCURVE",
"58 64 CURVE SMOOTH",
"41 47 OFFCURVE",
"27 31 OFFCURVE",
"27 12 CURVE SMOOTH",
"27 2 OFFCURVE",
"30 0 OFFCURVE",
"33 0 CURVE SMOOTH"
);
}
);
};
layerId = "56450C88-1299-454A-B666-E6F9AF06B23F";
paths = (
{
closed = 1;
nodes = (
"43 0 OFFCURVE",
"63 16 OFFCURVE",
"97 16 CURVE SMOOTH",
"129 16 OFFCURVE",
"159 0 OFFCURVE",
"186 0 CURVE SMOOTH",
"207 0 OFFCURVE",
"232 10 OFFCURVE",
"264 52 CURVE SMOOTH",
"272 62 OFFCURVE",
"277 71 OFFCURVE",
"277 79 CURVE SMOOTH",
"277 84 OFFCURVE",
"274 88 OFFCURVE",
"268 88 CURVE SMOOTH",
"258 88 OFFCURVE",
"246 77 OFFCURVE",
"222 77 CURVE SMOOTH",
"208 77 OFFCURVE",
"193 79 OFFCURVE",
"182 87 CURVE",
"182 88 LINE",
"192 98 OFFCURVE",
"202 114 OFFCURVE",
"205 131 CURVE SMOOTH",
"233 303 LINE",
"267 303 LINE SMOOTH",
"314 303 OFFCURVE",
"352 290 OFFCURVE",
"371 290 CURVE SMOOTH",
"410 290 OFFCURVE",
"450 356 OFFCURVE",
"450 372 CURVE SMOOTH",
"450 378 OFFCURVE",
"446 379 OFFCURVE",
"440 379 CURVE SMOOTH",
"247 379 LINE",
"284 605 LINE",
"345 605 OFFCURVE",
"387 599 OFFCURVE",
"415 599 CURVE SMOOTH",
"508 599 OFFCURVE",
"549 666 OFFCURVE",
"549 694 CURVE SMOOTH",
"549 702 OFFCURVE",
"546 704 OFFCURVE",
"539 704 CURVE SMOOTH",
"521 704 OFFCURVE",
"502 684 OFFCURVE",
"415 684 CURVE SMOOTH",
"356 684 OFFCURVE",
"286 694 OFFCURVE",
"234 694 CURVE SMOOTH",
"128 694 OFFCURVE",
"57 651 OFFCURVE",
"43 593 CURVE SMOOTH",
"42 588 OFFCURVE",
"41 583 OFFCURVE",
"41 578 CURVE SMOOTH",
"41 572 OFFCURVE",
"43 568 OFFCURVE",
"48 568 CURVE SMOOTH",
"63 568 OFFCURVE",
"84 608 OFFCURVE",
"172 608 CURVE SMOOTH",
"177 608 LINE",
"105 176 LINE SMOOTH",
"93 100 OFFCURVE",
"86 91 OFFCURVE",
"58 64 CURVE SMOOTH",
"41 47 OFFCURVE",
"27 31 OFFCURVE",
"27 12 CURVE SMOOTH",
"27 2 OFFCURVE",
"30 0 OFFCURVE",
"33 0 CURVE SMOOTH"
);
}
);
width = 507;
},
{
anchors = (
{
name = bottom;
position = "{115, 0}";
},
{
name = top;
position = "{358, 694}";
}
);
background = {
anchors = (
{
name = bottom;
position = "{115, 0}";
},
{
name = top;
position = "{358, 694}";
}
);
paths = (
{
closed = 1;
nodes = (
"50 0 OFFCURVE",
"68 17 OFFCURVE",
"93 17 CURVE SMOOTH",
"118 17 OFFCURVE",
"148 0 OFFCURVE",
"167 0 CURVE SMOOTH",
"179 0 OFFCURVE",
"197 6 OFFCURVE",
"232 41 CURVE SMOOTH",
"243 52 OFFCURVE",
"246 58 OFFCURVE",
"246 63 CURVE SMOOTH",
"246 67 OFFCURVE",
"243 69 OFFCURVE",
"239 69 CURVE SMOOTH",
"231 69 OFFCURVE",
"218 58 OFFCURVE",
"197 58 CURVE SMOOTH",
"186 58 OFFCURVE",
"172 62 OFFCURVE",
"157 67 CURVE",
"157 68 LINE",
"167 78 OFFCURVE",
"176 93 OFFCURVE",
"179 110 CURVE SMOOTH",
"213 312 LINE",
"247 312 LINE SMOOTH",
"293 312 OFFCURVE",
"321 300 OFFCURVE",
"340 300 CURVE SMOOTH",
"377 300 OFFCURVE",
"419 355 OFFCURVE",
"419 368 CURVE SMOOTH",
"419 372 OFFCURVE",
"417 374 OFFCURVE",
"410 374 CURVE SMOOTH",
"222 374 LINE",
"264 632 LINE",
"301 632 OFFCURVE",
"356 625 OFFCURVE",
"393 625 CURVE SMOOTH",
"495 625 OFFCURVE",
"534 677 OFFCURVE",
"534 697 CURVE SMOOTH",
"534 702 OFFCURVE",
"533 704 OFFCURVE",
"527 704 CURVE SMOOTH",
"513 704 OFFCURVE",
"494 684 OFFCURVE",
"410 684 CURVE SMOOTH",
"352 684 OFFCURVE",
"281 694 OFFCURVE",
"227 694 CURVE SMOOTH",
"120 694 OFFCURVE",
"69 656 OFFCURVE",
"56 614 CURVE SMOOTH",
"55 610 OFFCURVE",
"53 605 OFFCURVE",
"53 599 CURVE SMOOTH",
"53 595 OFFCURVE",
"55 590 OFFCURVE",
"60 590 CURVE SMOOTH",
"72 590 OFFCURVE",
"86 631 OFFCURVE",
"185 631 CURVE SMOOTH",
"190 631 LINE",
"115 176 LINE SMOOTH",
"100 86 OFFCURVE",
"98 88 OFFCURVE",
"58 51 CURVE SMOOTH",
"42 36 OFFCURVE",
"37 21 OFFCURVE",
"37 9 CURVE SMOOTH",
"37 4 OFFCURVE",
"38 0 OFFCURVE",
"42 0 CURVE SMOOTH"
);
}
);
};
layerId = "0B1DFD06-3317-40CA-B510-4969A0718C16";
paths = (
{
closed = 1;
nodes = (
"50 0 OFFCURVE",
"68 17 OFFCURVE",
"93 17 CURVE SMOOTH",
"118 17 OFFCURVE",
"148 0 OFFCURVE",
"167 0 CURVE SMOOTH",
"179 0 OFFCURVE",
"197 6 OFFCURVE",
"232 41 CURVE SMOOTH",
"243 52 OFFCURVE",
"246 58 OFFCURVE",
"246 63 CURVE SMOOTH",
"246 67 OFFCURVE",
"243 69 OFFCURVE",
"239 69 CURVE SMOOTH",
"231 69 OFFCURVE",
"218 58 OFFCURVE",
"197 58 CURVE SMOOTH",
"186 58 OFFCURVE",
"172 62 OFFCURVE",
"157 67 CURVE",
"157 68 LINE",
"167 78 OFFCURVE",
"176 93 OFFCURVE",
"179 110 CURVE SMOOTH",
"213 312 LINE",
"247 312 LINE SMOOTH",
"293 312 OFFCURVE",
"321 300 OFFCURVE",
"340 300 CURVE SMOOTH",
"377 300 OFFCURVE",
"419 355 OFFCURVE",
"419 368 CURVE SMOOTH",
"419 372 OFFCURVE",
"417 374 OFFCURVE",
"410 374 CURVE SMOOTH",
"222 374 LINE",
"264 632 LINE",
"301 632 OFFCURVE",
"356 625 OFFCURVE",
"393 625 CURVE SMOOTH",
"495 625 OFFCURVE",
"534 677 OFFCURVE",
"534 697 CURVE SMOOTH",
"534 702 OFFCURVE",
"533 704 OFFCURVE",
"527 704 CURVE SMOOTH",
"513 704 OFFCURVE",
"494 684 OFFCURVE",
"410 684 CURVE SMOOTH",
"352 684 OFFCURVE",
"281 694 OFFCURVE",
"227 694 CURVE SMOOTH",
"120 694 OFFCURVE",
"69 656 OFFCURVE",
"56 614 CURVE SMOOTH",
"55 610 OFFCURVE",
"53 605 OFFCURVE",
"53 599 CURVE SMOOTH",
"53 595 OFFCURVE",
"55 590 OFFCURVE",
"60 590 CURVE SMOOTH",
"72 590 OFFCURVE",
"86 631 OFFCURVE",
"185 631 CURVE SMOOTH",
"190 631 LINE",
"115 176 LINE SMOOTH",
"100 86 OFFCURVE",
"98 88 OFFCURVE",
"58 51 CURVE SMOOTH",
"42 36 OFFCURVE",
"37 21 OFFCURVE",
"37 9 CURVE SMOOTH",
"37 4 OFFCURVE",
"38 0 OFFCURVE",
"42 0 CURVE SMOOTH"
);
}
);
width = 502;
}
);
leftKerningGroup = E;
note = F;
unicode = 0046;
},
{
glyphname = G;
layers = (
{
anchors = (
{
name = bottom;
position = "{246, -248}";
},
{
name = top;
position = "{413, 694}";
}
);
background = {
anchors = (
{
name = bottom;
position = "{246, -248}";
},
{
name = top;
position = "{413, 694}";
}
);
paths = (
{
closed = 1;
nodes = (
"372 -255 OFFCURVE",
"469 -134 OFFCURVE",
"494 71 CURVE SMOOTH",
"522 304 LINE SMOOTH",
"528 360 OFFCURVE",
"548 367 OFFCURVE",
"548 384 CURVE SMOOTH",
"548 392 OFFCURVE",
"543 394 OFFCURVE",
"533 394 CURVE SMOOTH",
"497 394 OFFCURVE",
"435 365 OFFCURVE",
"428 310 CURVE SMOOTH",
"407 161 LINE",
"382 118 OFFCURVE",
"345 92 OFFCURVE",
"289 92 CURVE SMOOTH",
"211 92 OFFCURVE",
"171 143 OFFCURVE",
"171 277 CURVE SMOOTH",
"171 474 OFFCURVE",
"258 629 OFFCURVE",
"399 629 CURVE SMOOTH",
"445 629 OFFCURVE",
"481 613 OFFCURVE",
"492 568 CURVE SMOOTH",
"497 548 OFFCURVE",
"496 522 OFFCURVE",
"513 522 CURVE SMOOTH",
"528 522 OFFCURVE",
"539 538 OFFCURVE",
"548 553 CURVE SMOOTH",
"560 575 OFFCURVE",
"568 595 OFFCURVE",
"568 616 CURVE SMOOTH",
"568 672 OFFCURVE",
"512 704 OFFCURVE",
"430 704 CURVE SMOOTH",
"227 704 OFFCURVE",
"52 507 OFFCURVE",
"52 247 CURVE SMOOTH",
"52 78 OFFCURVE",
"126 0 OFFCURVE",
"241 0 CURVE SMOOTH",
"312 0 OFFCURVE",
"360 30 OFFCURVE",
"393 62 CURVE",
"386 12 LINE SMOOTH",
"366 -134 OFFCURVE",
"340 -182 OFFCURVE",
"273 -182 CURVE SMOOTH",
"202 -182 OFFCURVE",
"182 -129 OFFCURVE",
"171 -92 CURVE SMOOTH",
"170 -88 OFFCURVE",
"167 -87 OFFCURVE",
"164 -87 CURVE SMOOTH",
"141 -87 OFFCURVE",
"84 -148 OFFCURVE",
"84 -180 CURVE SMOOTH",
"84 -212 OFFCURVE",
"143 -255 OFFCURVE",
"231 -255 CURVE SMOOTH"
);
}
);
};
layerId = "56450C88-1299-454A-B666-E6F9AF06B23F";
paths = (
{
closed = 1;
nodes = (
"372 -255 OFFCURVE",
"469 -134 OFFCURVE",
"494 71 CURVE SMOOTH",
"522 304 LINE SMOOTH",
"528 360 OFFCURVE",
"548 367 OFFCURVE",
"548 384 CURVE SMOOTH",
"548 392 OFFCURVE",
"543 394 OFFCURVE",
"533 394 CURVE SMOOTH",
"497 394 OFFCURVE",
"435 365 OFFCURVE",
"428 310 CURVE SMOOTH",
"407 161 LINE",
"382 118 OFFCURVE",
"345 92 OFFCURVE",
"289 92 CURVE SMOOTH",
"211 92 OFFCURVE",
"171 143 OFFCURVE",
"171 277 CURVE SMOOTH",
"171 474 OFFCURVE",
"258 629 OFFCURVE",
"399 629 CURVE SMOOTH",
"445 629 OFFCURVE",
"481 613 OFFCURVE",
"492 568 CURVE SMOOTH",
"497 548 OFFCURVE",
"496 522 OFFCURVE",
"513 522 CURVE SMOOTH",
"528 522 OFFCURVE",
"539 538 OFFCURVE",
"548 553 CURVE SMOOTH",
"560 575 OFFCURVE",
"568 595 OFFCURVE",
"568 616 CURVE SMOOTH",
"568 672 OFFCURVE",
"512 704 OFFCURVE",
"430 704 CURVE SMOOTH",
"227 704 OFFCURVE",
"52 507 OFFCURVE",
"52 247 CURVE SMOOTH",
"52 78 OFFCURVE",
"126 0 OFFCURVE",
"241 0 CURVE SMOOTH",
"312 0 OFFCURVE",
"360 30 OFFCURVE",
"393 62 CURVE",
"386 12 LINE SMOOTH",
"366 -134 OFFCURVE",
"340 -182 OFFCURVE",
"273 -182 CURVE SMOOTH",
"202 -182 OFFCURVE",
"182 -129 OFFCURVE",
"171 -92 CURVE SMOOTH",
"170 -88 OFFCURVE",
"167 -87 OFFCURVE",
"164 -87 CURVE SMOOTH",
"141 -87 OFFCURVE",
"84 -148 OFFCURVE",
"84 -180 CURVE SMOOTH",
"84 -212 OFFCURVE",
"143 -255 OFFCURVE",
"231 -255 CURVE SMOOTH"
);
}
);
width = 590;
},
{
anchors = (
{
name = bottom;
position = "{234, -248}";
},
{
name = top;
position = "{430, 694}";
}
);
background = {
anchors = (
{
name = bottom;
position = "{234, -248}";
},
{
name = top;
position = "{430, 694}";
}
);
paths = (
{
closed = 1;
nodes = (
"347 -255 OFFCURVE",
"435 -141 OFFCURVE",
"469 61 CURVE",
"500 316 LINE SMOOTH",
"506 365 OFFCURVE",
"525 373 OFFCURVE",
"525 381 CURVE SMOOTH",
"525 384 OFFCURVE",
"521 387 OFFCURVE",
"513 387 CURVE SMOOTH",
"484 387 OFFCURVE",
"441 346 OFFCURVE",
"438 314 CURVE SMOOTH",
"418 166 LINE",
"382 93 OFFCURVE",
"325 69 OFFCURVE",
"277 69 CURVE SMOOTH",
"197 69 OFFCURVE",
"146 135 OFFCURVE",
"146 265 CURVE SMOOTH",
"146 417 OFFCURVE",
"216 651 OFFCURVE",
"389 651 CURVE SMOOTH",
"450 651 OFFCURVE",
"482 627 OFFCURVE",
"492 578 CURVE SMOOTH",
"496 558 OFFCURVE",
"497 543 OFFCURVE",
"508 543 CURVE SMOOTH",
"516 543 OFFCURVE",
"521 548 OFFCURVE",
"528 558 CURVE SMOOTH",
"549 590 OFFCURVE",
"551 616 OFFCURVE",
"551 622 CURVE SMOOTH",
"551 681 OFFCURVE",
"480 704 OFFCURVE",
"420 704 CURVE SMOOTH",
"258 704 OFFCURVE",
"62 529 OFFCURVE",
"62 249 CURVE SMOOTH",
"62 84 OFFCURVE",
"129 0 OFFCURVE",
"231 0 CURVE SMOOTH",
"285 0 OFFCURVE",
"345 24 OFFCURVE",
"403 81 CURVE",
"389 -1 LINE SMOOTH",
"366 -151 OFFCURVE",
"334 -205 OFFCURVE",
"264 -205 CURVE SMOOTH",
"217 -205 OFFCURVE",
"185 -181 OFFCURVE",
"161 -113 CURVE SMOOTH",
"160 -107 OFFCURVE",
"157 -104 OFFCURVE",
"154 -104 CURVE SMOOTH",
"136 -104 OFFCURVE",
"92 -154 OFFCURVE",
"92 -187 CURVE SMOOTH",
"92 -226 OFFCURVE",
"151 -255 OFFCURVE",
"217 -255 CURVE SMOOTH"
);
}
);
};
layerId = "0B1DFD06-3317-40CA-B510-4969A0718C16";
paths = (
{
closed = 1;
nodes = (
"347 -255 OFFCURVE",
"435 -141 OFFCURVE",
"469 61 CURVE",
"500 316 LINE SMOOTH",
"506 365 OFFCURVE",
"525 373 OFFCURVE",
"525 381 CURVE SMOOTH",
"525 384 OFFCURVE",
"521 387 OFFCURVE",
"513 387 CURVE SMOOTH",
"484 387 OFFCURVE",
"441 346 OFFCURVE",
"438 314 CURVE SMOOTH",
"418 166 LINE",
"382 93 OFFCURVE",
"325 69 OFFCURVE",
"277 69 CURVE SMOOTH",
"197 69 OFFCURVE",
"146 135 OFFCURVE",
"146 265 CURVE SMOOTH",
"146 417 OFFCURVE",
"216 651 OFFCURVE",
"389 651 CURVE SMOOTH",
"450 651 OFFCURVE",
"482 627 OFFCURVE",
"492 578 CURVE SMOOTH",
"496 558 OFFCURVE",
"497 543 OFFCURVE",
"508 543 CURVE SMOOTH",
"516 543 OFFCURVE",
"521 548 OFFCURVE",
"528 558 CURVE SMOOTH",
"549 590 OFFCURVE",
"551 616 OFFCURVE",
"551 622 CURVE SMOOTH",
"551 681 OFFCURVE",
"480 704 OFFCURVE",
"420 704 CURVE SMOOTH",
"258 704 OFFCURVE",
"62 529 OFFCURVE",
"62 249 CURVE SMOOTH",
"62 84 OFFCURVE",
"129 0 OFFCURVE",
"231 0 CURVE SMOOTH",
"285 0 OFFCURVE",
"345 24 OFFCURVE",
"403 81 CURVE",
"389 -1 LINE SMOOTH",
"366 -151 OFFCURVE",
"334 -205 OFFCURVE",
"264 -205 CURVE SMOOTH",
"217 -205 OFFCURVE",
"185 -181 OFFCURVE",
"161 -113 CURVE SMOOTH",
"160 -107 OFFCURVE",
"157 -104 OFFCURVE",
"154 -104 CURVE SMOOTH",
"136 -104 OFFCURVE",
"92 -154 OFFCURVE",
"92 -187 CURVE SMOOTH",
"92 -226 OFFCURVE",
"151 -255 OFFCURVE",
"217 -255 CURVE SMOOTH"
);
}
);
width = 583;
}
);
leftKerningGroup = C;
note = G;
rightKerningGroup = G;
unicode = 0047;
},
{
glyphname = H;
layers = (
{
anchors = (
{
name = bottom;
position = "{316, 0}";
},
{
name = center;
position = "{367, 347}";
},
{
name = top;
position = "{418, 694}";
}
);
background = {
anchors = (
{
name = bottom;
position = "{316, 0}";
},
{
name = center;
position = "{367, 347}";
},
{
name = top;
position = "{418, 694}";
}
);
paths = (
{
closed = 1;
nodes = (
"557 -10 OFFCURVE",
"642 77 OFFCURVE",
"642 122 CURVE SMOOTH",
"642 129 OFFCURVE",
"641 133 OFFCURVE",
"636 133 CURVE SMOOTH",
"620 133 OFFCURVE",
"596 89 OFFCURVE",
"563 89 CURVE SMOOTH",
"551 89 OFFCURVE",
"544 95 OFFCURVE",
"551 130 CURVE SMOOTH",
"620 574 LINE SMOOTH",
"660 826 OFFCURVE",
"738 806 OFFCURVE",
"801 816 CURVE SMOOTH",
"859 825 OFFCURVE",
"878 857 OFFCURVE",
"878 877 CURVE SMOOTH",
"878 884 OFFCURVE",
"875 888 OFFCURVE",
"870 888 CURVE SMOOTH",
"866 888 OFFCURVE",
"862 885 OFFCURVE",
"851 882 CURVE SMOOTH",
"842 879 OFFCURVE",
"827 878 OFFCURVE",
"816 878 CURVE SMOOTH",
"635 870 OFFCURVE",
"551 792 OFFCURVE",
"508 548 CURVE SMOOTH",
"484 410 LINE",
"268 410 LINE",
"290 551 LINE SMOOTH",
"298 603 OFFCURVE",
"314 656 OFFCURVE",
"327 694 CURVE",
"308 694 OFFCURVE",
"290 689 OFFCURVE",
"257 689 CURVE SMOOTH",
"223 689 OFFCURVE",
"198 694 OFFCURVE",
"171 694 CURVE SMOOTH",
"95 694 OFFCURVE",
"37 652 OFFCURVE",
"25 589 CURVE SMOOTH",
"24 583 OFFCURVE",
"22 577 OFFCURVE",
"22 568 CURVE SMOOTH",
"22 562 OFFCURVE",
"25 558 OFFCURVE",
"30 558 CURVE SMOOTH",
"37 558 OFFCURVE",
"42 564 OFFCURVE",
"50 574 CURVE SMOOTH",
"73 604 OFFCURVE",
"98 611 OFFCURVE",
"134 611 CURVE SMOOTH",
"166 611 OFFCURVE",
"181 605 OFFCURVE",
"193 605 CURVE",
"123 176 LINE SMOOTH",
"110 100 OFFCURVE",
"103 91 OFFCURVE",
"77 64 CURVE SMOOTH",
"61 50 OFFCURVE",
"45 32 OFFCURVE",
"45 12 CURVE SMOOTH",
"45 4 OFFCURVE",
"47 0 OFFCURVE",
"52 0 CURVE SMOOTH",
"62 0 OFFCURVE",
"81 16 OFFCURVE",
"114 16 CURVE SMOOTH",
"146 16 OFFCURVE",
"176 0 OFFCURVE",
"202 0 CURVE SMOOTH",
"224 0 OFFCURVE",
"244 12 OFFCURVE",
"275 52 CURVE SMOOTH",
"284 63 OFFCURVE",
"288 73 OFFCURVE",
"288 79 CURVE SMOOTH",
"288 86 OFFCURVE",
"285 88 OFFCURVE",
"280 88 CURVE SMOOTH",
"270 88 OFFCURVE",
"259 77 OFFCURVE",
"236 77 CURVE SMOOTH",
"221 77 OFFCURVE",
"206 81 OFFCURVE",
"198 84 CURVE",
"198 86 LINE",
"210 95 OFFCURVE",
"218 112 OFFCURVE",
"221 130 CURVE SMOOTH",
"255 325 LINE",
"470 325 LINE",
"438 104 LINE SMOOTH",
"425 22 OFFCURVE",
"448 -10 OFFCURVE",
"489 -10 CURVE SMOOTH"
);
}
);
};
layerId = "56450C88-1299-454A-B666-E6F9AF06B23F";
paths = (
{
closed = 1;
nodes = (
"557 -10 OFFCURVE",
"642 77 OFFCURVE",
"642 122 CURVE SMOOTH",
"642 129 OFFCURVE",
"641 133 OFFCURVE",
"636 133 CURVE SMOOTH",
"620 133 OFFCURVE",
"596 89 OFFCURVE",
"563 89 CURVE SMOOTH",
"551 89 OFFCURVE",
"544 95 OFFCURVE",
"551 130 CURVE SMOOTH",
"620 574 LINE SMOOTH",
"660 826 OFFCURVE",
"738 806 OFFCURVE",
"801 816 CURVE SMOOTH",
"859 825 OFFCURVE",
"878 857 OFFCURVE",
"878 877 CURVE SMOOTH",
"878 884 OFFCURVE",
"875 888 OFFCURVE",
"870 888 CURVE SMOOTH",
"866 888 OFFCURVE",
"862 885 OFFCURVE",
"851 882 CURVE SMOOTH",
"842 879 OFFCURVE",
"827 878 OFFCURVE",
"816 878 CURVE SMOOTH",
"635 870 OFFCURVE",
"551 792 OFFCURVE",
"508 548 CURVE SMOOTH",
"484 410 LINE",
"268 410 LINE",
"290 551 LINE SMOOTH",
"298 603 OFFCURVE",
"314 656 OFFCURVE",
"327 694 CURVE",
"308 694 OFFCURVE",
"290 689 OFFCURVE",
"257 689 CURVE SMOOTH",
"223 689 OFFCURVE",
"198 694 OFFCURVE",
"171 694 CURVE SMOOTH",
"95 694 OFFCURVE",
"37 652 OFFCURVE",
"25 589 CURVE SMOOTH",
"24 583 OFFCURVE",
"22 577 OFFCURVE",
"22 568 CURVE SMOOTH",
"22 562 OFFCURVE",
"25 558 OFFCURVE",
"30 558 CURVE SMOOTH",
"37 558 OFFCURVE",
"42 564 OFFCURVE",
"50 574 CURVE SMOOTH",
"73 604 OFFCURVE",
"98 611 OFFCURVE",
"134 611 CURVE SMOOTH",
"166 611 OFFCURVE",
"181 605 OFFCURVE",
"193 605 CURVE",
"123 176 LINE SMOOTH",
"110 100 OFFCURVE",
"103 91 OFFCURVE",
"77 64 CURVE SMOOTH",
"61 50 OFFCURVE",
"45 32 OFFCURVE",
"45 12 CURVE SMOOTH",
"45 4 OFFCURVE",
"47 0 OFFCURVE",
"52 0 CURVE SMOOTH",
"62 0 OFFCURVE",
"81 16 OFFCURVE",
"114 16 CURVE SMOOTH",
"146 16 OFFCURVE",
"176 0 OFFCURVE",
"202 0 CURVE SMOOTH",
"224 0 OFFCURVE",
"244 12 OFFCURVE",
"275 52 CURVE SMOOTH",
"284 63 OFFCURVE",
"288 73 OFFCURVE",
"288 79 CURVE SMOOTH",
"288 86 OFFCURVE",
"285 88 OFFCURVE",
"280 88 CURVE SMOOTH",
"270 88 OFFCURVE",
"259 77 OFFCURVE",
"236 77 CURVE SMOOTH",
"221 77 OFFCURVE",
"206 81 OFFCURVE",
"198 84 CURVE",
"198 86 LINE",
"210 95 OFFCURVE",
"218 112 OFFCURVE",
"221 130 CURVE SMOOTH",
"255 325 LINE",
"470 325 LINE",
"438 104 LINE SMOOTH",
"425 22 OFFCURVE",
"448 -10 OFFCURVE",
"489 -10 CURVE SMOOTH"
);
}
);
width = 704;
},
{
anchors = (
{
name = bottom;
position = "{311, 0}";
},
{
name = center;
position = "{362, 347}";
},
{
name = top;
position = "{418, 694}";
}
);
background = {
anchors = (
{
name = bottom;
position = "{311, 0}";
},
{
name = center;
position = "{362, 347}";
},
{
name = top;
position = "{418, 694}";
}
);
paths = (
{
closed = 1;
nodes = (
"506 -10 OFFCURVE",
"600 63 OFFCURVE",
"600 102 CURVE SMOOTH",
"600 108 OFFCURVE",
"598 112 OFFCURVE",
"594 112 CURVE SMOOTH",
"584 112 OFFCURVE",
"558 76 OFFCURVE",
"529 76 CURVE SMOOTH",
"516 76 OFFCURVE",
"512 82 OFFCURVE",
"518 120 CURVE SMOOTH",
"589 578 LINE SMOOTH",
"618 761 OFFCURVE",
"662 821 OFFCURVE",
"785 836 CURVE SMOOTH",
"837 843 OFFCURVE",
"847 873 OFFCURVE",
"847 882 CURVE SMOOTH",
"847 885 OFFCURVE",
"846 888 OFFCURVE",
"842 888 CURVE SMOOTH",
"839 888 OFFCURVE",
"837 887 OFFCURVE",
"830 884 CURVE SMOOTH",
"821 882 OFFCURVE",
"810 880 OFFCURVE",
"797 879 CURVE SMOOTH",
"626 867 OFFCURVE",
"547 776 OFFCURVE",
"511 563 CURVE SMOOTH",
"484 402 LINE",
"243 402 LINE",
"270 573 LINE SMOOTH",
"275 603 OFFCURVE",
"279 639 OFFCURVE",
"296 694 CURVE",
"279 694 OFFCURVE",
"267 691 OFFCURVE",
"237 691 CURVE SMOOTH",
"207 691 OFFCURVE",
"181 694 OFFCURVE",
"159 694 CURVE SMOOTH",
"95 694 OFFCURVE",
"50 662 OFFCURVE",
"35 606 CURVE SMOOTH",
"33 601 OFFCURVE",
"32 595 OFFCURVE",
"32 589 CURVE SMOOTH",
"32 584 OFFCURVE",
"33 580 OFFCURVE",
"37 580 CURVE SMOOTH",
"42 580 OFFCURVE",
"46 588 OFFCURVE",
"53 598 CURVE SMOOTH",
"72 624 OFFCURVE",
"99 635 OFFCURVE",
"138 635 CURVE SMOOTH",
"161 635 OFFCURVE",
"190 630 OFFCURVE",
"205 630 CURVE",
"131 172 LINE SMOOTH",
"118 84 OFFCURVE",
"117 88 OFFCURVE",
"77 51 CURVE SMOOTH",
"62 36 OFFCURVE",
"55 25 OFFCURVE",
"55 10 CURVE SMOOTH",
"55 4 OFFCURVE",
"56 0 OFFCURVE",
"60 0 CURVE SMOOTH",
"68 0 OFFCURVE",
"86 17 OFFCURVE",
"110 17 CURVE SMOOTH",
"135 17 OFFCURVE",
"165 0 OFFCURVE",
"185 0 CURVE SMOOTH",
"192 0 OFFCURVE",
"210 2 OFFCURVE",
"246 41 CURVE SMOOTH",
"257 52 OFFCURVE",
"258 57 OFFCURVE",
"258 62 CURVE SMOOTH",
"258 67 OFFCURVE",
"255 69 OFFCURVE",
"252 69 CURVE SMOOTH",
"242 69 OFFCURVE",
"232 58 OFFCURVE",
"211 58 CURVE SMOOTH",
"198 58 OFFCURVE",
"191 62 OFFCURVE",
"176 67 CURVE",
"176 68 LINE",
"185 78 OFFCURVE",
"192 93 OFFCURVE",
"195 110 CURVE SMOOTH",
"233 335 LINE",
"472 335 LINE",
"436 92 LINE SMOOTH",
"428 27 OFFCURVE",
"441 -10 OFFCURVE",
"469 -10 CURVE SMOOTH"
);
}
);
};
layerId = "0B1DFD06-3317-40CA-B510-4969A0718C16";
paths = (
{
closed = 1;
nodes = (
"506 -10 OFFCURVE",
"600 63 OFFCURVE",
"600 102 CURVE SMOOTH",
"600 108 OFFCURVE",
"598 112 OFFCURVE",
"594 112 CURVE SMOOTH",
"584 112 OFFCURVE",
"558 76 OFFCURVE",
"529 76 CURVE SMOOTH",
"516 76 OFFCURVE",
"512 82 OFFCURVE",
"518 120 CURVE SMOOTH",
"589 578 LINE SMOOTH",
"618 761 OFFCURVE",
"662 821 OFFCURVE",
"785 836 CURVE SMOOTH",
"837 843 OFFCURVE",
"847 873 OFFCURVE",
"847 882 CURVE SMOOTH",
"847 885 OFFCURVE",
"846 888 OFFCURVE",
"842 888 CURVE SMOOTH",
"839 888 OFFCURVE",
"837 887 OFFCURVE",
"830 884 CURVE SMOOTH",
"821 882 OFFCURVE",
"810 880 OFFCURVE",
"797 879 CURVE SMOOTH",
"626 867 OFFCURVE",
"547 776 OFFCURVE",
"511 563 CURVE SMOOTH",
"484 402 LINE",
"243 402 LINE",
"270 573 LINE SMOOTH",
"275 603 OFFCURVE",
"279 639 OFFCURVE",
"296 694 CURVE",
"279 694 OFFCURVE",
"267 691 OFFCURVE",
"237 691 CURVE SMOOTH",
"207 691 OFFCURVE",
"181 694 OFFCURVE",
"159 694 CURVE SMOOTH",
"95 694 OFFCURVE",
"50 662 OFFCURVE",
"35 606 CURVE SMOOTH",
"33 601 OFFCURVE",
"32 595 OFFCURVE",
"32 589 CURVE SMOOTH",
"32 584 OFFCURVE",
"33 580 OFFCURVE",
"37 580 CURVE SMOOTH",
"42 580 OFFCURVE",
"46 588 OFFCURVE",
"53 598 CURVE SMOOTH",
"72 624 OFFCURVE",
"99 635 OFFCURVE",
"138 635 CURVE SMOOTH",
"161 635 OFFCURVE",
"190 630 OFFCURVE",
"205 630 CURVE",
"131 172 LINE SMOOTH",
"118 84 OFFCURVE",
"117 88 OFFCURVE",
"77 51 CURVE SMOOTH",
"62 36 OFFCURVE",
"55 25 OFFCURVE",
"55 10 CURVE SMOOTH",
"55 4 OFFCURVE",
"56 0 OFFCURVE",
"60 0 CURVE SMOOTH",
"68 0 OFFCURVE",
"86 17 OFFCURVE",
"110 17 CURVE SMOOTH",
"135 17 OFFCURVE",
"165 0 OFFCURVE",
"185 0 CURVE SMOOTH",
"192 0 OFFCURVE",
"210 2 OFFCURVE",
"246 41 CURVE SMOOTH",
"257 52 OFFCURVE",
"258 57 OFFCURVE",
"258 62 CURVE SMOOTH",
"258 67 OFFCURVE",
"255 69 OFFCURVE",
"252 69 CURVE SMOOTH",
"242 69 OFFCURVE",
"232 58 OFFCURVE",
"211 58 CURVE SMOOTH",
"198 58 OFFCURVE",
"191 62 OFFCURVE",
"176 67 CURVE",
"176 68 LINE",
"185 78 OFFCURVE",
"192 93 OFFCURVE",
"195 110 CURVE SMOOTH",
"233 335 LINE",
"472 335 LINE",
"436 92 LINE SMOOTH",
"428 27 OFFCURVE",
"441 -10 OFFCURVE",
"469 -10 CURVE SMOOTH"
);
}
);
width = 683;
}
);
leftKerningGroup = H;
note = H;
rightKerningGroup = H;
unicode = 0048;
},
{
glyphname = I;
layers = (
{
anchors = (
{
name = bottom;
position = "{141, 0}";
},
{
name = ogonek;
position = "{244, 10}";
},
{
name = top;
position = "{260, 694}";
},
{
name = topleft;
position = "{100, 656}";
}
);
background = {
anchors = (
{
name = bottom;
position = "{141, 0}";
},
{
name = ogonek;
position = "{244, 10}";
},
{
name = top;
position = "{260, 694}";
},
{
name = topleft;
position = "{100, 656}";
}
);
paths = (
{
closed = 1;
nodes = (
"48 0 OFFCURVE",
"69 16 OFFCURVE",
"117 16 CURVE SMOOTH",
"162 16 OFFCURVE",
"190 0 OFFCURVE",
"217 0 CURVE SMOOTH",
"241 0 OFFCURVE",
"269 11 OFFCURVE",
"296 50 CURVE SMOOTH",
"306 66 OFFCURVE",
"309 73 OFFCURVE",
"309 79 CURVE SMOOTH",
"309 84 OFFCURVE",
"306 88 OFFCURVE",
"301 88 CURVE SMOOTH",
"294 88 OFFCURVE",
"285 78 OFFCURVE",
"257 78 CURVE SMOOTH",
"241 78 OFFCURVE",
"226 81 OFFCURVE",
"206 84 CURVE",
"206 86 LINE",
"217 95 OFFCURVE",
"226 117 OFFCURVE",
"228 139 CURVE SMOOTH",
"298 622 LINE",
"312 624 OFFCURVE",
"332 624 OFFCURVE",
"347 626 CURVE SMOOTH",
"379 630 OFFCURVE",
"378 640 OFFCURVE",
"397 671 CURVE SMOOTH",
"403 681 OFFCURVE",
"405 686 OFFCURVE",
"405 692 CURVE SMOOTH",
"405 697 OFFCURVE",
"404 702 OFFCURVE",
"397 702 CURVE SMOOTH",
"389 702 OFFCURVE",
"388 701 OFFCURVE",
"330 697 CURVE SMOOTH",
"296 694 OFFCURVE",
"243 693 OFFCURVE",
"170 694 CURVE SMOOTH",
"130 694 OFFCURVE",
"103 676 OFFCURVE",
"86 642 CURVE SMOOTH",
"82 635 OFFCURVE",
"78 624 OFFCURVE",
"78 616 CURVE SMOOTH",
"78 610 OFFCURVE",
"81 605 OFFCURVE",
"87 605 CURVE SMOOTH",
"94 605 OFFCURVE",
"115 611 OFFCURVE",
"150 615 CURVE SMOOTH",
"171 618 OFFCURVE",
"181 618 OFFCURVE",
"191 618 CURVE",
"128 176 LINE SMOOTH",
"123 136 OFFCURVE",
"118 105 OFFCURVE",
"104 94 CURVE SMOOTH",
"97 87 OFFCURVE",
"73 78 OFFCURVE",
"66 74 CURVE SMOOTH",
"42 62 OFFCURVE",
"27 26 OFFCURVE",
"27 10 CURVE SMOOTH",
"27 4 OFFCURVE",
"29 0 OFFCURVE",
"35 0 CURVE SMOOTH"
);
}
);
};
layerId = "56450C88-1299-454A-B666-E6F9AF06B23F";
paths = (
{
closed = 1;
nodes = (
"48 0 OFFCURVE",
"69 16 OFFCURVE",
"117 16 CURVE SMOOTH",
"162 16 OFFCURVE",
"190 0 OFFCURVE",
"217 0 CURVE SMOOTH",
"241 0 OFFCURVE",
"269 11 OFFCURVE",
"296 50 CURVE SMOOTH",
"306 66 OFFCURVE",
"309 73 OFFCURVE",
"309 79 CURVE SMOOTH",
"309 84 OFFCURVE",
"306 88 OFFCURVE",
"301 88 CURVE SMOOTH",
"294 88 OFFCURVE",
"285 78 OFFCURVE",
"257 78 CURVE SMOOTH",
"241 78 OFFCURVE",
"226 81 OFFCURVE",
"206 84 CURVE",
"206 86 LINE",
"217 95 OFFCURVE",
"226 117 OFFCURVE",
"228 139 CURVE SMOOTH",
"298 622 LINE",
"312 624 OFFCURVE",
"332 624 OFFCURVE",
"347 626 CURVE SMOOTH",
"379 630 OFFCURVE",
"378 640 OFFCURVE",
"397 671 CURVE SMOOTH",
"403 681 OFFCURVE",
"405 686 OFFCURVE",
"405 692 CURVE SMOOTH",
"405 697 OFFCURVE",
"404 702 OFFCURVE",
"397 702 CURVE SMOOTH",
"389 702 OFFCURVE",
"388 701 OFFCURVE",
"330 697 CURVE SMOOTH",
"296 694 OFFCURVE",
"243 693 OFFCURVE",
"170 694 CURVE SMOOTH",
"130 694 OFFCURVE",
"103 676 OFFCURVE",
"86 642 CURVE SMOOTH",
"82 635 OFFCURVE",
"78 624 OFFCURVE",
"78 616 CURVE SMOOTH",
"78 610 OFFCURVE",
"81 605 OFFCURVE",
"87 605 CURVE SMOOTH",
"94 605 OFFCURVE",
"115 611 OFFCURVE",
"150 615 CURVE SMOOTH",
"171 618 OFFCURVE",
"181 618 OFFCURVE",
"191 618 CURVE",
"128 176 LINE SMOOTH",
"123 136 OFFCURVE",
"118 105 OFFCURVE",
"104 94 CURVE SMOOTH",
"97 87 OFFCURVE",
"73 78 OFFCURVE",
"66 74 CURVE SMOOTH",
"42 62 OFFCURVE",
"27 26 OFFCURVE",
"27 10 CURVE SMOOTH",
"27 4 OFFCURVE",
"29 0 OFFCURVE",
"35 0 CURVE SMOOTH"
);
}
);
width = 398;
},
{
anchors = (
{
name = bottom;
position = "{129, 0}";
},
{
name = ogonek;
position = "{207, 6}";
},
{
name = top;
position = "{253, 694}";
},
{
name = topleft;
position = "{112, 666}";
}
);
background = {
anchors = (
{
name = bottom;
position = "{129, 0}";
},
{
name = ogonek;
position = "{207, 6}";
},
{
name = top;
position = "{253, 694}";
},
{
name = topleft;
position = "{112, 666}";
}
);
paths = (
{
closed = 1;
nodes = (
"53 0 OFFCURVE",
"83 16 OFFCURVE",
"113 16 CURVE SMOOTH",
"143 16 OFFCURVE",
"181 0 OFFCURVE",
"202 0 CURVE SMOOTH",
"222 0 OFFCURVE",
"247 12 OFFCURVE",
"272 40 CURVE SMOOTH",
"284 53 OFFCURVE",
"284 60 OFFCURVE",
"284 63 CURVE SMOOTH",
"284 67 OFFCURVE",
"283 69 OFFCURVE",
"279 69 CURVE SMOOTH",
"272 69 OFFCURVE",
"263 57 OFFCURVE",
"238 57 CURVE SMOOTH",
"219 57 OFFCURVE",
"201 63 OFFCURVE",
"182 66 CURVE",
"182 67 LINE",
"192 77 OFFCURVE",
"198 93 OFFCURVE",
"201 107 CURVE SMOOTH",
"277 639 LINE",
"291 640 OFFCURVE",
"311 641 OFFCURVE",
"326 642 CURVE SMOOTH",
"356 645 OFFCURVE",
"361 656 OFFCURVE",
"373 677 CURVE SMOOTH",
"377 683 OFFCURVE",
"381 691 OFFCURVE",
"381 697 CURVE SMOOTH",
"381 701 OFFCURVE",
"378 703 OFFCURVE",
"374 703 CURVE SMOOTH",
"366 703 OFFCURVE",
"356 696 OFFCURVE",
"316 694 CURVE SMOOTH",
"286 693 OFFCURVE",
"219 692 OFFCURVE",
"175 691 CURVE SMOOTH",
"143 689 OFFCURVE",
"124 676 OFFCURVE",
"108 652 CURVE SMOOTH",
"103 645 OFFCURVE",
"99 637 OFFCURVE",
"99 631 CURVE SMOOTH",
"99 626 OFFCURVE",
"102 625 OFFCURVE",
"105 625 CURVE SMOOTH",
"114 625 OFFCURVE",
"130 632 OFFCURVE",
"164 635 CURVE SMOOTH",
"182 636 OFFCURVE",
"184 636 OFFCURVE",
"202 636 CURVE",
"135 162 LINE SMOOTH",
"128 110 OFFCURVE",
"124 83 OFFCURVE",
"104 73 CURVE SMOOTH",
"99 71 OFFCURVE",
"100 71 OFFCURVE",
"76 61 CURVE SMOOTH",
"53 52 OFFCURVE",
"37 21 OFFCURVE",
"37 7 CURVE SMOOTH",
"37 2 OFFCURVE",
"38 0 OFFCURVE",
"43 0 CURVE SMOOTH"
);
}
);
};
layerId = "0B1DFD06-3317-40CA-B510-4969A0718C16";
paths = (
{
closed = 1;
nodes = (
"53 0 OFFCURVE",
"83 16 OFFCURVE",
"113 16 CURVE SMOOTH",
"143 16 OFFCURVE",
"181 0 OFFCURVE",
"202 0 CURVE SMOOTH",
"222 0 OFFCURVE",
"247 12 OFFCURVE",
"272 40 CURVE SMOOTH",
"284 53 OFFCURVE",
"284 60 OFFCURVE",
"284 63 CURVE SMOOTH",
"284 67 OFFCURVE",
"283 69 OFFCURVE",
"279 69 CURVE SMOOTH",
"272 69 OFFCURVE",
"263 57 OFFCURVE",
"238 57 CURVE SMOOTH",
"219 57 OFFCURVE",
"201 63 OFFCURVE",
"182 66 CURVE",
"182 67 LINE",
"192 77 OFFCURVE",
"198 93 OFFCURVE",
"201 107 CURVE SMOOTH",
"277 639 LINE",
"291 640 OFFCURVE",
"311 641 OFFCURVE",
"326 642 CURVE SMOOTH",
"356 645 OFFCURVE",
"361 656 OFFCURVE",
"373 677 CURVE SMOOTH",
"377 683 OFFCURVE",
"381 691 OFFCURVE",
"381 697 CURVE SMOOTH",
"381 701 OFFCURVE",
"378 703 OFFCURVE",
"374 703 CURVE SMOOTH",
"366 703 OFFCURVE",
"356 696 OFFCURVE",
"316 694 CURVE SMOOTH",
"286 693 OFFCURVE",
"219 692 OFFCURVE",
"175 691 CURVE SMOOTH",
"143 689 OFFCURVE",
"124 676 OFFCURVE",
"108 652 CURVE SMOOTH",
"103 645 OFFCURVE",
"99 637 OFFCURVE",
"99 631 CURVE SMOOTH",
"99 626 OFFCURVE",
"102 625 OFFCURVE",
"105 625 CURVE SMOOTH",
"114 625 OFFCURVE",
"130 632 OFFCURVE",
"164 635 CURVE SMOOTH",
"182 636 OFFCURVE",
"184 636 OFFCURVE",
"202 636 CURVE",
"135 162 LINE SMOOTH",
"128 110 OFFCURVE",
"124 83 OFFCURVE",
"104 73 CURVE SMOOTH",
"99 71 OFFCURVE",
"100 71 OFFCURVE",
"76 61 CURVE SMOOTH",
"53 52 OFFCURVE",
"37 21 OFFCURVE",
"37 7 CURVE SMOOTH",
"37 2 OFFCURVE",
"38 0 OFFCURVE",
"43 0 CURVE SMOOTH"
);
}
);
width = 383;
}
);
leftKerningGroup = I;
note = I;
rightKerningGroup = I;
unicode = 0049;
},
{
glyphname = J;
layers = (
{
anchors = (
{
name = bottom;
position = "{92, -211}";
},
{
name = top;
position = "{342, 694}";
}
);
background = {
anchors = (
{
name = bottom;
position = "{92, -211}";
},
{
name = top;
position = "{342, 694}";
}
);
paths = (
{
closed = 1;
nodes = (
"237 -211 OFFCURVE",
"346 -77 OFFCURVE",
"377 145 CURVE SMOOTH",
"434 551 LINE SMOOTH",
"440 593 OFFCURVE",
"453 647 OFFCURVE",
"470 694 CURVE",
"449 689 OFFCURVE",
"428 684 OFFCURVE",
"394 684 CURVE SMOOTH",
"346 684 OFFCURVE",
"274 694 OFFCURVE",
"233 694 CURVE SMOOTH",
"150 694 OFFCURVE",
"82 653 OFFCURVE",
"64 587 CURVE SMOOTH",
"63 582 OFFCURVE",
"62 575 OFFCURVE",
"62 569 CURVE SMOOTH",
"62 563 OFFCURVE",
"63 558 OFFCURVE",
"69 558 CURVE SMOOTH",
"77 558 OFFCURVE",
"83 567 OFFCURVE",
"92 574 CURVE SMOOTH",
"125 604 OFFCURVE",
"164 609 OFFCURVE",
"198 609 CURVE SMOOTH",
"258 609 OFFCURVE",
"295 594 OFFCURVE",
"329 594 CURVE SMOOTH",
"335 594 LINE",
"262 87 LINE SMOOTH",
"239 -72 OFFCURVE",
"207 -135 OFFCURVE",
"141 -135 CURVE SMOOTH",
"84 -135 OFFCURVE",
"58 -89 OFFCURVE",
"47 -2 CURVE SMOOTH",
"46 7 OFFCURVE",
"43 11 OFFCURVE",
"37 11 CURVE SMOOTH",
"14 11 OFFCURVE",
"-56 -43 OFFCURVE",
"-55 -82 CURVE SMOOTH",
"-53 -108 OFFCURVE",
"-22 -211 OFFCURVE",
"98 -211 CURVE SMOOTH"
);
}
);
};
layerId = "56450C88-1299-454A-B666-E6F9AF06B23F";
paths = (
{
closed = 1;
nodes = (
"237 -211 OFFCURVE",
"346 -77 OFFCURVE",
"377 145 CURVE SMOOTH",
"434 551 LINE SMOOTH",
"440 593 OFFCURVE",
"453 647 OFFCURVE",
"470 694 CURVE",
"449 689 OFFCURVE",
"428 684 OFFCURVE",
"394 684 CURVE SMOOTH",
"346 684 OFFCURVE",
"274 694 OFFCURVE",
"233 694 CURVE SMOOTH",
"150 694 OFFCURVE",
"82 653 OFFCURVE",
"64 587 CURVE SMOOTH",
"63 582 OFFCURVE",
"62 575 OFFCURVE",
"62 569 CURVE SMOOTH",
"62 563 OFFCURVE",
"63 558 OFFCURVE",
"69 558 CURVE SMOOTH",
"77 558 OFFCURVE",
"83 567 OFFCURVE",
"92 574 CURVE SMOOTH",
"125 604 OFFCURVE",
"164 609 OFFCURVE",
"198 609 CURVE SMOOTH",
"258 609 OFFCURVE",
"295 594 OFFCURVE",
"329 594 CURVE SMOOTH",
"335 594 LINE",
"262 87 LINE SMOOTH",
"239 -72 OFFCURVE",
"207 -135 OFFCURVE",
"141 -135 CURVE SMOOTH",
"84 -135 OFFCURVE",
"58 -89 OFFCURVE",
"47 -2 CURVE SMOOTH",
"46 7 OFFCURVE",
"43 11 OFFCURVE",
"37 11 CURVE SMOOTH",
"14 11 OFFCURVE",
"-56 -43 OFFCURVE",
"-55 -82 CURVE SMOOTH",
"-53 -108 OFFCURVE",
"-22 -211 OFFCURVE",
"98 -211 CURVE SMOOTH"
);
}
);
width = 475;
},
{
anchors = (
{
name = bottom;
position = "{107, -211}";
},
{
name = top;
position = "{321, 694}";
}
);
background = {
anchors = (
{
name = bottom;
position = "{107, -211}";
},
{
name = top;
position = "{321, 694}";
}
);
paths = (
{
closed = 1;
nodes = (
"222 -211 OFFCURVE",
"315 -91 OFFCURVE",
"350 134 CURVE SMOOTH",
"419 583 LINE SMOOTH",
"424 613 OFFCURVE",
"425 640 OFFCURVE",
"444 694 CURVE",
"424 687 OFFCURVE",
"412 684 OFFCURVE",
"382 684 CURVE SMOOTH",
"326 684 OFFCURVE",
"294 694 OFFCURVE",
"242 694 CURVE SMOOTH",
"144 694 OFFCURVE",
"89 663 OFFCURVE",
"77 591 CURVE SMOOTH",
"76 585 OFFCURVE",
"76 584 OFFCURVE",
"76 580 CURVE SMOOTH",
"76 577 OFFCURVE",
"78 573 OFFCURVE",
"83 573 CURVE SMOOTH",
"88 573 OFFCURVE",
"92 577 OFFCURVE",
"102 588 CURVE SMOOTH",
"120 607 OFFCURVE",
"145 635 OFFCURVE",
"216 635 CURVE SMOOTH",
"270 635 OFFCURVE",
"309 619 OFFCURVE",
"346 619 CURVE SMOOTH",
"351 619 LINE",
"265 73 LINE SMOOTH",
"238 -97 OFFCURVE",
"203 -156 OFFCURVE",
"130 -156 CURVE SMOOTH",
"46 -156 OFFCURVE",
"36 -77 OFFCURVE",
"31 -27 CURVE SMOOTH",
"30 -16 OFFCURVE",
"29 -15 OFFCURVE",
"17 -19 CURVE SMOOTH",
"-12 -29 OFFCURVE",
"-46 -58 OFFCURVE",
"-45 -93 CURVE SMOOTH",
"-44 -128 OFFCURVE",
"-6 -211 OFFCURVE",
"97 -211 CURVE SMOOTH"
);
}
);
};
layerId = "0B1DFD06-3317-40CA-B510-4969A0718C16";
paths = (
{
closed = 1;
nodes = (
"222 -211 OFFCURVE",
"315 -91 OFFCURVE",
"350 134 CURVE SMOOTH",
"419 583 LINE SMOOTH",
"424 613 OFFCURVE",
"425 640 OFFCURVE",
"444 694 CURVE",
"424 687 OFFCURVE",
"412 684 OFFCURVE",
"382 684 CURVE SMOOTH",
"326 684 OFFCURVE",
"294 694 OFFCURVE",
"242 694 CURVE SMOOTH",
"144 694 OFFCURVE",
"89 663 OFFCURVE",
"77 591 CURVE SMOOTH",
"76 585 OFFCURVE",
"76 584 OFFCURVE",
"76 580 CURVE SMOOTH",
"76 577 OFFCURVE",
"78 573 OFFCURVE",
"83 573 CURVE SMOOTH",
"88 573 OFFCURVE",
"92 577 OFFCURVE",
"102 588 CURVE SMOOTH",
"120 607 OFFCURVE",
"145 635 OFFCURVE",
"216 635 CURVE SMOOTH",
"270 635 OFFCURVE",
"309 619 OFFCURVE",
"346 619 CURVE SMOOTH",
"351 619 LINE",
"265 73 LINE SMOOTH",
"238 -97 OFFCURVE",
"203 -156 OFFCURVE",
"130 -156 CURVE SMOOTH",
"46 -156 OFFCURVE",
"36 -77 OFFCURVE",
"31 -27 CURVE SMOOTH",
"30 -16 OFFCURVE",
"29 -15 OFFCURVE",
"17 -19 CURVE SMOOTH",
"-12 -29 OFFCURVE",
"-46 -58 OFFCURVE",
"-45 -93 CURVE SMOOTH",
"-44 -128 OFFCURVE",
"-6 -211 OFFCURVE",
"97 -211 CURVE SMOOTH"
);
}
);
width = 459;
}
);
leftKerningGroup = J;
note = J;
rightKerningGroup = J;
unicode = 004A;
},
{
glyphname = K;
layers = (
{
anchors = (
{
name = bottom;
position = "{368, 0}";
},
{
name = top;
position = "{365, 694}";
}
);
background = {
anchors = (
{
name = bottom;
position = "{368, 0}";
},
{
name = top;
position = "{365, 694}";
}
);
paths = (
{
closed = 1;
nodes = (
"525 -10 OFFCURVE",
"596 99 OFFCURVE",
"596 155 CURVE SMOOTH",
"596 165 OFFCURVE",
"594 170 OFFCURVE",
"588 170 CURVE SMOOTH",
"579 170 OFFCURVE",
"574 164 OFFCURVE",
"565 149 CURVE SMOOTH",
"557 134 OFFCURVE",
"533 97 OFFCURVE",
"506 97 CURVE SMOOTH",
"486 97 OFFCURVE",
"474 114 OFFCURVE",
"453 153 CURVE SMOOTH",
"325 384 LINE",
"516 615 LINE SMOOTH",
"565 675 OFFCURVE",
"614 725 OFFCURVE",
"662 760 CURVE SMOOTH",
"717 800 OFFCURVE",
"748 805 OFFCURVE",
"790 807 CURVE SMOOTH",
"835 810 OFFCURVE",
"868 844 OFFCURVE",
"868 869 CURVE SMOOTH",
"868 875 OFFCURVE",
"866 880 OFFCURVE",
"859 880 CURVE SMOOTH",
"854 880 OFFCURVE",
"851 877 OFFCURVE",
"839 874 CURVE SMOOTH",
"828 870 OFFCURVE",
"818 870 OFFCURVE",
"806 870 CURVE SMOOTH",
"753 868 OFFCURVE",
"697 866 OFFCURVE",
"626 821 CURVE SMOOTH",
"546 773 OFFCURVE",
"479 697 OFFCURVE",
"404 608 CURVE SMOOTH",
"274 450 LINE",
"291 560 LINE SMOOTH",
"301 615 OFFCURVE",
"308 647 OFFCURVE",
"322 694 CURVE",
"303 694 OFFCURVE",
"288 689 OFFCURVE",
"257 689 CURVE SMOOTH",
"129 689 OFFCURVE",
"47 699 OFFCURVE",
"25 589 CURVE SMOOTH",
"24 583 OFFCURVE",
"22 577 OFFCURVE",
"22 568 CURVE SMOOTH",
"22 562 OFFCURVE",
"25 558 OFFCURVE",
"30 558 CURVE SMOOTH",
"37 558 OFFCURVE",
"42 564 OFFCURVE",
"50 574 CURVE SMOOTH",
"72 604 OFFCURVE",
"98 611 OFFCURVE",
"134 611 CURVE SMOOTH",
"166 611 OFFCURVE",
"181 605 OFFCURVE",
"196 605 CURVE",
"126 174 LINE SMOOTH",
"115 107 OFFCURVE",
"108 89 OFFCURVE",
"79 62 CURVE SMOOTH",
"64 47 OFFCURVE",
"48 31 OFFCURVE",
"48 10 CURVE SMOOTH",
"48 0 OFFCURVE",
"51 -2 OFFCURVE",
"55 -2 CURVE SMOOTH",
"64 -2 OFFCURVE",
"84 14 OFFCURVE",
"118 14 CURVE SMOOTH",
"150 14 OFFCURVE",
"175 -2 OFFCURVE",
"203 -2 CURVE SMOOTH",
"226 -2 OFFCURVE",
"246 6 OFFCURVE",
"277 51 CURVE SMOOTH",
"284 61 OFFCURVE",
"288 71 OFFCURVE",
"288 78 CURVE SMOOTH",
"288 84 OFFCURVE",
"285 87 OFFCURVE",
"280 87 CURVE SMOOTH",
"270 87 OFFCURVE",
"260 76 OFFCURVE",
"236 76 CURVE SMOOTH",
"221 76 OFFCURVE",
"206 78 OFFCURVE",
"198 82 CURVE",
"198 83 LINE",
"210 93 OFFCURVE",
"218 110 OFFCURVE",
"221 128 CURVE SMOOTH",
"252 314 LINE",
"343 139 LINE SMOOTH",
"393 46 OFFCURVE",
"428 -10 OFFCURVE",
"469 -10 CURVE SMOOTH"
);
}
);
};
layerId = "56450C88-1299-454A-B666-E6F9AF06B23F";
paths = (
{
closed = 1;
nodes = (
"525 -10 OFFCURVE",
"596 99 OFFCURVE",
"596 155 CURVE SMOOTH",
"596 165 OFFCURVE",
"594 170 OFFCURVE",
"588 170 CURVE SMOOTH",
"579 170 OFFCURVE",
"574 164 OFFCURVE",
"565 149 CURVE SMOOTH",
"557 134 OFFCURVE",
"533 97 OFFCURVE",
"506 97 CURVE SMOOTH",
"486 97 OFFCURVE",
"474 114 OFFCURVE",
"453 153 CURVE SMOOTH",
"325 384 LINE",
"516 615 LINE SMOOTH",
"565 675 OFFCURVE",
"614 725 OFFCURVE",
"662 760 CURVE SMOOTH",
"717 800 OFFCURVE",
"748 805 OFFCURVE",
"790 807 CURVE SMOOTH",
"835 810 OFFCURVE",
"868 844 OFFCURVE",
"868 869 CURVE SMOOTH",
"868 875 OFFCURVE",
"866 880 OFFCURVE",
"859 880 CURVE SMOOTH",
"854 880 OFFCURVE",
"851 877 OFFCURVE",
"839 874 CURVE SMOOTH",
"828 870 OFFCURVE",
"818 870 OFFCURVE",
"806 870 CURVE SMOOTH",
"753 868 OFFCURVE",
"697 866 OFFCURVE",
"626 821 CURVE SMOOTH",
"546 773 OFFCURVE",
"479 697 OFFCURVE",
"404 608 CURVE SMOOTH",
"274 450 LINE",
"291 560 LINE SMOOTH",
"301 615 OFFCURVE",
"308 647 OFFCURVE",
"322 694 CURVE",
"303 694 OFFCURVE",
"288 689 OFFCURVE",
"257 689 CURVE SMOOTH",
"129 689 OFFCURVE",
"47 699 OFFCURVE",
"25 589 CURVE SMOOTH",
"24 583 OFFCURVE",
"22 577 OFFCURVE",
"22 568 CURVE SMOOTH",
"22 562 OFFCURVE",
"25 558 OFFCURVE",
"30 558 CURVE SMOOTH",
"37 558 OFFCURVE",
"42 564 OFFCURVE",
"50 574 CURVE SMOOTH",
"72 604 OFFCURVE",
"98 611 OFFCURVE",
"134 611 CURVE SMOOTH",
"166 611 OFFCURVE",
"181 605 OFFCURVE",
"196 605 CURVE",
"126 174 LINE SMOOTH",
"115 107 OFFCURVE",
"108 89 OFFCURVE",
"79 62 CURVE SMOOTH",
"64 47 OFFCURVE",
"48 31 OFFCURVE",
"48 10 CURVE SMOOTH",
"48 0 OFFCURVE",
"51 -2 OFFCURVE",
"55 -2 CURVE SMOOTH",
"64 -2 OFFCURVE",
"84 14 OFFCURVE",
"118 14 CURVE SMOOTH",
"150 14 OFFCURVE",
"175 -2 OFFCURVE",
"203 -2 CURVE SMOOTH",
"226 -2 OFFCURVE",
"246 6 OFFCURVE",
"277 51 CURVE SMOOTH",
"284 61 OFFCURVE",
"288 71 OFFCURVE",
"288 78 CURVE SMOOTH",
"288 84 OFFCURVE",
"285 87 OFFCURVE",
"280 87 CURVE SMOOTH",
"270 87 OFFCURVE",
"260 76 OFFCURVE",
"236 76 CURVE SMOOTH",
"221 76 OFFCURVE",
"206 78 OFFCURVE",
"198 82 CURVE",
"198 83 LINE",
"210 93 OFFCURVE",
"218 110 OFFCURVE",
"221 128 CURVE SMOOTH",
"252 314 LINE",
"343 139 LINE SMOOTH",
"393 46 OFFCURVE",
"428 -10 OFFCURVE",
"469 -10 CURVE SMOOTH"
);
}
);
width = 637;
},
{
anchors = (
{
name = bottom;
position = "{277, 0}";
},
{
name = top;
position = "{342, 694}";
}
);
background = {
anchors = (
{
name = bottom;
position = "{277, 0}";
},
{
name = top;
position = "{342, 694}";
}
);
paths = (
{
closed = 1;
nodes = (
"500 -10 OFFCURVE",
"565 89 OFFCURVE",
"565 124 CURVE SMOOTH",
"565 129 OFFCURVE",
"564 135 OFFCURVE",
"558 135 CURVE SMOOTH",
"552 135 OFFCURVE",
"547 128 OFFCURVE",
"539 118 CURVE SMOOTH",
"525 98 OFFCURVE",
"502 74 OFFCURVE",
"484 74 CURVE SMOOTH",
"465 74 OFFCURVE",
"454 94 OFFCURVE",
"430 140 CURVE SMOOTH",
"304 384 LINE",
"430 568 LINE SMOOTH",
"517 694 OFFCURVE",
"573 761 OFFCURVE",
"618 789 CURVE SMOOTH",
"676 825 OFFCURVE",
"714 817 OFFCURVE",
"774 826 CURVE SMOOTH",
"821 833 OFFCURVE",
"836 854 OFFCURVE",
"836 872 CURVE SMOOTH",
"836 877 OFFCURVE",
"833 878 OFFCURVE",
"831 878 CURVE SMOOTH",
"827 878 OFFCURVE",
"826 877 OFFCURVE",
"818 874 CURVE SMOOTH",
"811 872 OFFCURVE",
"807 870 OFFCURVE",
"790 869 CURVE SMOOTH",
"709 863 OFFCURVE",
"649 858 OFFCURVE",
"591 830 CURVE SMOOTH",
"518 794 OFFCURVE",
"465 727 OFFCURVE",
"376 598 CURVE SMOOTH",
"241 402 LINE",
"267 573 LINE SMOOTH",
"273 615 OFFCURVE",
"284 658 OFFCURVE",
"296 694 CURVE",
"275 694 OFFCURVE",
"265 691 OFFCURVE",
"237 691 CURVE SMOOTH",
"207 691 OFFCURVE",
"181 694 OFFCURVE",
"159 694 CURVE SMOOTH",
"95 694 OFFCURVE",
"48 662 OFFCURVE",
"35 606 CURVE SMOOTH",
"33 601 OFFCURVE",
"32 595 OFFCURVE",
"32 589 CURVE SMOOTH",
"32 584 OFFCURVE",
"33 580 OFFCURVE",
"37 580 CURVE SMOOTH",
"42 580 OFFCURVE",
"46 588 OFFCURVE",
"53 598 CURVE SMOOTH",
"72 622 OFFCURVE",
"99 635 OFFCURVE",
"138 635 CURVE SMOOTH",
"161 635 OFFCURVE",
"187 630 OFFCURVE",
"202 630 CURVE",
"129 172 LINE SMOOTH",
"115 84 OFFCURVE",
"114 88 OFFCURVE",
"74 51 CURVE SMOOTH",
"60 36 OFFCURVE",
"53 25 OFFCURVE",
"53 10 CURVE SMOOTH",
"53 4 OFFCURVE",
"55 0 OFFCURVE",
"58 0 CURVE SMOOTH",
"66 0 OFFCURVE",
"83 17 OFFCURVE",
"108 17 CURVE SMOOTH",
"133 17 OFFCURVE",
"162 0 OFFCURVE",
"182 0 CURVE SMOOTH",
"191 0 OFFCURVE",
"207 2 OFFCURVE",
"243 41 CURVE SMOOTH",
"254 52 OFFCURVE",
"257 58 OFFCURVE",
"257 63 CURVE SMOOTH",
"257 67 OFFCURVE",
"254 69 OFFCURVE",
"250 69 CURVE SMOOTH",
"242 69 OFFCURVE",
"231 58 OFFCURVE",
"208 58 CURVE SMOOTH",
"197 58 OFFCURVE",
"188 62 OFFCURVE",
"174 67 CURVE",
"174 68 LINE",
"182 77 OFFCURVE",
"190 92 OFFCURVE",
"192 110 CURVE SMOOTH",
"233 357 LINE",
"347 134 LINE SMOOTH",
"389 52 OFFCURVE",
"422 -10 OFFCURVE",
"456 -10 CURVE SMOOTH"
);
}
);
};
layerId = "0B1DFD06-3317-40CA-B510-4969A0718C16";
paths = (
{
closed = 1;
nodes = (
"500 -10 OFFCURVE",
"565 89 OFFCURVE",
"565 124 CURVE SMOOTH",
"565 129 OFFCURVE",
"564 135 OFFCURVE",
"558 135 CURVE SMOOTH",
"552 135 OFFCURVE",
"547 128 OFFCURVE",
"539 118 CURVE SMOOTH",
"525 98 OFFCURVE",
"502 74 OFFCURVE",
"484 74 CURVE SMOOTH",
"465 74 OFFCURVE",
"454 94 OFFCURVE",
"430 140 CURVE SMOOTH",
"304 384 LINE",
"430 568 LINE SMOOTH",
"517 694 OFFCURVE",
"573 761 OFFCURVE",
"618 789 CURVE SMOOTH",
"676 825 OFFCURVE",
"714 817 OFFCURVE",
"774 826 CURVE SMOOTH",
"821 833 OFFCURVE",
"836 854 OFFCURVE",
"836 872 CURVE SMOOTH",
"836 877 OFFCURVE",
"833 878 OFFCURVE",
"831 878 CURVE SMOOTH",
"827 878 OFFCURVE",
"826 877 OFFCURVE",
"818 874 CURVE SMOOTH",
"811 872 OFFCURVE",
"807 870 OFFCURVE",
"790 869 CURVE SMOOTH",
"709 863 OFFCURVE",
"649 858 OFFCURVE",
"591 830 CURVE SMOOTH",
"518 794 OFFCURVE",
"465 727 OFFCURVE",
"376 598 CURVE SMOOTH",
"241 402 LINE",
"267 573 LINE SMOOTH",
"273 615 OFFCURVE",
"284 658 OFFCURVE",
"296 694 CURVE",
"275 694 OFFCURVE",
"265 691 OFFCURVE",
"237 691 CURVE SMOOTH",
"207 691 OFFCURVE",
"181 694 OFFCURVE",
"159 694 CURVE SMOOTH",
"95 694 OFFCURVE",
"48 662 OFFCURVE",
"35 606 CURVE SMOOTH",
"33 601 OFFCURVE",
"32 595 OFFCURVE",
"32 589 CURVE SMOOTH",
"32 584 OFFCURVE",
"33 580 OFFCURVE",
"37 580 CURVE SMOOTH",
"42 580 OFFCURVE",
"46 588 OFFCURVE",
"53 598 CURVE SMOOTH",
"72 622 OFFCURVE",
"99 635 OFFCURVE",
"138 635 CURVE SMOOTH",
"161 635 OFFCURVE",
"187 630 OFFCURVE",
"202 630 CURVE",
"129 172 LINE SMOOTH",
"115 84 OFFCURVE",
"114 88 OFFCURVE",
"74 51 CURVE SMOOTH",
"60 36 OFFCURVE",
"53 25 OFFCURVE",
"53 10 CURVE SMOOTH",
"53 4 OFFCURVE",
"55 0 OFFCURVE",
"58 0 CURVE SMOOTH",
"66 0 OFFCURVE",
"83 17 OFFCURVE",
"108 17 CURVE SMOOTH",
"133 17 OFFCURVE",
"162 0 OFFCURVE",
"182 0 CURVE SMOOTH",
"191 0 OFFCURVE",
"207 2 OFFCURVE",
"243 41 CURVE SMOOTH",
"254 52 OFFCURVE",
"257 58 OFFCURVE",
"257 63 CURVE SMOOTH",
"257 67 OFFCURVE",
"254 69 OFFCURVE",
"250 69 CURVE SMOOTH",
"242 69 OFFCURVE",
"231 58 OFFCURVE",
"208 58 CURVE SMOOTH",
"197 58 OFFCURVE",
"188 62 OFFCURVE",
"174 67 CURVE",
"174 68 LINE",
"182 77 OFFCURVE",
"190 92 OFFCURVE",
"192 110 CURVE SMOOTH",
"233 357 LINE",
"347 134 LINE SMOOTH",
"389 52 OFFCURVE",
"422 -10 OFFCURVE",
"456 -10 CURVE SMOOTH"
);
}
);
width = 615;
}
);
leftKerningGroup = H;
note = K;
rightKerningGroup = K;
unicode = 004B;
},
{
glyphname = L;
layers = (
{
anchors = (
{
name = bottom;
position = "{196, 0}";
},
{
name = center;
position = "{362, 347}";
},
{
name = top;
position = "{377, 744}";
},
{
name = topright;
position = "{542, 744}";
}
);
background = {
anchors = (
{
name = bottom;
position = "{196, 0}";
},
{
name = center;
position = "{362, 347}";
},
{
name = top;
position = "{377, 744}";
},
{
name = topright;
position = "{542, 744}";
}
);
paths = (
{
closed = 1;
nodes = (
"-21 0 OFFCURVE",
"-17 17 OFFCURVE",
"43 17 CURVE SMOOTH",
"105 17 OFFCURVE",
"197 0 OFFCURVE",
"257 0 CURVE SMOOTH",
"379 0 OFFCURVE",
"467 69 OFFCURVE",
"467 122 CURVE SMOOTH",
"467 131 OFFCURVE",
"465 136 OFFCURVE",
"459 136 CURVE SMOOTH",
"450 136 OFFCURVE",
"441 129 OFFCURVE",
"438 126 CURVE SMOOTH",
"403 102 OFFCURVE",
"372 87 OFFCURVE",
"289 87 CURVE SMOOTH",
"246 87 OFFCURVE",
"187 92 OFFCURVE",
"157 97 CURVE",
"157 98 LINE",
"172 115 OFFCURVE",
"185 140 OFFCURVE",
"192 181 CURVE SMOOTH",
"253 554 LINE SMOOTH",
"265 627 OFFCURVE",
"279 661 OFFCURVE",
"306 681 CURVE SMOOTH",
"319 691 OFFCURVE",
"335 694 OFFCURVE",
"355 694 CURVE SMOOTH",
"389 694 OFFCURVE",
"405 682 OFFCURVE",
"419 682 CURVE SMOOTH",
"444 682 OFFCURVE",
"501 720 OFFCURVE",
"501 737 CURVE SMOOTH",
"501 740 OFFCURVE",
"495 744 OFFCURVE",
"477 750 CURVE SMOOTH",
"451 759 OFFCURVE",
"430 764 OFFCURVE",
"397 764 CURVE SMOOTH",
"331 764 OFFCURVE",
"281 737 OFFCURVE",
"236 694 CURVE SMOOTH",
"182 646 OFFCURVE",
"154 596 OFFCURVE",
"144 537 CURVE SMOOTH",
"89 206 LINE SMOOTH",
"82 156 OFFCURVE",
"72 125 OFFCURVE",
"57 103 CURVE",
"52 103 OFFCURVE",
"42 103 OFFCURVE",
"35 103 CURVE SMOOTH",
"-4 103 OFFCURVE",
"-45 57 OFFCURVE",
"-45 12 CURVE SMOOTH",
"-45 2 OFFCURVE",
"-42 0 OFFCURVE",
"-36 0 CURVE SMOOTH"
);
}
);
};
layerId = "56450C88-1299-454A-B666-E6F9AF06B23F";
paths = (
{
closed = 1;
nodes = (
"-21 0 OFFCURVE",
"-17 17 OFFCURVE",
"43 17 CURVE SMOOTH",
"105 17 OFFCURVE",
"197 0 OFFCURVE",
"257 0 CURVE SMOOTH",
"379 0 OFFCURVE",
"467 69 OFFCURVE",
"467 122 CURVE SMOOTH",
"467 131 OFFCURVE",
"465 136 OFFCURVE",
"459 136 CURVE SMOOTH",
"450 136 OFFCURVE",
"441 129 OFFCURVE",
"438 126 CURVE SMOOTH",
"403 102 OFFCURVE",
"372 87 OFFCURVE",
"289 87 CURVE SMOOTH",
"246 87 OFFCURVE",
"187 92 OFFCURVE",
"157 97 CURVE",
"157 98 LINE",
"172 115 OFFCURVE",
"185 140 OFFCURVE",
"192 181 CURVE SMOOTH",
"253 554 LINE SMOOTH",
"265 627 OFFCURVE",
"279 661 OFFCURVE",
"306 681 CURVE SMOOTH",
"319 691 OFFCURVE",
"335 694 OFFCURVE",
"355 694 CURVE SMOOTH",
"389 694 OFFCURVE",
"405 682 OFFCURVE",
"419 682 CURVE SMOOTH",
"444 682 OFFCURVE",
"501 720 OFFCURVE",
"501 737 CURVE SMOOTH",
"501 740 OFFCURVE",
"495 744 OFFCURVE",
"477 750 CURVE SMOOTH",
"451 759 OFFCURVE",
"430 764 OFFCURVE",
"397 764 CURVE SMOOTH",
"331 764 OFFCURVE",
"281 737 OFFCURVE",
"236 694 CURVE SMOOTH",
"182 646 OFFCURVE",
"154 596 OFFCURVE",
"144 537 CURVE SMOOTH",
"89 206 LINE SMOOTH",
"82 156 OFFCURVE",
"72 125 OFFCURVE",
"57 103 CURVE",
"52 103 OFFCURVE",
"42 103 OFFCURVE",
"35 103 CURVE SMOOTH",
"-4 103 OFFCURVE",
"-45 57 OFFCURVE",
"-45 12 CURVE SMOOTH",
"-45 2 OFFCURVE",
"-42 0 OFFCURVE",
"-36 0 CURVE SMOOTH"
);
}
);
width = 506;
},
{
anchors = (
{
name = bottom;
position = "{182, 0}";
},
{
name = center;
position = "{353, 347}";
},
{
name = top;
position = "{404, 744}";
},
{
name = topright;
position = "{511, 744}";
}
);
background = {
anchors = (
{
name = bottom;
position = "{182, 0}";
},
{
name = center;
position = "{353, 347}";
},
{
name = top;
position = "{404, 744}";
},
{
name = topright;
position = "{511, 744}";
}
);
paths = (
{
closed = 1;
nodes = (
"-16 0 OFFCURVE",
"-12 17 OFFCURVE",
"52 17 CURVE SMOOTH",
"117 17 OFFCURVE",
"197 0 OFFCURVE",
"253 0 CURVE SMOOTH",
"365 0 OFFCURVE",
"453 67 OFFCURVE",
"453 103 CURVE SMOOTH",
"453 109 OFFCURVE",
"451 114 OFFCURVE",
"446 114 CURVE SMOOTH",
"444 114 OFFCURVE",
"439 112 OFFCURVE",
"433 108 CURVE SMOOTH",
"391 83 OFFCURVE",
"337 66 OFFCURVE",
"275 66 CURVE SMOOTH",
"242 66 OFFCURVE",
"156 71 OFFCURVE",
"128 77 CURVE",
"128 78 LINE",
"144 93 OFFCURVE",
"157 122 OFFCURVE",
"162 149 CURVE SMOOTH",
"236 567 LINE SMOOTH",
"247 627 OFFCURVE",
"262 671 OFFCURVE",
"290 693 CURVE SMOOTH",
"308 707 OFFCURVE",
"329 717 OFFCURVE",
"356 717 CURVE SMOOTH",
"386 717 OFFCURVE",
"404 707 OFFCURVE",
"415 707 CURVE SMOOTH",
"432 707 OFFCURVE",
"475 725 OFFCURVE",
"475 738 CURVE SMOOTH",
"475 742 OFFCURVE",
"472 745 OFFCURVE",
"463 750 CURVE SMOOTH",
"445 759 OFFCURVE",
"415 764 OFFCURVE",
"389 764 CURVE SMOOTH",
"334 764 OFFCURVE",
"286 742 OFFCURVE",
"241 697 CURVE SMOOTH",
"187 645 OFFCURVE",
"167 598 OFFCURVE",
"159 547 CURVE SMOOTH",
"98 191 LINE SMOOTH",
"87 126 OFFCURVE",
"73 102 OFFCURVE",
"58 82 CURVE",
"51 82 OFFCURVE",
"46 82 OFFCURVE",
"35 82 CURVE SMOOTH",
"4 82 OFFCURVE",
"-35 36 OFFCURVE",
"-35 9 CURVE SMOOTH",
"-35 5 OFFCURVE",
"-33 0 OFFCURVE",
"-29 0 CURVE SMOOTH"
);
}
);
};
layerId = "0B1DFD06-3317-40CA-B510-4969A0718C16";
paths = (
{
closed = 1;
nodes = (
"-16 0 OFFCURVE",
"-12 17 OFFCURVE",
"52 17 CURVE SMOOTH",
"117 17 OFFCURVE",
"197 0 OFFCURVE",
"253 0 CURVE SMOOTH",
"365 0 OFFCURVE",
"453 67 OFFCURVE",
"453 103 CURVE SMOOTH",
"453 109 OFFCURVE",
"451 114 OFFCURVE",
"446 114 CURVE SMOOTH",
"444 114 OFFCURVE",
"439 112 OFFCURVE",
"433 108 CURVE SMOOTH",
"391 83 OFFCURVE",
"337 66 OFFCURVE",
"275 66 CURVE SMOOTH",
"242 66 OFFCURVE",
"156 71 OFFCURVE",
"128 77 CURVE",
"128 78 LINE",
"144 93 OFFCURVE",
"157 122 OFFCURVE",
"162 149 CURVE SMOOTH",
"236 567 LINE SMOOTH",
"247 627 OFFCURVE",
"262 671 OFFCURVE",
"290 693 CURVE SMOOTH",
"308 707 OFFCURVE",
"329 717 OFFCURVE",
"356 717 CURVE SMOOTH",
"386 717 OFFCURVE",
"404 707 OFFCURVE",
"415 707 CURVE SMOOTH",
"432 707 OFFCURVE",
"475 725 OFFCURVE",
"475 738 CURVE SMOOTH",
"475 742 OFFCURVE",
"472 745 OFFCURVE",
"463 750 CURVE SMOOTH",
"445 759 OFFCURVE",
"415 764 OFFCURVE",
"389 764 CURVE SMOOTH",
"334 764 OFFCURVE",
"286 742 OFFCURVE",
"241 697 CURVE SMOOTH",
"187 645 OFFCURVE",
"167 598 OFFCURVE",
"159 547 CURVE SMOOTH",
"98 191 LINE SMOOTH",
"87 126 OFFCURVE",
"73 102 OFFCURVE",
"58 82 CURVE",
"51 82 OFFCURVE",
"46 82 OFFCURVE",
"35 82 CURVE SMOOTH",
"4 82 OFFCURVE",
"-35 36 OFFCURVE",
"-35 9 CURVE SMOOTH",
"-35 5 OFFCURVE",
"-33 0 OFFCURVE",
"-29 0 CURVE SMOOTH"
);
}
);
width = 490;
}
);
leftKerningGroup = L;
note = L;
rightKerningGroup = L;
unicode = 004C;
},
{
glyphname = M;
layers = (
{
anchors = (
{
name = bottom;
position = "{341, 0}";
},
{
name = top;
position = "{461, 694}";
}
);
background = {
anchors = (
{
name = bottom;
position = "{341, 0}";
},
{
name = top;
position = "{461, 694}";
}
);
paths = (
{
closed = 1;
nodes = (
"48 0 OFFCURVE",
"67 16 OFFCURVE",
"102 16 CURVE SMOOTH",
"134 16 OFFCURVE",
"148 0 OFFCURVE",
"176 0 CURVE SMOOTH",
"201 0 OFFCURVE",
"219 10 OFFCURVE",
"250 52 CURVE SMOOTH",
"258 63 OFFCURVE",
"262 71 OFFCURVE",
"262 78 CURVE SMOOTH",
"262 86 OFFCURVE",
"259 88 OFFCURVE",
"254 88 CURVE SMOOTH",
"244 88 OFFCURVE",
"236 77 OFFCURVE",
"212 77 CURVE SMOOTH",
"200 77 OFFCURVE",
"184 81 OFFCURVE",
"176 84 CURVE",
"176 86 LINE",
"186 94 OFFCURVE",
"193 124 OFFCURVE",
"196 133 CURVE SMOOTH",
"257 436 LINE",
"258 435 LINE",
"260 422 OFFCURVE",
"295 267 OFFCURVE",
"298 257 CURVE SMOOTH",
"320 156 OFFCURVE",
"322 126 OFFCURVE",
"330 50 CURVE SMOOTH",
"331 41 OFFCURVE",
"332 37 OFFCURVE",
"336 37 CURVE SMOOTH",
"352 37 OFFCURVE",
"401 99 OFFCURVE",
"428 144 CURVE",
"466 242 OFFCURVE",
"533 372 OFFCURVE",
"588 459 CURVE",
"589 459 LINE",
"568 283 OFFCURVE",
"578 389 OFFCURVE",
"552 110 CURVE SMOOTH",
"549 86 OFFCURVE",
"538 86 OFFCURVE",
"512 64 CURVE SMOOTH",
"489 46 OFFCURVE",
"480 30 OFFCURVE",
"480 12 CURVE SMOOTH",
"480 2 OFFCURVE",
"484 0 OFFCURVE",
"487 0 CURVE SMOOTH",
"497 0 OFFCURVE",
"516 16 OFFCURVE",
"549 16 CURVE SMOOTH",
"583 16 OFFCURVE",
"613 0 OFFCURVE",
"639 0 CURVE SMOOTH",
"657 0 OFFCURVE",
"682 7 OFFCURVE",
"717 52 CURVE SMOOTH",
"727 63 OFFCURVE",
"729 72 OFFCURVE",
"729 78 CURVE SMOOTH",
"729 86 OFFCURVE",
"727 88 OFFCURVE",
"722 88 CURVE SMOOTH",
"712 88 OFFCURVE",
"698 77 OFFCURVE",
"675 77 CURVE SMOOTH",
"662 77 OFFCURVE",
"647 81 OFFCURVE",
"635 87 CURVE",
"635 88 LINE",
"646 98 OFFCURVE",
"656 120 OFFCURVE",
"658 146 CURVE SMOOTH",
"684 371 OFFCURVE",
"687 479 OFFCURVE",
"706 595 CURVE SMOOTH",
"723 717 OFFCURVE",
"746 775 OFFCURVE",
"797 800 CURVE SMOOTH",
"826 813 OFFCURVE",
"853 815 OFFCURVE",
"892 816 CURVE SMOOTH",
"930 816 OFFCURVE",
"970 849 OFFCURVE",
"970 877 CURVE SMOOTH",
"970 884 OFFCURVE",
"967 888 OFFCURVE",
"962 888 CURVE SMOOTH",
"957 888 OFFCURVE",
"954 885 OFFCURVE",
"942 882 CURVE SMOOTH",
"934 879 OFFCURVE",
"919 878 OFFCURVE",
"908 878 CURVE SMOOTH",
"854 878 OFFCURVE",
"808 874 OFFCURVE",
"765 853 CURVE SMOOTH",
"702 822 OFFCURVE",
"666 769 OFFCURVE",
"615 665 CURVE SMOOTH",
"572 575 OFFCURVE",
"585 590 OFFCURVE",
"403 260 CURVE",
"402 269 OFFCURVE",
"398 284 OFFCURVE",
"394 295 CURVE SMOOTH",
"363 428 LINE SMOOTH",
"340 527 OFFCURVE",
"325 595 OFFCURVE",
"325 649 CURVE SMOOTH",
"325 662 OFFCURVE",
"326 681 OFFCURVE",
"327 694 CURVE",
"308 694 OFFCURVE",
"290 689 OFFCURVE",
"257 689 CURVE SMOOTH",
"223 689 OFFCURVE",
"198 694 OFFCURVE",
"171 694 CURVE SMOOTH",
"92 694 OFFCURVE",
"37 651 OFFCURVE",
"24 584 CURVE SMOOTH",
"22 578 OFFCURVE",
"22 573 OFFCURVE",
"22 568 CURVE SMOOTH",
"22 560 OFFCURVE",
"26 558 OFFCURVE",
"31 558 CURVE SMOOTH",
"37 558 OFFCURVE",
"42 564 OFFCURVE",
"50 574 CURVE SMOOTH",
"73 604 OFFCURVE",
"98 611 OFFCURVE",
"134 611 CURVE SMOOTH",
"166 611 OFFCURVE",
"181 605 OFFCURVE",
"197 605 CURVE SMOOTH",
"203 605 LINE",
"112 167 LINE SMOOTH",
"97 97 OFFCURVE",
"91 91 OFFCURVE",
"63 64 CURVE SMOOTH",
"43 46 OFFCURVE",
"32 31 OFFCURVE",
"32 12 CURVE SMOOTH",
"32 2 OFFCURVE",
"35 0 OFFCURVE",
"38 0 CURVE SMOOTH"
);
}
);
};
layerId = "56450C88-1299-454A-B666-E6F9AF06B23F";
paths = (
{
closed = 1;
nodes = (
"48 0 OFFCURVE",
"67 16 OFFCURVE",
"102 16 CURVE SMOOTH",
"134 16 OFFCURVE",
"148 0 OFFCURVE",
"176 0 CURVE SMOOTH",
"201 0 OFFCURVE",
"219 10 OFFCURVE",
"250 52 CURVE SMOOTH",
"258 63 OFFCURVE",
"262 71 OFFCURVE",
"262 78 CURVE SMOOTH",
"262 86 OFFCURVE",
"259 88 OFFCURVE",
"254 88 CURVE SMOOTH",
"244 88 OFFCURVE",
"236 77 OFFCURVE",
"212 77 CURVE SMOOTH",
"200 77 OFFCURVE",
"184 81 OFFCURVE",
"176 84 CURVE",
"176 86 LINE",
"186 94 OFFCURVE",
"193 124 OFFCURVE",
"196 133 CURVE SMOOTH",
"257 436 LINE",
"258 435 LINE",
"260 422 OFFCURVE",
"295 267 OFFCURVE",
"298 257 CURVE SMOOTH",
"320 156 OFFCURVE",
"322 126 OFFCURVE",
"330 50 CURVE SMOOTH",
"331 41 OFFCURVE",
"332 37 OFFCURVE",
"336 37 CURVE SMOOTH",
"352 37 OFFCURVE",
"401 99 OFFCURVE",
"428 144 CURVE",
"466 242 OFFCURVE",
"533 372 OFFCURVE",
"588 459 CURVE",
"589 459 LINE",
"568 283 OFFCURVE",
"578 389 OFFCURVE",
"552 110 CURVE SMOOTH",
"549 86 OFFCURVE",
"538 86 OFFCURVE",
"512 64 CURVE SMOOTH",
"489 46 OFFCURVE",
"480 30 OFFCURVE",
"480 12 CURVE SMOOTH",
"480 2 OFFCURVE",
"484 0 OFFCURVE",
"487 0 CURVE SMOOTH",
"497 0 OFFCURVE",
"516 16 OFFCURVE",
"549 16 CURVE SMOOTH",
"583 16 OFFCURVE",
"613 0 OFFCURVE",
"639 0 CURVE SMOOTH",
"657 0 OFFCURVE",
"682 7 OFFCURVE",
"717 52 CURVE SMOOTH",
"727 63 OFFCURVE",
"729 72 OFFCURVE",
"729 78 CURVE SMOOTH",
"729 86 OFFCURVE",
"727 88 OFFCURVE",
"722 88 CURVE SMOOTH",
"712 88 OFFCURVE",
"698 77 OFFCURVE",
"675 77 CURVE SMOOTH",
"662 77 OFFCURVE",
"647 81 OFFCURVE",
"635 87 CURVE",
"635 88 LINE",
"646 98 OFFCURVE",
"656 120 OFFCURVE",
"658 146 CURVE SMOOTH",
"684 371 OFFCURVE",
"687 479 OFFCURVE",
"706 595 CURVE SMOOTH",
"723 717 OFFCURVE",
"746 775 OFFCURVE",
"797 800 CURVE SMOOTH",
"826 813 OFFCURVE",
"853 815 OFFCURVE",
"892 816 CURVE SMOOTH",
"930 816 OFFCURVE",
"970 849 OFFCURVE",
"970 877 CURVE SMOOTH",
"970 884 OFFCURVE",
"967 888 OFFCURVE",
"962 888 CURVE SMOOTH",
"957 888 OFFCURVE",
"954 885 OFFCURVE",
"942 882 CURVE SMOOTH",
"934 879 OFFCURVE",
"919 878 OFFCURVE",
"908 878 CURVE SMOOTH",
"854 878 OFFCURVE",
"808 874 OFFCURVE",
"765 853 CURVE SMOOTH",
"702 822 OFFCURVE",
"666 769 OFFCURVE",
"615 665 CURVE SMOOTH",
"572 575 OFFCURVE",
"585 590 OFFCURVE",
"403 260 CURVE",
"402 269 OFFCURVE",
"398 284 OFFCURVE",
"394 295 CURVE SMOOTH",
"363 428 LINE SMOOTH",
"340 527 OFFCURVE",
"325 595 OFFCURVE",
"325 649 CURVE SMOOTH",
"325 662 OFFCURVE",
"326 681 OFFCURVE",
"327 694 CURVE",
"308 694 OFFCURVE",
"290 689 OFFCURVE",
"257 689 CURVE SMOOTH",
"223 689 OFFCURVE",
"198 694 OFFCURVE",
"171 694 CURVE SMOOTH",
"92 694 OFFCURVE",
"37 651 OFFCURVE",
"24 584 CURVE SMOOTH",
"22 578 OFFCURVE",
"22 573 OFFCURVE",
"22 568 CURVE SMOOTH",
"22 560 OFFCURVE",
"26 558 OFFCURVE",
"31 558 CURVE SMOOTH",
"37 558 OFFCURVE",
"42 564 OFFCURVE",
"50 574 CURVE SMOOTH",
"73 604 OFFCURVE",
"98 611 OFFCURVE",
"134 611 CURVE SMOOTH",
"166 611 OFFCURVE",
"181 605 OFFCURVE",
"197 605 CURVE SMOOTH",
"203 605 LINE",
"112 167 LINE SMOOTH",
"97 97 OFFCURVE",
"91 91 OFFCURVE",
"63 64 CURVE SMOOTH",
"43 46 OFFCURVE",
"32 31 OFFCURVE",
"32 12 CURVE SMOOTH",
"32 2 OFFCURVE",
"35 0 OFFCURVE",
"38 0 CURVE SMOOTH"
);
}
);
width = 796;
},
{
anchors = (
{
name = bottom;
position = "{330, 0}";
},
{
name = top;
position = "{439, 694}";
}
);
background = {
anchors = (
{
name = bottom;
position = "{330, 0}";
},
{
name = top;
position = "{439, 694}";
}
);
paths = (
{
closed = 1;
nodes = (
"46 0 OFFCURVE",
"62 17 OFFCURVE",
"87 17 CURVE SMOOTH",
"112 17 OFFCURVE",
"133 0 OFFCURVE",
"153 0 CURVE SMOOTH",
"161 0 OFFCURVE",
"177 2 OFFCURVE",
"213 41 CURVE SMOOTH",
"224 52 OFFCURVE",
"226 58 OFFCURVE",
"226 63 CURVE SMOOTH",
"226 67 OFFCURVE",
"224 69 OFFCURVE",
"221 69 CURVE SMOOTH",
"213 69 OFFCURVE",
"203 58 OFFCURVE",
"184 58 CURVE SMOOTH",
"171 58 OFFCURVE",
"159 62 OFFCURVE",
"144 67 CURVE",
"144 68 LINE",
"155 81 OFFCURVE",
"160 95 OFFCURVE",
"162 110 CURVE SMOOTH",
"246 513 LINE",
"247 513 LINE",
"259 446 OFFCURVE",
"277 365 OFFCURVE",
"290 299 CURVE SMOOTH",
"319 161 OFFCURVE",
"322 126 OFFCURVE",
"326 52 CURVE SMOOTH",
"326 43 OFFCURVE",
"330 42 OFFCURVE",
"334 42 CURVE SMOOTH",
"348 42 OFFCURVE",
"382 102 OFFCURVE",
"398 136 CURVE",
"439 246 OFFCURVE",
"529 409 OFFCURVE",
"596 528 CURVE",
"598 528 LINE",
"588 433 OFFCURVE",
"573 300 OFFCURVE",
"552 113 CURVE SMOOTH",
"548 86 OFFCURVE",
"539 78 OFFCURVE",
"503 51 CURVE SMOOTH",
"486 37 OFFCURVE",
"479 20 OFFCURVE",
"479 9 CURVE SMOOTH",
"479 4 OFFCURVE",
"480 0 OFFCURVE",
"485 0 CURVE SMOOTH",
"492 0 OFFCURVE",
"517 17 OFFCURVE",
"544 17 CURVE SMOOTH",
"569 17 OFFCURVE",
"609 0 OFFCURVE",
"629 0 CURVE SMOOTH",
"637 0 OFFCURVE",
"655 1 OFFCURVE",
"689 41 CURVE SMOOTH",
"699 52 OFFCURVE",
"702 58 OFFCURVE",
"702 63 CURVE SMOOTH",
"702 67 OFFCURVE",
"701 69 OFFCURVE",
"697 69 CURVE SMOOTH",
"688 69 OFFCURVE",
"673 58 OFFCURVE",
"650 58 CURVE SMOOTH",
"637 58 OFFCURVE",
"622 62 OFFCURVE",
"608 67 CURVE",
"608 68 LINE",
"616 77 OFFCURVE",
"625 92 OFFCURVE",
"627 110 CURVE SMOOTH",
"660 309 OFFCURVE",
"658 422 OFFCURVE",
"677 548 CURVE SMOOTH",
"698 702 OFFCURVE",
"732 770 OFFCURVE",
"773 802 CURVE SMOOTH",
"806 828 OFFCURVE",
"851 832 OFFCURVE",
"875 836 CURVE SMOOTH",
"905 841 OFFCURVE",
"937 853 OFFCURVE",
"937 880 CURVE SMOOTH",
"937 884 OFFCURVE",
"936 888 OFFCURVE",
"932 888 CURVE SMOOTH",
"930 888 OFFCURVE",
"926 885 OFFCURVE",
"923 884 CURVE SMOOTH",
"913 880 OFFCURVE",
"897 879 OFFCURVE",
"879 878 CURVE SMOOTH",
"825 874 OFFCURVE",
"787 866 OFFCURVE",
"746 839 CURVE SMOOTH",
"701 808 OFFCURVE",
"660 759 OFFCURVE",
"608 660 CURVE SMOOTH",
"578 603 OFFCURVE",
"409 268 OFFCURVE",
"383 216 CURVE",
"379 239 OFFCURVE",
"376 260 OFFCURVE",
"370 289 CURVE SMOOTH",
"339 434 LINE SMOOTH",
"315 538 OFFCURVE",
"300 609 OFFCURVE",
"300 656 CURVE SMOOTH",
"300 667 OFFCURVE",
"301 684 OFFCURVE",
"304 694 CURVE",
"283 694 OFFCURVE",
"270 691 OFFCURVE",
"242 691 CURVE SMOOTH",
"212 691 OFFCURVE",
"186 694 OFFCURVE",
"164 694 CURVE SMOOTH",
"100 694 OFFCURVE",
"53 662 OFFCURVE",
"40 606 CURVE SMOOTH",
"38 601 OFFCURVE",
"37 595 OFFCURVE",
"37 589 CURVE SMOOTH",
"37 584 OFFCURVE",
"38 580 OFFCURVE",
"42 580 CURVE SMOOTH",
"47 580 OFFCURVE",
"51 588 OFFCURVE",
"58 598 CURVE SMOOTH",
"77 622 OFFCURVE",
"104 635 OFFCURVE",
"143 635 CURVE SMOOTH",
"166 635 OFFCURVE",
"193 630 OFFCURVE",
"208 630 CURVE SMOOTH",
"215 630 LINE",
"112 149 LINE SMOOTH",
"99 88 OFFCURVE",
"97 87 OFFCURVE",
"53 51 CURVE SMOOTH",
"40 40 OFFCURVE",
"32 22 OFFCURVE",
"32 9 CURVE SMOOTH",
"32 4 OFFCURVE",
"33 0 OFFCURVE",
"38 0 CURVE SMOOTH"
);
}
);
};
layerId = "0B1DFD06-3317-40CA-B510-4969A0718C16";
paths = (
{
closed = 1;
nodes = (
"46 0 OFFCURVE",
"62 17 OFFCURVE",
"87 17 CURVE SMOOTH",
"112 17 OFFCURVE",
"133 0 OFFCURVE",
"153 0 CURVE SMOOTH",
"161 0 OFFCURVE",
"177 2 OFFCURVE",
"213 41 CURVE SMOOTH",
"224 52 OFFCURVE",
"226 58 OFFCURVE",
"226 63 CURVE SMOOTH",
"226 67 OFFCURVE",
"224 69 OFFCURVE",
"221 69 CURVE SMOOTH",
"213 69 OFFCURVE",
"203 58 OFFCURVE",
"184 58 CURVE SMOOTH",
"171 58 OFFCURVE",
"159 62 OFFCURVE",
"144 67 CURVE",
"144 68 LINE",
"155 81 OFFCURVE",
"160 95 OFFCURVE",
"162 110 CURVE SMOOTH",
"246 513 LINE",
"247 513 LINE",
"259 446 OFFCURVE",
"277 365 OFFCURVE",
"290 299 CURVE SMOOTH",
"319 161 OFFCURVE",
"322 126 OFFCURVE",
"326 52 CURVE SMOOTH",
"326 43 OFFCURVE",
"330 42 OFFCURVE",
"334 42 CURVE SMOOTH",
"348 42 OFFCURVE",
"382 102 OFFCURVE",
"398 136 CURVE",
"439 246 OFFCURVE",
"529 409 OFFCURVE",
"596 528 CURVE",
"598 528 LINE",
"588 433 OFFCURVE",
"573 300 OFFCURVE",
"552 113 CURVE SMOOTH",
"548 86 OFFCURVE",
"539 78 OFFCURVE",
"503 51 CURVE SMOOTH",
"486 37 OFFCURVE",
"479 20 OFFCURVE",
"479 9 CURVE SMOOTH",
"479 4 OFFCURVE",
"480 0 OFFCURVE",
"485 0 CURVE SMOOTH",
"492 0 OFFCURVE",
"517 17 OFFCURVE",
"544 17 CURVE SMOOTH",
"569 17 OFFCURVE",
"609 0 OFFCURVE",
"629 0 CURVE SMOOTH",
"637 0 OFFCURVE",
"655 1 OFFCURVE",
"689 41 CURVE SMOOTH",
"699 52 OFFCURVE",
"702 58 OFFCURVE",
"702 63 CURVE SMOOTH",
"702 67 OFFCURVE",
"701 69 OFFCURVE",
"697 69 CURVE SMOOTH",
"688 69 OFFCURVE",
"673 58 OFFCURVE",
"650 58 CURVE SMOOTH",
"637 58 OFFCURVE",
"622 62 OFFCURVE",
"608 67 CURVE",
"608 68 LINE",
"616 77 OFFCURVE",
"625 92 OFFCURVE",
"627 110 CURVE SMOOTH",
"660 309 OFFCURVE",
"658 422 OFFCURVE",
"677 548 CURVE SMOOTH",
"698 702 OFFCURVE",
"732 770 OFFCURVE",
"773 802 CURVE SMOOTH",
"806 828 OFFCURVE",
"851 832 OFFCURVE",
"875 836 CURVE SMOOTH",
"905 841 OFFCURVE",
"937 853 OFFCURVE",
"937 880 CURVE SMOOTH",
"937 884 OFFCURVE",
"936 888 OFFCURVE",
"932 888 CURVE SMOOTH",
"930 888 OFFCURVE",
"926 885 OFFCURVE",
"923 884 CURVE SMOOTH",
"913 880 OFFCURVE",
"897 879 OFFCURVE",
"879 878 CURVE SMOOTH",
"825 874 OFFCURVE",
"787 866 OFFCURVE",
"746 839 CURVE SMOOTH",
"701 808 OFFCURVE",
"660 759 OFFCURVE",
"608 660 CURVE SMOOTH",
"578 603 OFFCURVE",
"409 268 OFFCURVE",
"383 216 CURVE",
"379 239 OFFCURVE",
"376 260 OFFCURVE",
"370 289 CURVE SMOOTH",
"339 434 LINE SMOOTH",
"315 538 OFFCURVE",
"300 609 OFFCURVE",
"300 656 CURVE SMOOTH",
"300 667 OFFCURVE",
"301 684 OFFCURVE",
"304 694 CURVE",
"283 694 OFFCURVE",
"270 691 OFFCURVE",
"242 691 CURVE SMOOTH",
"212 691 OFFCURVE",
"186 694 OFFCURVE",
"164 694 CURVE SMOOTH",
"100 694 OFFCURVE",
"53 662 OFFCURVE",
"40 606 CURVE SMOOTH",
"38 601 OFFCURVE",
"37 595 OFFCURVE",
"37 589 CURVE SMOOTH",
"37 584 OFFCURVE",
"38 580 OFFCURVE",
"42 580 CURVE SMOOTH",
"47 580 OFFCURVE",
"51 588 OFFCURVE",
"58 598 CURVE SMOOTH",
"77 622 OFFCURVE",
"104 635 OFFCURVE",
"143 635 CURVE SMOOTH",
"166 635 OFFCURVE",
"193 630 OFFCURVE",
"208 630 CURVE SMOOTH",
"215 630 LINE",
"112 149 LINE SMOOTH",
"99 88 OFFCURVE",
"97 87 OFFCURVE",
"53 51 CURVE SMOOTH",
"40 40 OFFCURVE",
"32 22 OFFCURVE",
"32 9 CURVE SMOOTH",
"32 4 OFFCURVE",
"33 0 OFFCURVE",
"38 0 CURVE SMOOTH"
);
}
);
width = 774;
}
);
leftKerningGroup = H;
note = M;
rightKerningGroup = H;
unicode = 004D;
},
{
glyphname = N;
layers = (
{
anchors = (
{
name = bottom;
position = "{310, 0}";
},
{
name = top;
position = "{429, 694}";
}
);
background = {
anchors = (
{
name = bottom;
position = "{310, 0}";
},
{
name = top;
position = "{429, 694}";
}
);
paths = (
{
closed = 1;
nodes = (
"482 -10 OFFCURVE",
"542 62 OFFCURVE",
"552 119 CURVE SMOOTH",
"630 574 LINE SMOOTH",
"647 671 OFFCURVE",
"667 737 OFFCURVE",
"702 775 CURVE SMOOTH",
"733 808 OFFCURVE",
"763 812 OFFCURVE",
"811 816 CURVE SMOOTH",
"851 817 OFFCURVE",
"889 844 OFFCURVE",
"889 877 CURVE SMOOTH",
"889 884 OFFCURVE",
"887 888 OFFCURVE",
"882 888 CURVE SMOOTH",
"877 888 OFFCURVE",
"873 885 OFFCURVE",
"862 882 CURVE SMOOTH",
"853 879 OFFCURVE",
"838 878 OFFCURVE",
"827 878 CURVE SMOOTH",
"763 875 OFFCURVE",
"706 870 OFFCURVE",
"651 825 CURVE SMOOTH",
"596 779 OFFCURVE",
"556 704 OFFCURVE",
"532 558 CURVE SMOOTH",
"484 257 LINE",
"482 257 LINE",
"458 310 OFFCURVE",
"479 263 OFFCURVE",
"454 316 CURVE SMOOTH",
"402 420 LINE SMOOTH",
"352 521 OFFCURVE",
"320 583 OFFCURVE",
"320 649 CURVE SMOOTH",
"320 665 OFFCURVE",
"321 677 OFFCURVE",
"327 694 CURVE",
"308 694 OFFCURVE",
"290 689 OFFCURVE",
"257 689 CURVE SMOOTH",
"223 689 OFFCURVE",
"198 694 OFFCURVE",
"171 694 CURVE SMOOTH",
"95 694 OFFCURVE",
"37 652 OFFCURVE",
"25 589 CURVE SMOOTH",
"24 583 OFFCURVE",
"22 577 OFFCURVE",
"22 568 CURVE SMOOTH",
"22 562 OFFCURVE",
"25 558 OFFCURVE",
"30 558 CURVE SMOOTH",
"37 558 OFFCURVE",
"42 564 OFFCURVE",
"50 574 CURVE SMOOTH",
"72 604 OFFCURVE",
"98 611 OFFCURVE",
"134 611 CURVE SMOOTH",
"166 611 OFFCURVE",
"180 605 OFFCURVE",
"196 605 CURVE SMOOTH",
"202 605 LINE",
"129 176 LINE SMOOTH",
"117 102 OFFCURVE",
"112 92 OFFCURVE",
"82 64 CURVE SMOOTH",
"67 50 OFFCURVE",
"51 32 OFFCURVE",
"51 12 CURVE SMOOTH",
"51 2 OFFCURVE",
"53 0 OFFCURVE",
"57 0 CURVE SMOOTH",
"67 0 OFFCURVE",
"87 16 OFFCURVE",
"120 16 CURVE SMOOTH",
"153 16 OFFCURVE",
"175 0 OFFCURVE",
"203 0 CURVE SMOOTH",
"226 0 OFFCURVE",
"246 9 OFFCURVE",
"275 52 CURVE SMOOTH",
"284 63 OFFCURVE",
"288 72 OFFCURVE",
"288 79 CURVE SMOOTH",
"288 86 OFFCURVE",
"285 88 OFFCURVE",
"280 88 CURVE SMOOTH",
"268 88 OFFCURVE",
"260 77 OFFCURVE",
"236 77 CURVE SMOOTH",
"221 77 OFFCURVE",
"206 81 OFFCURVE",
"198 84 CURVE",
"198 86 LINE",
"210 95 OFFCURVE",
"218 112 OFFCURVE",
"221 130 CURVE SMOOTH",
"275 460 LINE",
"277 460 LINE",
"284 439 OFFCURVE",
"295 409 OFFCURVE",
"309 384 CURVE SMOOTH",
"372 258 LINE SMOOTH",
"383 236 OFFCURVE",
"419 166 OFFCURVE",
"429 148 CURVE SMOOTH",
"439 125 OFFCURVE",
"441 107 OFFCURVE",
"441 91 CURVE SMOOTH",
"441 47 OFFCURVE",
"428 16 OFFCURVE",
"428 1 CURVE SMOOTH",
"428 -6 OFFCURVE",
"430 -10 OFFCURVE",
"440 -10 CURVE SMOOTH"
);
}
);
};
layerId = "56450C88-1299-454A-B666-E6F9AF06B23F";
paths = (
{
closed = 1;
nodes = (
"482 -10 OFFCURVE",
"542 62 OFFCURVE",
"552 119 CURVE SMOOTH",
"630 574 LINE SMOOTH",
"647 671 OFFCURVE",
"667 737 OFFCURVE",
"702 775 CURVE SMOOTH",
"733 808 OFFCURVE",
"763 812 OFFCURVE",
"811 816 CURVE SMOOTH",
"851 817 OFFCURVE",
"889 844 OFFCURVE",
"889 877 CURVE SMOOTH",
"889 884 OFFCURVE",
"887 888 OFFCURVE",
"882 888 CURVE SMOOTH",
"877 888 OFFCURVE",
"873 885 OFFCURVE",
"862 882 CURVE SMOOTH",
"853 879 OFFCURVE",
"838 878 OFFCURVE",
"827 878 CURVE SMOOTH",
"763 875 OFFCURVE",
"706 870 OFFCURVE",
"651 825 CURVE SMOOTH",
"596 779 OFFCURVE",
"556 704 OFFCURVE",
"532 558 CURVE SMOOTH",
"484 257 LINE",
"482 257 LINE",
"458 310 OFFCURVE",
"479 263 OFFCURVE",
"454 316 CURVE SMOOTH",
"402 420 LINE SMOOTH",
"352 521 OFFCURVE",
"320 583 OFFCURVE",
"320 649 CURVE SMOOTH",
"320 665 OFFCURVE",
"321 677 OFFCURVE",
"327 694 CURVE",
"308 694 OFFCURVE",
"290 689 OFFCURVE",
"257 689 CURVE SMOOTH",
"223 689 OFFCURVE",
"198 694 OFFCURVE",
"171 694 CURVE SMOOTH",
"95 694 OFFCURVE",
"37 652 OFFCURVE",
"25 589 CURVE SMOOTH",
"24 583 OFFCURVE",
"22 577 OFFCURVE",
"22 568 CURVE SMOOTH",
"22 562 OFFCURVE",
"25 558 OFFCURVE",
"30 558 CURVE SMOOTH",
"37 558 OFFCURVE",
"42 564 OFFCURVE",
"50 574 CURVE SMOOTH",
"72 604 OFFCURVE",
"98 611 OFFCURVE",
"134 611 CURVE SMOOTH",
"166 611 OFFCURVE",
"180 605 OFFCURVE",
"196 605 CURVE SMOOTH",
"202 605 LINE",
"129 176 LINE SMOOTH",
"117 102 OFFCURVE",
"112 92 OFFCURVE",
"82 64 CURVE SMOOTH",
"67 50 OFFCURVE",
"51 32 OFFCURVE",
"51 12 CURVE SMOOTH",
"51 2 OFFCURVE",
"53 0 OFFCURVE",
"57 0 CURVE SMOOTH",
"67 0 OFFCURVE",
"87 16 OFFCURVE",
"120 16 CURVE SMOOTH",
"153 16 OFFCURVE",
"175 0 OFFCURVE",
"203 0 CURVE SMOOTH",
"226 0 OFFCURVE",
"246 9 OFFCURVE",
"275 52 CURVE SMOOTH",
"284 63 OFFCURVE",
"288 72 OFFCURVE",
"288 79 CURVE SMOOTH",
"288 86 OFFCURVE",
"285 88 OFFCURVE",
"280 88 CURVE SMOOTH",
"268 88 OFFCURVE",
"260 77 OFFCURVE",
"236 77 CURVE SMOOTH",
"221 77 OFFCURVE",
"206 81 OFFCURVE",
"198 84 CURVE",
"198 86 LINE",
"210 95 OFFCURVE",
"218 112 OFFCURVE",
"221 130 CURVE SMOOTH",
"275 460 LINE",
"277 460 LINE",
"284 439 OFFCURVE",
"295 409 OFFCURVE",
"309 384 CURVE SMOOTH",
"372 258 LINE SMOOTH",
"383 236 OFFCURVE",
"419 166 OFFCURVE",
"429 148 CURVE SMOOTH",
"439 125 OFFCURVE",
"441 107 OFFCURVE",
"441 91 CURVE SMOOTH",
"441 47 OFFCURVE",
"428 16 OFFCURVE",
"428 1 CURVE SMOOTH",
"428 -6 OFFCURVE",
"430 -10 OFFCURVE",
"440 -10 CURVE SMOOTH"
);
}
);
width = 691;
},
{
anchors = (
{
name = bottom;
position = "{290, 0}";
},
{
name = top;
position = "{441, 694}";
}
);
background = {
anchors = (
{
name = bottom;
position = "{290, 0}";
},
{
name = top;
position = "{441, 694}";
}
);
paths = (
{
closed = 1;
nodes = (
"469 -10 OFFCURVE",
"520 64 OFFCURVE",
"527 109 CURVE SMOOTH",
"605 588 LINE SMOOTH",
"619 676 OFFCURVE",
"641 751 OFFCURVE",
"687 801 CURVE SMOOTH",
"725 841 OFFCURVE",
"761 841 OFFCURVE",
"801 846 CURVE SMOOTH",
"853 852 OFFCURVE",
"863 883 OFFCURVE",
"863 892 CURVE SMOOTH",
"863 895 OFFCURVE",
"862 898 OFFCURVE",
"858 898 CURVE SMOOTH",
"856 898 OFFCURVE",
"853 897 OFFCURVE",
"846 894 CURVE SMOOTH",
"837 892 OFFCURVE",
"830 890 OFFCURVE",
"817 889 CURVE SMOOTH",
"737 882 OFFCURVE",
"697 867 OFFCURVE",
"655 832 CURVE SMOOTH",
"596 785 OFFCURVE",
"559 704 OFFCURVE",
"539 574 CURVE SMOOTH",
"484 207 LINE",
"482 207 LINE",
"472 232 OFFCURVE",
"459 260 OFFCURVE",
"430 312 CURVE SMOOTH",
"374 418 LINE SMOOTH",
"319 521 OFFCURVE",
"290 594 OFFCURVE",
"290 652 CURVE SMOOTH",
"290 670 OFFCURVE",
"293 684 OFFCURVE",
"295 694 CURVE",
"278 694 OFFCURVE",
"265 691 OFFCURVE",
"236 691 CURVE SMOOTH",
"206 691 OFFCURVE",
"181 694 OFFCURVE",
"159 694 CURVE SMOOTH",
"95 694 OFFCURVE",
"48 662 OFFCURVE",
"35 606 CURVE SMOOTH",
"33 601 OFFCURVE",
"32 595 OFFCURVE",
"32 589 CURVE SMOOTH",
"32 584 OFFCURVE",
"33 580 OFFCURVE",
"37 580 CURVE SMOOTH",
"42 580 OFFCURVE",
"46 588 OFFCURVE",
"53 598 CURVE SMOOTH",
"72 624 OFFCURVE",
"98 635 OFFCURVE",
"136 635 CURVE SMOOTH",
"160 635 OFFCURVE",
"192 630 OFFCURVE",
"210 630 CURVE",
"134 150 LINE SMOOTH",
"124 87 OFFCURVE",
"122 86 OFFCURVE",
"81 51 CURVE SMOOTH",
"67 40 OFFCURVE",
"58 22 OFFCURVE",
"58 9 CURVE SMOOTH",
"58 4 OFFCURVE",
"60 0 OFFCURVE",
"63 0 CURVE SMOOTH",
"72 0 OFFCURVE",
"89 17 OFFCURVE",
"114 17 CURVE SMOOTH",
"139 17 OFFCURVE",
"160 0 OFFCURVE",
"180 0 CURVE SMOOTH",
"187 0 OFFCURVE",
"206 2 OFFCURVE",
"242 41 CURVE SMOOTH",
"253 52 OFFCURVE",
"255 58 OFFCURVE",
"255 63 CURVE SMOOTH",
"255 66 OFFCURVE",
"254 69 OFFCURVE",
"250 69 CURVE SMOOTH",
"242 69 OFFCURVE",
"233 58 OFFCURVE",
"211 58 CURVE SMOOTH",
"200 58 OFFCURVE",
"186 62 OFFCURVE",
"171 67 CURVE",
"171 68 LINE",
"179 77 OFFCURVE",
"185 92 OFFCURVE",
"187 110 CURVE SMOOTH",
"250 508 LINE",
"252 508 LINE",
"274 459 OFFCURVE",
"295 409 OFFCURVE",
"335 336 CURVE SMOOTH",
"374 264 LINE SMOOTH",
"399 221 OFFCURVE",
"424 170 OFFCURVE",
"435 136 CURVE SMOOTH",
"441 119 OFFCURVE",
"444 105 OFFCURVE",
"444 89 CURVE SMOOTH",
"444 52 OFFCURVE",
"432 14 OFFCURVE",
"432 2 CURVE SMOOTH",
"432 -5 OFFCURVE",
"436 -10 OFFCURVE",
"444 -10 CURVE SMOOTH"
);
}
);
};
layerId = "0B1DFD06-3317-40CA-B510-4969A0718C16";
paths = (
{
closed = 1;
nodes = (
"469 -10 OFFCURVE",
"520 64 OFFCURVE",
"527 109 CURVE SMOOTH",
"605 588 LINE SMOOTH",
"619 676 OFFCURVE",
"641 751 OFFCURVE",
"687 801 CURVE SMOOTH",
"725 841 OFFCURVE",
"761 841 OFFCURVE",
"801 846 CURVE SMOOTH",
"853 852 OFFCURVE",
"863 883 OFFCURVE",
"863 892 CURVE SMOOTH",
"863 895 OFFCURVE",
"862 898 OFFCURVE",
"858 898 CURVE SMOOTH",
"856 898 OFFCURVE",
"853 897 OFFCURVE",
"846 894 CURVE SMOOTH",
"837 892 OFFCURVE",
"830 890 OFFCURVE",
"817 889 CURVE SMOOTH",
"737 882 OFFCURVE",
"697 867 OFFCURVE",
"655 832 CURVE SMOOTH",
"596 785 OFFCURVE",
"559 704 OFFCURVE",
"539 574 CURVE SMOOTH",
"484 207 LINE",
"482 207 LINE",
"472 232 OFFCURVE",
"459 260 OFFCURVE",
"430 312 CURVE SMOOTH",
"374 418 LINE SMOOTH",
"319 521 OFFCURVE",
"290 594 OFFCURVE",
"290 652 CURVE SMOOTH",
"290 670 OFFCURVE",
"293 684 OFFCURVE",
"295 694 CURVE",
"278 694 OFFCURVE",
"265 691 OFFCURVE",
"236 691 CURVE SMOOTH",
"206 691 OFFCURVE",
"181 694 OFFCURVE",
"159 694 CURVE SMOOTH",
"95 694 OFFCURVE",
"48 662 OFFCURVE",
"35 606 CURVE SMOOTH",
"33 601 OFFCURVE",
"32 595 OFFCURVE",
"32 589 CURVE SMOOTH",
"32 584 OFFCURVE",
"33 580 OFFCURVE",
"37 580 CURVE SMOOTH",
"42 580 OFFCURVE",
"46 588 OFFCURVE",
"53 598 CURVE SMOOTH",
"72 624 OFFCURVE",
"98 635 OFFCURVE",
"136 635 CURVE SMOOTH",
"160 635 OFFCURVE",
"192 630 OFFCURVE",
"210 630 CURVE",
"134 150 LINE SMOOTH",
"124 87 OFFCURVE",
"122 86 OFFCURVE",
"81 51 CURVE SMOOTH",
"67 40 OFFCURVE",
"58 22 OFFCURVE",
"58 9 CURVE SMOOTH",
"58 4 OFFCURVE",
"60 0 OFFCURVE",
"63 0 CURVE SMOOTH",
"72 0 OFFCURVE",
"89 17 OFFCURVE",
"114 17 CURVE SMOOTH",
"139 17 OFFCURVE",
"160 0 OFFCURVE",
"180 0 CURVE SMOOTH",
"187 0 OFFCURVE",
"206 2 OFFCURVE",
"242 41 CURVE SMOOTH",
"253 52 OFFCURVE",
"255 58 OFFCURVE",
"255 63 CURVE SMOOTH",
"255 66 OFFCURVE",
"254 69 OFFCURVE",
"250 69 CURVE SMOOTH",
"242 69 OFFCURVE",
"233 58 OFFCURVE",
"211 58 CURVE SMOOTH",
"200 58 OFFCURVE",
"186 62 OFFCURVE",
"171 67 CURVE",
"171 68 LINE",
"179 77 OFFCURVE",
"185 92 OFFCURVE",
"187 110 CURVE SMOOTH",
"250 508 LINE",
"252 508 LINE",
"274 459 OFFCURVE",
"295 409 OFFCURVE",
"335 336 CURVE SMOOTH",
"374 264 LINE SMOOTH",
"399 221 OFFCURVE",
"424 170 OFFCURVE",
"435 136 CURVE SMOOTH",
"441 119 OFFCURVE",
"444 105 OFFCURVE",
"444 89 CURVE SMOOTH",
"444 52 OFFCURVE",
"432 14 OFFCURVE",
"432 2 CURVE SMOOTH",
"432 -5 OFFCURVE",
"436 -10 OFFCURVE",
"444 -10 CURVE SMOOTH"
);
}
);
width = 675;
}
);
leftKerningGroup = H;
note = N;
rightKerningGroup = N;
unicode = 004E;
},
{
glyphname = O;
layers = (
{
anchors = (
{
name = bottom;
position = "{242, 0}";
},
{
name = center;
position = "{322, 347}";
},
{
name = ogonek;
position = "{322, 9}";
},
{
name = top;
position = "{415, 694}";
},
{
name = topright;
position = "{563, 593}";
}
);
background = {
anchors = (
{
name = bottom;
position = "{242, 0}";
},
{
name = center;
position = "{322, 347}";
},
{
name = ogonek;
position = "{322, 9}";
},
{
name = top;
position = "{415, 694}";
},
{
name = topright;
position = "{563, 593}";
}
);
paths = (
{
closed = 1;
nodes = (
"419 -10 OFFCURVE",
"593 203 OFFCURVE",
"593 451 CURVE SMOOTH",
"593 603 OFFCURVE",
"528 704 OFFCURVE",
"402 704 CURVE SMOOTH",
"195 704 OFFCURVE",
"52 432 OFFCURVE",
"52 228 CURVE SMOOTH",
"52 97 OFFCURVE",
"112 -10 OFFCURVE",
"239 -10 CURVE SMOOTH"
);
},
{
closed = 1;
nodes = (
"208 67 OFFCURVE",
"171 134 OFFCURVE",
"171 264 CURVE SMOOTH",
"171 459 OFFCURVE",
"255 627 OFFCURVE",
"365 627 CURVE SMOOTH",
"439 627 OFFCURVE",
"474 548 OFFCURVE",
"474 423 CURVE SMOOTH",
"474 254 OFFCURVE",
"409 67 OFFCURVE",
"284 67 CURVE SMOOTH"
);
}
);
};
layerId = "56450C88-1299-454A-B666-E6F9AF06B23F";
paths = (
{
closed = 1;
nodes = (
"419 -10 OFFCURVE",
"593 203 OFFCURVE",
"593 451 CURVE SMOOTH",
"593 603 OFFCURVE",
"528 704 OFFCURVE",
"402 704 CURVE SMOOTH",
"195 704 OFFCURVE",
"52 432 OFFCURVE",
"52 228 CURVE SMOOTH",
"52 97 OFFCURVE",
"112 -10 OFFCURVE",
"239 -10 CURVE SMOOTH"
);
},
{
closed = 1;
nodes = (
"208 67 OFFCURVE",
"171 134 OFFCURVE",
"171 264 CURVE SMOOTH",
"171 459 OFFCURVE",
"255 627 OFFCURVE",
"365 627 CURVE SMOOTH",
"439 627 OFFCURVE",
"474 548 OFFCURVE",
"474 423 CURVE SMOOTH",
"474 254 OFFCURVE",
"409 67 OFFCURVE",
"284 67 CURVE SMOOTH"
);
}
);
width = 618;
},
{
anchors = (
{
name = bottom;
position = "{234, 0}";
},
{
name = center;
position = "{304, 347}";
},
{
name = ogonek;
position = "{314, 12}";
},
{
name = top;
position = "{419, 694}";
},
{
name = topright;
position = "{538, 603}";
}
);
background = {
anchors = (
{
name = bottom;
position = "{234, 0}";
},
{
name = center;
position = "{304, 347}";
},
{
name = ogonek;
position = "{314, 12}";
},
{
name = top;
position = "{419, 694}";
},
{
name = topright;
position = "{538, 603}";
}
);
paths = (
{
closed = 1;
nodes = (
"410 -10 OFFCURVE",
"572 208 OFFCURVE",
"572 456 CURVE SMOOTH",
"572 579 OFFCURVE",
"532 704 OFFCURVE",
"399 704 CURVE SMOOTH",
"201 704 OFFCURVE",
"62 429 OFFCURVE",
"62 231 CURVE SMOOTH",
"62 156 OFFCURVE",
"82 -10 OFFCURVE",
"236 -10 CURVE SMOOTH"
);
},
{
closed = 1;
nodes = (
"195 46 OFFCURVE",
"146 124 OFFCURVE",
"146 269 CURVE SMOOTH",
"146 491 OFFCURVE",
"259 649 OFFCURVE",
"365 649 CURVE SMOOTH",
"449 649 OFFCURVE",
"486 547 OFFCURVE",
"486 424 CURVE SMOOTH",
"486 248 OFFCURVE",
"409 46 OFFCURVE",
"277 46 CURVE SMOOTH"
);
}
);
};
layerId = "0B1DFD06-3317-40CA-B510-4969A0718C16";
paths = (
{
closed = 1;
nodes = (
"410 -10 OFFCURVE",
"572 208 OFFCURVE",
"572 456 CURVE SMOOTH",
"572 579 OFFCURVE",
"532 704 OFFCURVE",
"399 704 CURVE SMOOTH",
"201 704 OFFCURVE",
"62 429 OFFCURVE",
"62 231 CURVE SMOOTH",
"62 156 OFFCURVE",
"82 -10 OFFCURVE",
"236 -10 CURVE SMOOTH"
);
},
{
closed = 1;
nodes = (
"195 46 OFFCURVE",
"146 124 OFFCURVE",
"146 269 CURVE SMOOTH",
"146 491 OFFCURVE",
"259 649 OFFCURVE",
"365 649 CURVE SMOOTH",
"449 649 OFFCURVE",
"486 547 OFFCURVE",
"486 424 CURVE SMOOTH",
"486 248 OFFCURVE",
"409 46 OFFCURVE",
"277 46 CURVE SMOOTH"
);
}
);
width = 606;
}
);
leftKerningGroup = O;
note = O;
rightKerningGroup = O;
unicode = 004F;
},
{
glyphname = P;
layers = (
{
anchors = (
{
name = bottom;
position = "{143, 0}";
},
{
name = top;
position = "{321, 694}";
}
);
background = {
anchors = (
{
name = bottom;
position = "{143, 0}";
},
{
name = top;
position = "{321, 694}";
}
);
paths = (
{
closed = 1;
nodes = (
"58 0 OFFCURVE",
"78 16 OFFCURVE",
"112 16 CURVE SMOOTH",
"144 16 OFFCURVE",
"174 0 OFFCURVE",
"201 0 CURVE SMOOTH",
"222 0 OFFCURVE",
"247 10 OFFCURVE",
"279 52 CURVE SMOOTH",
"286 62 OFFCURVE",
"291 69 OFFCURVE",
"291 79 CURVE SMOOTH",
"291 86 OFFCURVE",
"289 88 OFFCURVE",
"283 88 CURVE SMOOTH",
"272 88 OFFCURVE",
"260 77 OFFCURVE",
"237 77 CURVE SMOOTH",
"223 77 OFFCURVE",
"208 79 OFFCURVE",
"197 86 CURVE",
"197 87 LINE",
"207 97 OFFCURVE",
"217 114 OFFCURVE",
"219 131 CURVE SMOOTH",
"242 264 LINE",
"419 270 OFFCURVE",
"551 399 OFFCURVE",
"551 536 CURVE SMOOTH",
"551 642 OFFCURVE",
"459 704 OFFCURVE",
"322 704 CURVE SMOOTH",
"172 704 OFFCURVE",
"78 627 OFFCURVE",
"47 553 CURVE SMOOTH",
"43 544 OFFCURVE",
"42 538 OFFCURVE",
"42 533 CURVE SMOOTH",
"42 526 OFFCURVE",
"43 521 OFFCURVE",
"52 521 CURVE SMOOTH",
"63 521 OFFCURVE",
"69 529 OFFCURVE",
"87 546 CURVE SMOOTH",
"139 595 OFFCURVE",
"208 627 OFFCURVE",
"296 627 CURVE SMOOTH",
"396 627 OFFCURVE",
"445 587 OFFCURVE",
"445 500 CURVE SMOOTH",
"445 405 OFFCURVE",
"386 340 OFFCURVE",
"290 340 CURVE SMOOTH",
"273 340 OFFCURVE",
"262 341 OFFCURVE",
"252 343 CURVE",
"277 496 LINE SMOOTH",
"286 563 OFFCURVE",
"300 563 OFFCURVE",
"300 578 CURVE SMOOTH",
"300 584 OFFCURVE",
"296 588 OFFCURVE",
"284 588 CURVE SMOOTH",
"237 588 OFFCURVE",
"179 543 OFFCURVE",
"172 503 CURVE SMOOTH",
"119 176 LINE SMOOTH",
"108 100 OFFCURVE",
"98 88 OFFCURVE",
"73 64 CURVE SMOOTH",
"58 50 OFFCURVE",
"42 32 OFFCURVE",
"42 12 CURVE SMOOTH",
"42 2 OFFCURVE",
"45 0 OFFCURVE",
"48 0 CURVE SMOOTH"
);
}
);
};
layerId = "56450C88-1299-454A-B666-E6F9AF06B23F";
paths = (
{
closed = 1;
nodes = (
"58 0 OFFCURVE",
"78 16 OFFCURVE",
"112 16 CURVE SMOOTH",
"144 16 OFFCURVE",
"174 0 OFFCURVE",
"201 0 CURVE SMOOTH",
"222 0 OFFCURVE",
"247 10 OFFCURVE",
"279 52 CURVE SMOOTH",
"286 62 OFFCURVE",
"291 69 OFFCURVE",
"291 79 CURVE SMOOTH",
"291 86 OFFCURVE",
"289 88 OFFCURVE",
"283 88 CURVE SMOOTH",
"272 88 OFFCURVE",
"260 77 OFFCURVE",
"237 77 CURVE SMOOTH",
"223 77 OFFCURVE",
"208 79 OFFCURVE",
"197 86 CURVE",
"197 87 LINE",
"207 97 OFFCURVE",
"217 114 OFFCURVE",
"219 131 CURVE SMOOTH",
"242 264 LINE",
"419 270 OFFCURVE",
"551 399 OFFCURVE",
"551 536 CURVE SMOOTH",
"551 642 OFFCURVE",
"459 704 OFFCURVE",
"322 704 CURVE SMOOTH",
"172 704 OFFCURVE",
"78 627 OFFCURVE",
"47 553 CURVE SMOOTH",
"43 544 OFFCURVE",
"42 538 OFFCURVE",
"42 533 CURVE SMOOTH",
"42 526 OFFCURVE",
"43 521 OFFCURVE",
"52 521 CURVE SMOOTH",
"63 521 OFFCURVE",
"69 529 OFFCURVE",
"87 546 CURVE SMOOTH",
"139 595 OFFCURVE",
"208 627 OFFCURVE",
"296 627 CURVE SMOOTH",
"396 627 OFFCURVE",
"445 587 OFFCURVE",
"445 500 CURVE SMOOTH",
"445 405 OFFCURVE",
"386 340 OFFCURVE",
"290 340 CURVE SMOOTH",
"273 340 OFFCURVE",
"262 341 OFFCURVE",
"252 343 CURVE",
"277 496 LINE SMOOTH",
"286 563 OFFCURVE",
"300 563 OFFCURVE",
"300 578 CURVE SMOOTH",
"300 584 OFFCURVE",
"296 588 OFFCURVE",
"284 588 CURVE SMOOTH",
"237 588 OFFCURVE",
"179 543 OFFCURVE",
"172 503 CURVE SMOOTH",
"119 176 LINE SMOOTH",
"108 100 OFFCURVE",
"98 88 OFFCURVE",
"73 64 CURVE SMOOTH",
"58 50 OFFCURVE",
"42 32 OFFCURVE",
"42 12 CURVE SMOOTH",
"42 2 OFFCURVE",
"45 0 OFFCURVE",
"48 0 CURVE SMOOTH"
);
}
);
width = 565;
},
{
anchors = (
{
name = bottom;
position = "{140, 0}";
},
{
name = top;
position = "{316, 694}";
}
);
background = {
anchors = (
{
name = bottom;
position = "{140, 0}";
},
{
name = top;
position = "{316, 694}";
}
);
paths = (
{
closed = 1;
nodes = (
"68 0 OFFCURVE",
"86 17 OFFCURVE",
"110 17 CURVE SMOOTH",
"135 17 OFFCURVE",
"165 0 OFFCURVE",
"185 0 CURVE SMOOTH",
"192 0 OFFCURVE",
"210 2 OFFCURVE",
"246 41 CURVE SMOOTH",
"257 52 OFFCURVE",
"258 57 OFFCURVE",
"258 62 CURVE SMOOTH",
"258 67 OFFCURVE",
"255 69 OFFCURVE",
"252 69 CURVE SMOOTH",
"242 69 OFFCURVE",
"232 58 OFFCURVE",
"211 58 CURVE SMOOTH",
"198 58 OFFCURVE",
"191 62 OFFCURVE",
"176 67 CURVE",
"176 68 LINE",
"185 78 OFFCURVE",
"192 93 OFFCURVE",
"195 110 CURVE SMOOTH",
"224 284 LINE",
"371 295 OFFCURVE",
"525 408 OFFCURVE",
"525 544 CURVE SMOOTH",
"525 646 OFFCURVE",
"440 704 OFFCURVE",
"316 704 CURVE SMOOTH",
"174 704 OFFCURVE",
"71 631 OFFCURVE",
"53 559 CURVE SMOOTH",
"52 553 OFFCURVE",
"52 551 OFFCURVE",
"52 548 CURVE SMOOTH",
"52 544 OFFCURVE",
"53 541 OFFCURVE",
"58 541 CURVE SMOOTH",
"66 541 OFFCURVE",
"72 548 OFFCURVE",
"83 562 CURVE SMOOTH",
"135 621 OFFCURVE",
"205 650 OFFCURVE",
"284 650 CURVE SMOOTH",
"387 650 OFFCURVE",
"446 603 OFFCURVE",
"446 511 CURVE SMOOTH",
"446 414 OFFCURVE",
"379 340 OFFCURVE",
"281 340 CURVE SMOOTH",
"267 340 OFFCURVE",
"246 341 OFFCURVE",
"237 343 CURVE",
"267 534 LINE SMOOTH",
"274 583 OFFCURVE",
"291 588 OFFCURVE",
"291 598 CURVE SMOOTH",
"291 601 OFFCURVE",
"286 603 OFFCURVE",
"280 603 CURVE SMOOTH",
"249 603 OFFCURVE",
"197 562 OFFCURVE",
"191 528 CURVE SMOOTH",
"130 172 LINE SMOOTH",
"115 84 OFFCURVE",
"117 88 OFFCURVE",
"77 51 CURVE SMOOTH",
"62 36 OFFCURVE",
"55 25 OFFCURVE",
"55 10 CURVE SMOOTH",
"55 4 OFFCURVE",
"56 0 OFFCURVE",
"60 0 CURVE SMOOTH"
);
}
);
};
layerId = "0B1DFD06-3317-40CA-B510-4969A0718C16";
paths = (
{
closed = 1;
nodes = (
"68 0 OFFCURVE",
"86 17 OFFCURVE",
"110 17 CURVE SMOOTH",
"135 17 OFFCURVE",
"165 0 OFFCURVE",
"185 0 CURVE SMOOTH",
"192 0 OFFCURVE",
"210 2 OFFCURVE",
"246 41 CURVE SMOOTH",
"257 52 OFFCURVE",
"258 57 OFFCURVE",
"258 62 CURVE SMOOTH",
"258 67 OFFCURVE",
"255 69 OFFCURVE",
"252 69 CURVE SMOOTH",
"242 69 OFFCURVE",
"232 58 OFFCURVE",
"211 58 CURVE SMOOTH",
"198 58 OFFCURVE",
"191 62 OFFCURVE",
"176 67 CURVE",
"176 68 LINE",
"185 78 OFFCURVE",
"192 93 OFFCURVE",
"195 110 CURVE SMOOTH",
"224 284 LINE",
"371 295 OFFCURVE",
"525 408 OFFCURVE",
"525 544 CURVE SMOOTH",
"525 646 OFFCURVE",
"440 704 OFFCURVE",
"316 704 CURVE SMOOTH",
"174 704 OFFCURVE",
"71 631 OFFCURVE",
"53 559 CURVE SMOOTH",
"52 553 OFFCURVE",
"52 551 OFFCURVE",
"52 548 CURVE SMOOTH",
"52 544 OFFCURVE",
"53 541 OFFCURVE",
"58 541 CURVE SMOOTH",
"66 541 OFFCURVE",
"72 548 OFFCURVE",
"83 562 CURVE SMOOTH",
"135 621 OFFCURVE",
"205 650 OFFCURVE",
"284 650 CURVE SMOOTH",
"387 650 OFFCURVE",
"446 603 OFFCURVE",
"446 511 CURVE SMOOTH",
"446 414 OFFCURVE",
"379 340 OFFCURVE",
"281 340 CURVE SMOOTH",
"267 340 OFFCURVE",
"246 341 OFFCURVE",
"237 343 CURVE",
"267 534 LINE SMOOTH",
"274 583 OFFCURVE",
"291 588 OFFCURVE",
"291 598 CURVE SMOOTH",
"291 601 OFFCURVE",
"286 603 OFFCURVE",
"280 603 CURVE SMOOTH",
"249 603 OFFCURVE",
"197 562 OFFCURVE",
"191 528 CURVE SMOOTH",
"130 172 LINE SMOOTH",
"115 84 OFFCURVE",
"117 88 OFFCURVE",
"77 51 CURVE SMOOTH",
"62 36 OFFCURVE",
"55 25 OFFCURVE",
"55 10 CURVE SMOOTH",
"55 4 OFFCURVE",
"56 0 OFFCURVE",
"60 0 CURVE SMOOTH"
);
}
);
width = 549;
}
);
leftKerningGroup = P;
note = P;
rightKerningGroup = P;
unicode = 0050;
},
{
glyphname = Q;
layers = (
{
anchors = (
{
name = bottom;
position = "{202, -82}";
},
{
name = top;
position = "{405, 694}";
}
);
background = {
anchors = (
{
name = bottom;
position = "{202, -82}";
},
{
name = top;
position = "{405, 694}";
}
);
components = (
{
name = O;
transform = "{1, 0, 0, 1, -20, 0}";
}
);
paths = (
{
closed = 1;
nodes = (
"667 -265 OFFCURVE",
"724 -153 OFFCURVE",
"724 -109 CURVE SMOOTH",
"725 -102 OFFCURVE",
"722 -95 OFFCURVE",
"714 -95 CURVE SMOOTH",
"704 -95 OFFCURVE",
"701 -104 OFFCURVE",
"692 -118 CURVE SMOOTH",
"665 -159 OFFCURVE",
"622 -186 OFFCURVE",
"564 -186 CURVE SMOOTH",
"484 -186 OFFCURVE",
"420 -134 OFFCURVE",
"324 27 CURVE SMOOTH",
"311 47 LINE",
"210 37 LINE",
"227 5 LINE SMOOTH",
"331 -181 OFFCURVE",
"424 -265 OFFCURVE",
"538 -265 CURVE SMOOTH"
);
}
);
};
components = (
{
name = O;
transform = "{1, 0, 0, 1, -20, 0}";
}
);
layerId = "56450C88-1299-454A-B666-E6F9AF06B23F";
paths = (
{
closed = 1;
nodes = (
"667 -265 OFFCURVE",
"724 -153 OFFCURVE",
"724 -109 CURVE SMOOTH",
"725 -102 OFFCURVE",
"722 -95 OFFCURVE",
"714 -95 CURVE SMOOTH",
"704 -95 OFFCURVE",
"701 -104 OFFCURVE",
"692 -118 CURVE SMOOTH",
"665 -159 OFFCURVE",
"622 -186 OFFCURVE",
"564 -186 CURVE SMOOTH",
"484 -186 OFFCURVE",
"420 -134 OFFCURVE",
"324 27 CURVE SMOOTH",
"311 47 LINE",
"210 37 LINE",
"227 5 LINE SMOOTH",
"331 -181 OFFCURVE",
"424 -265 OFFCURVE",
"538 -265 CURVE SMOOTH"
);
}
);
width = 613;
},
{
anchors = (
{
name = bottom;
position = "{226, -92}";
},
{
name = top;
position = "{419, 694}";
}
);
background = {
anchors = (
{
name = bottom;
position = "{226, -92}";
},
{
name = top;
position = "{419, 694}";
}
);
components = (
{
name = O;
}
);
paths = (
{
closed = 1;
nodes = (
"634 -265 OFFCURVE",
"709 -192 OFFCURVE",
"711 -125 CURVE SMOOTH",
"711 -117 OFFCURVE",
"708 -115 OFFCURVE",
"704 -115 CURVE SMOOTH",
"699 -115 OFFCURVE",
"697 -122 OFFCURVE",
"689 -133 CURVE SMOOTH",
"660 -181 OFFCURVE",
"616 -206 OFFCURVE",
"564 -206 CURVE SMOOTH",
"480 -206 OFFCURVE",
"410 -140 OFFCURVE",
"312 12 CURVE SMOOTH",
"304 27 LINE",
"232 19 LINE",
"243 0 LINE SMOOTH",
"340 -166 OFFCURVE",
"430 -265 OFFCURVE",
"541 -265 CURVE SMOOTH"
);
}
);
};
components = (
{
name = O;
}
);
layerId = "0B1DFD06-3317-40CA-B510-4969A0718C16";
paths = (
{
closed = 1;
nodes = (
"634 -265 OFFCURVE",
"709 -192 OFFCURVE",
"711 -125 CURVE SMOOTH",
"711 -117 OFFCURVE",
"708 -115 OFFCURVE",
"704 -115 CURVE SMOOTH",
"699 -115 OFFCURVE",
"697 -122 OFFCURVE",
"689 -133 CURVE SMOOTH",
"660 -181 OFFCURVE",
"616 -206 OFFCURVE",
"564 -206 CURVE SMOOTH",
"480 -206 OFFCURVE",
"410 -140 OFFCURVE",
"312 12 CURVE SMOOTH",
"304 27 LINE",
"232 19 LINE",
"243 0 LINE SMOOTH",
"340 -166 OFFCURVE",
"430 -265 OFFCURVE",
"541 -265 CURVE SMOOTH"
);
}
);
width = 609;
}
);
leftKerningGroup = O;
note = Q;
rightKerningGroup = O;
unicode = 0051;
},
{
glyphname = R;
layers = (
{
anchors = (
{
name = bottom;
position = "{296, 0}";
},
{
name = top;
position = "{341, 694}";
}
);
background = {
anchors = (
{
name = bottom;
position = "{296, 0}";
},
{
name = top;
position = "{341, 694}";
}
);
paths = (
{
closed = 1;
nodes = (
"564 -10 OFFCURVE",
"613 47 OFFCURVE",
"613 107 CURVE SMOOTH",
"613 123 OFFCURVE",
"608 131 OFFCURVE",
"600 131 CURVE SMOOTH",
"593 131 OFFCURVE",
"589 124 OFFCURVE",
"583 115 CURVE SMOOTH",
"569 95 OFFCURVE",
"553 87 OFFCURVE",
"533 87 CURVE SMOOTH",
"516 87 OFFCURVE",
"502 93 OFFCURVE",
"484 136 CURVE SMOOTH",
"432 262 LINE SMOOTH",
"419 293 OFFCURVE",
"397 315 OFFCURVE",
"368 329 CURVE",
"475 366 OFFCURVE",
"541 439 OFFCURVE",
"541 534 CURVE SMOOTH",
"541 642 OFFCURVE",
"459 704 OFFCURVE",
"324 704 CURVE SMOOTH",
"174 704 OFFCURVE",
"78 629 OFFCURVE",
"47 553 CURVE SMOOTH",
"43 544 OFFCURVE",
"42 538 OFFCURVE",
"42 533 CURVE SMOOTH",
"42 526 OFFCURVE",
"43 521 OFFCURVE",
"52 521 CURVE SMOOTH",
"63 521 OFFCURVE",
"69 529 OFFCURVE",
"87 546 CURVE SMOOTH",
"140 596 OFFCURVE",
"211 627 OFFCURVE",
"295 627 CURVE SMOOTH",
"399 627 OFFCURVE",
"435 583 OFFCURVE",
"435 500 CURVE SMOOTH",
"435 405 OFFCURVE",
"387 350 OFFCURVE",
"291 350 CURVE SMOOTH",
"274 350 OFFCURVE",
"263 351 OFFCURVE",
"253 353 CURVE",
"275 496 LINE SMOOTH",
"285 557 OFFCURVE",
"301 562 OFFCURVE",
"301 578 CURVE SMOOTH",
"301 584 OFFCURVE",
"299 588 OFFCURVE",
"285 588 CURVE SMOOTH",
"238 588 OFFCURVE",
"181 543 OFFCURVE",
"174 503 CURVE SMOOTH",
"122 176 LINE SMOOTH",
"109 102 OFFCURVE",
"99 89 OFFCURVE",
"74 64 CURVE SMOOTH",
"58 50 OFFCURVE",
"42 32 OFFCURVE",
"42 12 CURVE SMOOTH",
"42 2 OFFCURVE",
"46 0 OFFCURVE",
"50 0 CURVE SMOOTH",
"60 0 OFFCURVE",
"78 16 OFFCURVE",
"112 16 CURVE SMOOTH",
"144 16 OFFCURVE",
"175 0 OFFCURVE",
"201 0 CURVE SMOOTH",
"218 0 OFFCURVE",
"247 7 OFFCURVE",
"273 52 CURVE SMOOTH",
"279 62 OFFCURVE",
"283 71 OFFCURVE",
"283 79 CURVE SMOOTH",
"283 86 OFFCURVE",
"280 88 OFFCURVE",
"275 88 CURVE SMOOTH",
"264 88 OFFCURVE",
"254 77 OFFCURVE",
"232 77 CURVE SMOOTH",
"221 77 OFFCURVE",
"208 79 OFFCURVE",
"196 86 CURVE",
"196 87 LINE",
"207 97 OFFCURVE",
"216 114 OFFCURVE",
"219 131 CURVE SMOOTH",
"247 304 LINE",
"305 304 OFFCURVE",
"309 285 OFFCURVE",
"329 238 CURVE SMOOTH",
"392 87 LINE SMOOTH",
"419 21 OFFCURVE",
"454 -10 OFFCURVE",
"500 -10 CURVE SMOOTH"
);
}
);
};
layerId = "56450C88-1299-454A-B666-E6F9AF06B23F";
paths = (
{
closed = 1;
nodes = (
"564 -10 OFFCURVE",
"613 47 OFFCURVE",
"613 107 CURVE SMOOTH",
"613 123 OFFCURVE",
"608 131 OFFCURVE",
"600 131 CURVE SMOOTH",
"593 131 OFFCURVE",
"589 124 OFFCURVE",
"583 115 CURVE SMOOTH",
"569 95 OFFCURVE",
"553 87 OFFCURVE",
"533 87 CURVE SMOOTH",
"516 87 OFFCURVE",
"502 93 OFFCURVE",
"484 136 CURVE SMOOTH",
"432 262 LINE SMOOTH",
"419 293 OFFCURVE",
"397 315 OFFCURVE",
"368 329 CURVE",
"475 366 OFFCURVE",
"541 439 OFFCURVE",
"541 534 CURVE SMOOTH",
"541 642 OFFCURVE",
"459 704 OFFCURVE",
"324 704 CURVE SMOOTH",
"174 704 OFFCURVE",
"78 629 OFFCURVE",
"47 553 CURVE SMOOTH",
"43 544 OFFCURVE",
"42 538 OFFCURVE",
"42 533 CURVE SMOOTH",
"42 526 OFFCURVE",
"43 521 OFFCURVE",
"52 521 CURVE SMOOTH",
"63 521 OFFCURVE",
"69 529 OFFCURVE",
"87 546 CURVE SMOOTH",
"140 596 OFFCURVE",
"211 627 OFFCURVE",
"295 627 CURVE SMOOTH",
"399 627 OFFCURVE",
"435 583 OFFCURVE",
"435 500 CURVE SMOOTH",
"435 405 OFFCURVE",
"387 350 OFFCURVE",
"291 350 CURVE SMOOTH",
"274 350 OFFCURVE",
"263 351 OFFCURVE",
"253 353 CURVE",
"275 496 LINE SMOOTH",
"285 557 OFFCURVE",
"301 562 OFFCURVE",
"301 578 CURVE SMOOTH",
"301 584 OFFCURVE",
"299 588 OFFCURVE",
"285 588 CURVE SMOOTH",
"238 588 OFFCURVE",
"181 543 OFFCURVE",
"174 503 CURVE SMOOTH",
"122 176 LINE SMOOTH",
"109 102 OFFCURVE",
"99 89 OFFCURVE",
"74 64 CURVE SMOOTH",
"58 50 OFFCURVE",
"42 32 OFFCURVE",
"42 12 CURVE SMOOTH",
"42 2 OFFCURVE",
"46 0 OFFCURVE",
"50 0 CURVE SMOOTH",
"60 0 OFFCURVE",
"78 16 OFFCURVE",
"112 16 CURVE SMOOTH",
"144 16 OFFCURVE",
"175 0 OFFCURVE",
"201 0 CURVE SMOOTH",
"218 0 OFFCURVE",
"247 7 OFFCURVE",
"273 52 CURVE SMOOTH",
"279 62 OFFCURVE",
"283 71 OFFCURVE",
"283 79 CURVE SMOOTH",
"283 86 OFFCURVE",
"280 88 OFFCURVE",
"275 88 CURVE SMOOTH",
"264 88 OFFCURVE",
"254 77 OFFCURVE",
"232 77 CURVE SMOOTH",
"221 77 OFFCURVE",
"208 79 OFFCURVE",
"196 86 CURVE",
"196 87 LINE",
"207 97 OFFCURVE",
"216 114 OFFCURVE",
"219 131 CURVE SMOOTH",
"247 304 LINE",
"305 304 OFFCURVE",
"309 285 OFFCURVE",
"329 238 CURVE SMOOTH",
"392 87 LINE SMOOTH",
"419 21 OFFCURVE",
"454 -10 OFFCURVE",
"500 -10 CURVE SMOOTH"
);
}
);
width = 610;
},
{
anchors = (
{
name = bottom;
position = "{285, 0}";
},
{
name = top;
position = "{332, 694}";
}
);
background = {
anchors = (
{
name = bottom;
position = "{285, 0}";
},
{
name = top;
position = "{332, 694}";
}
);
paths = (
{
closed = 1;
nodes = (
"534 -10 OFFCURVE",
"587 42 OFFCURVE",
"587 92 CURVE SMOOTH",
"587 99 OFFCURVE",
"585 105 OFFCURVE",
"579 105 CURVE SMOOTH",
"573 105 OFFCURVE",
"572 100 OFFCURVE",
"562 88 CURVE SMOOTH",
"548 72 OFFCURVE",
"532 62 OFFCURVE",
"515 62 CURVE SMOOTH",
"490 62 OFFCURVE",
"479 81 OFFCURVE",
"467 110 CURVE SMOOTH",
"417 246 LINE SMOOTH",
"404 280 OFFCURVE",
"381 312 OFFCURVE",
"339 325 CURVE",
"439 355 OFFCURVE",
"515 438 OFFCURVE",
"515 543 CURVE SMOOTH",
"515 646 OFFCURVE",
"441 704 OFFCURVE",
"317 704 CURVE SMOOTH",
"171 704 OFFCURVE",
"71 626 OFFCURVE",
"53 559 CURVE SMOOTH",
"52 554 OFFCURVE",
"52 551 OFFCURVE",
"52 548 CURVE SMOOTH",
"52 544 OFFCURVE",
"53 541 OFFCURVE",
"58 541 CURVE SMOOTH",
"66 541 OFFCURVE",
"72 548 OFFCURVE",
"84 562 CURVE SMOOTH",
"140 624 OFFCURVE",
"207 650 OFFCURVE",
"285 650 CURVE SMOOTH",
"388 650 OFFCURVE",
"438 603 OFFCURVE",
"438 511 CURVE SMOOTH",
"438 414 OFFCURVE",
"382 350 OFFCURVE",
"286 350 CURVE SMOOTH",
"269 350 OFFCURVE",
"248 351 OFFCURVE",
"239 353 CURVE",
"267 534 LINE SMOOTH",
"275 585 OFFCURVE",
"291 588 OFFCURVE",
"291 598 CURVE SMOOTH",
"291 601 OFFCURVE",
"288 603 OFFCURVE",
"281 603 CURVE SMOOTH",
"250 603 OFFCURVE",
"198 562 OFFCURVE",
"192 528 CURVE SMOOTH",
"131 172 LINE SMOOTH",
"117 84 OFFCURVE",
"118 88 OFFCURVE",
"78 51 CURVE SMOOTH",
"63 36 OFFCURVE",
"56 25 OFFCURVE",
"56 10 CURVE SMOOTH",
"56 4 OFFCURVE",
"57 0 OFFCURVE",
"61 0 CURVE SMOOTH",
"68 0 OFFCURVE",
"87 17 OFFCURVE",
"112 17 CURVE SMOOTH",
"136 17 OFFCURVE",
"166 0 OFFCURVE",
"186 0 CURVE SMOOTH",
"193 0 OFFCURVE",
"211 2 OFFCURVE",
"247 41 CURVE SMOOTH",
"257 52 OFFCURVE",
"259 57 OFFCURVE",
"259 63 CURVE SMOOTH",
"259 67 OFFCURVE",
"257 69 OFFCURVE",
"253 69 CURVE SMOOTH",
"244 69 OFFCURVE",
"233 58 OFFCURVE",
"212 58 CURVE SMOOTH",
"200 58 OFFCURVE",
"192 62 OFFCURVE",
"177 67 CURVE",
"177 68 LINE",
"186 78 OFFCURVE",
"193 93 OFFCURVE",
"196 110 CURVE SMOOTH",
"228 304 LINE",
"310 304 OFFCURVE",
"325 283 OFFCURVE",
"345 228 CURVE SMOOTH",
"405 66 LINE SMOOTH",
"424 15 OFFCURVE",
"449 -10 OFFCURVE",
"484 -10 CURVE SMOOTH"
);
}
);
};
layerId = "0B1DFD06-3317-40CA-B510-4969A0718C16";
paths = (
{
closed = 1;
nodes = (
"534 -10 OFFCURVE",
"587 42 OFFCURVE",
"587 92 CURVE SMOOTH",
"587 99 OFFCURVE",
"585 105 OFFCURVE",
"579 105 CURVE SMOOTH",
"573 105 OFFCURVE",
"572 100 OFFCURVE",
"562 88 CURVE SMOOTH",
"548 72 OFFCURVE",
"532 62 OFFCURVE",
"515 62 CURVE SMOOTH",
"490 62 OFFCURVE",
"479 81 OFFCURVE",
"467 110 CURVE SMOOTH",
"417 246 LINE SMOOTH",
"404 280 OFFCURVE",
"381 312 OFFCURVE",
"339 325 CURVE",
"439 355 OFFCURVE",
"515 438 OFFCURVE",
"515 543 CURVE SMOOTH",
"515 646 OFFCURVE",
"441 704 OFFCURVE",
"317 704 CURVE SMOOTH",
"171 704 OFFCURVE",
"71 626 OFFCURVE",
"53 559 CURVE SMOOTH",
"52 554 OFFCURVE",
"52 551 OFFCURVE",
"52 548 CURVE SMOOTH",
"52 544 OFFCURVE",
"53 541 OFFCURVE",
"58 541 CURVE SMOOTH",
"66 541 OFFCURVE",
"72 548 OFFCURVE",
"84 562 CURVE SMOOTH",
"140 624 OFFCURVE",
"207 650 OFFCURVE",
"285 650 CURVE SMOOTH",
"388 650 OFFCURVE",
"438 603 OFFCURVE",
"438 511 CURVE SMOOTH",
"438 414 OFFCURVE",
"382 350 OFFCURVE",
"286 350 CURVE SMOOTH",
"269 350 OFFCURVE",
"248 351 OFFCURVE",
"239 353 CURVE",
"267 534 LINE SMOOTH",
"275 585 OFFCURVE",
"291 588 OFFCURVE",
"291 598 CURVE SMOOTH",
"291 601 OFFCURVE",
"288 603 OFFCURVE",
"281 603 CURVE SMOOTH",
"250 603 OFFCURVE",
"198 562 OFFCURVE",
"192 528 CURVE SMOOTH",
"131 172 LINE SMOOTH",
"117 84 OFFCURVE",
"118 88 OFFCURVE",
"78 51 CURVE SMOOTH",
"63 36 OFFCURVE",
"56 25 OFFCURVE",
"56 10 CURVE SMOOTH",
"56 4 OFFCURVE",
"57 0 OFFCURVE",
"61 0 CURVE SMOOTH",
"68 0 OFFCURVE",
"87 17 OFFCURVE",
"112 17 CURVE SMOOTH",
"136 17 OFFCURVE",
"166 0 OFFCURVE",
"186 0 CURVE SMOOTH",
"193 0 OFFCURVE",
"211 2 OFFCURVE",
"247 41 CURVE SMOOTH",
"257 52 OFFCURVE",
"259 57 OFFCURVE",
"259 63 CURVE SMOOTH",
"259 67 OFFCURVE",
"257 69 OFFCURVE",
"253 69 CURVE SMOOTH",
"244 69 OFFCURVE",
"233 58 OFFCURVE",
"212 58 CURVE SMOOTH",
"200 58 OFFCURVE",
"192 62 OFFCURVE",
"177 67 CURVE",
"177 68 LINE",
"186 78 OFFCURVE",
"193 93 OFFCURVE",
"196 110 CURVE SMOOTH",
"228 304 LINE",
"310 304 OFFCURVE",
"325 283 OFFCURVE",
"345 228 CURVE SMOOTH",
"405 66 LINE SMOOTH",
"424 15 OFFCURVE",
"449 -10 OFFCURVE",
"484 -10 CURVE SMOOTH"
);
}
);
width = 594;
}
);
leftKerningGroup = R;
note = R;
rightKerningGroup = R;
unicode = 0052;
},
{
glyphname = S;
layers = (
{
anchors = (
{
name = bottom;
position = "{156, 0}";
},
{
name = top;
position = "{332, 694}";
}
);
background = {
anchors = (
{
name = bottom;
position = "{156, 0}";
},
{
name = top;
position = "{332, 694}";
}
);
paths = (
{
closed = 1;
nodes = (
"289 -10 OFFCURVE",
"404 97 OFFCURVE",
"404 219 CURVE SMOOTH",
"404 274 OFFCURVE",
"382 319 OFFCURVE",
"337 370 CURVE SMOOTH",
"241 480 LINE SMOOTH",
"218 506 OFFCURVE",
"208 528 OFFCURVE",
"208 556 CURVE SMOOTH",
"208 603 OFFCURVE",
"241 637 OFFCURVE",
"303 637 CURVE SMOOTH",
"365 637 OFFCURVE",
"381 603 OFFCURVE",
"384 558 CURVE SMOOTH",
"386 542 OFFCURVE",
"388 522 OFFCURVE",
"405 522 CURVE SMOOTH",
"418 522 OFFCURVE",
"429 531 OFFCURVE",
"443 553 CURVE SMOOTH",
"453 569 OFFCURVE",
"461 593 OFFCURVE",
"461 616 CURVE SMOOTH",
"461 672 OFFCURVE",
"414 704 OFFCURVE",
"335 704 CURVE SMOOTH",
"187 704 OFFCURVE",
"112 596 OFFCURVE",
"112 496 CURVE SMOOTH",
"112 459 OFFCURVE",
"122 432 OFFCURVE",
"151 397 CURVE SMOOTH",
"246 285 LINE SMOOTH",
"285 237 OFFCURVE",
"301 211 OFFCURVE",
"301 166 CURVE SMOOTH",
"301 103 OFFCURVE",
"265 62 OFFCURVE",
"192 62 CURVE SMOOTH",
"112 62 OFFCURVE",
"102 114 OFFCURVE",
"89 219 CURVE SMOOTH",
"88 226 OFFCURVE",
"87 231 OFFCURVE",
"82 231 CURVE SMOOTH",
"60 231 OFFCURVE",
"1 159 OFFCURVE",
"2 105 CURVE SMOOTH",
"5 57 OFFCURVE",
"57 -10 OFFCURVE",
"160 -10 CURVE SMOOTH"
);
}
);
};
layerId = "56450C88-1299-454A-B666-E6F9AF06B23F";
paths = (
{
closed = 1;
nodes = (
"289 -10 OFFCURVE",
"404 97 OFFCURVE",
"404 219 CURVE SMOOTH",
"404 274 OFFCURVE",
"382 319 OFFCURVE",
"337 370 CURVE SMOOTH",
"241 480 LINE SMOOTH",
"218 506 OFFCURVE",
"208 528 OFFCURVE",
"208 556 CURVE SMOOTH",
"208 603 OFFCURVE",
"241 637 OFFCURVE",
"303 637 CURVE SMOOTH",
"365 637 OFFCURVE",
"381 603 OFFCURVE",
"384 558 CURVE SMOOTH",
"386 542 OFFCURVE",
"388 522 OFFCURVE",
"405 522 CURVE SMOOTH",
"418 522 OFFCURVE",
"429 531 OFFCURVE",
"443 553 CURVE SMOOTH",
"453 569 OFFCURVE",
"461 593 OFFCURVE",
"461 616 CURVE SMOOTH",
"461 672 OFFCURVE",
"414 704 OFFCURVE",
"335 704 CURVE SMOOTH",
"187 704 OFFCURVE",
"112 596 OFFCURVE",
"112 496 CURVE SMOOTH",
"112 459 OFFCURVE",
"122 432 OFFCURVE",
"151 397 CURVE SMOOTH",
"246 285 LINE SMOOTH",
"285 237 OFFCURVE",
"301 211 OFFCURVE",
"301 166 CURVE SMOOTH",
"301 103 OFFCURVE",
"265 62 OFFCURVE",
"192 62 CURVE SMOOTH",
"112 62 OFFCURVE",
"102 114 OFFCURVE",
"89 219 CURVE SMOOTH",
"88 226 OFFCURVE",
"87 231 OFFCURVE",
"82 231 CURVE SMOOTH",
"60 231 OFFCURVE",
"1 159 OFFCURVE",
"2 105 CURVE SMOOTH",
"5 57 OFFCURVE",
"57 -10 OFFCURVE",
"160 -10 CURVE SMOOTH"
);
}
);
width = 471;
},
{
anchors = (
{
name = bottom;
position = "{153, 0}";
},
{
name = top;
position = "{325, 694}";
}
);
background = {
anchors = (
{
name = bottom;
position = "{153, 0}";
},
{
name = top;
position = "{325, 694}";
}
);
paths = (
{
closed = 1;
nodes = (
"270 -10 OFFCURVE",
"382 91 OFFCURVE",
"382 210 CURVE SMOOTH",
"382 263 OFFCURVE",
"360 316 OFFCURVE",
"320 363 CURVE SMOOTH",
"224 474 LINE SMOOTH",
"200 503 OFFCURVE",
"187 532 OFFCURVE",
"187 563 CURVE SMOOTH",
"187 621 OFFCURVE",
"226 658 OFFCURVE",
"293 658 CURVE SMOOTH",
"372 658 OFFCURVE",
"378 601 OFFCURVE",
"379 578 CURVE SMOOTH",
"381 557 OFFCURVE",
"382 543 OFFCURVE",
"394 543 CURVE SMOOTH",
"402 543 OFFCURVE",
"408 548 OFFCURVE",
"414 558 CURVE SMOOTH",
"429 582 OFFCURVE",
"438 604 OFFCURVE",
"438 625 CURVE SMOOTH",
"438 678 OFFCURVE",
"388 704 OFFCURVE",
"324 704 CURVE SMOOTH",
"196 704 OFFCURVE",
"123 605 OFFCURVE",
"123 503 CURVE SMOOTH",
"123 456 OFFCURVE",
"138 429 OFFCURVE",
"157 405 CURVE SMOOTH",
"255 289 LINE SMOOTH",
"294 242 OFFCURVE",
"311 208 OFFCURVE",
"311 161 CURVE SMOOTH",
"311 84 OFFCURVE",
"265 40 OFFCURVE",
"197 40 CURVE SMOOTH",
"97 40 OFFCURVE",
"81 141 OFFCURVE",
"77 186 CURVE SMOOTH",
"77 188 OFFCURVE",
"76 192 OFFCURVE",
"72 192 CURVE SMOOTH",
"57 192 OFFCURVE",
"11 146 OFFCURVE",
"12 102 CURVE SMOOTH",
"15 62 OFFCURVE",
"58 -10 OFFCURVE",
"156 -10 CURVE SMOOTH"
);
}
);
};
layerId = "0B1DFD06-3317-40CA-B510-4969A0718C16";
paths = (
{
closed = 1;
nodes = (
"270 -10 OFFCURVE",
"382 91 OFFCURVE",
"382 210 CURVE SMOOTH",
"382 263 OFFCURVE",
"360 316 OFFCURVE",
"320 363 CURVE SMOOTH",
"224 474 LINE SMOOTH",
"200 503 OFFCURVE",
"187 532 OFFCURVE",
"187 563 CURVE SMOOTH",
"187 621 OFFCURVE",
"226 658 OFFCURVE",
"293 658 CURVE SMOOTH",
"372 658 OFFCURVE",
"378 601 OFFCURVE",
"379 578 CURVE SMOOTH",
"381 557 OFFCURVE",
"382 543 OFFCURVE",
"394 543 CURVE SMOOTH",
"402 543 OFFCURVE",
"408 548 OFFCURVE",
"414 558 CURVE SMOOTH",
"429 582 OFFCURVE",
"438 604 OFFCURVE",
"438 625 CURVE SMOOTH",
"438 678 OFFCURVE",
"388 704 OFFCURVE",
"324 704 CURVE SMOOTH",
"196 704 OFFCURVE",
"123 605 OFFCURVE",
"123 503 CURVE SMOOTH",
"123 456 OFFCURVE",
"138 429 OFFCURVE",
"157 405 CURVE SMOOTH",
"255 289 LINE SMOOTH",
"294 242 OFFCURVE",
"311 208 OFFCURVE",
"311 161 CURVE SMOOTH",
"311 84 OFFCURVE",
"265 40 OFFCURVE",
"197 40 CURVE SMOOTH",
"97 40 OFFCURVE",
"81 141 OFFCURVE",
"77 186 CURVE SMOOTH",
"77 188 OFFCURVE",
"76 192 OFFCURVE",
"72 192 CURVE SMOOTH",
"57 192 OFFCURVE",
"11 146 OFFCURVE",
"12 102 CURVE SMOOTH",
"15 62 OFFCURVE",
"58 -10 OFFCURVE",
"156 -10 CURVE SMOOTH"
);
}
);
width = 458;
}
);
leftKerningGroup = S;
note = S;
rightKerningGroup = S;
unicode = 0053;
},
{
glyphname = T;
layers = (
{
anchors = (
{
name = bottom;
position = "{262, 0}";
},
{
name = center;
position = "{326, 347}";
},
{
name = top;
position = "{381, 694}";
}
);
background = {
anchors = (
{
name = bottom;
position = "{262, 0}";
},
{
name = center;
position = "{326, 347}";
},
{
name = top;
position = "{381, 694}";
}
);
paths = (
{
closed = 1;
nodes = (
"180 0 OFFCURVE",
"198 16 OFFCURVE",
"232 16 CURVE SMOOTH",
"265 16 OFFCURVE",
"295 0 OFFCURVE",
"321 0 CURVE SMOOTH",
"343 0 OFFCURVE",
"367 10 OFFCURVE",
"401 52 CURVE SMOOTH",
"407 62 OFFCURVE",
"412 69 OFFCURVE",
"412 79 CURVE SMOOTH",
"412 86 OFFCURVE",
"410 88 OFFCURVE",
"404 88 CURVE SMOOTH",
"393 88 OFFCURVE",
"381 77 OFFCURVE",
"357 77 CURVE SMOOTH",
"345 77 OFFCURVE",
"330 79 OFFCURVE",
"317 86 CURVE",
"317 87 LINE",
"329 97 OFFCURVE",
"337 114 OFFCURVE",
"341 131 CURVE SMOOTH",
"424 604 LINE",
"453 604 LINE SMOOTH",
"606 604 OFFCURVE",
"708 680 OFFCURVE",
"708 806 CURVE SMOOTH",
"708 843 OFFCURVE",
"699 882 OFFCURVE",
"680 905 CURVE SMOOTH",
"678 906 OFFCURVE",
"676 909 OFFCURVE",
"672 909 CURVE SMOOTH",
"655 909 OFFCURVE",
"605 837 OFFCURVE",
"605 820 CURVE SMOOTH",
"605 807 OFFCURVE",
"625 791 OFFCURVE",
"625 754 CURVE SMOOTH",
"625 707 OFFCURVE",
"594 694 OFFCURVE",
"515 694 CURVE SMOOTH",
"301 694 LINE SMOOTH",
"149 694 OFFCURVE",
"47 596 OFFCURVE",
"47 469 CURVE SMOOTH",
"47 438 OFFCURVE",
"53 408 OFFCURVE",
"63 387 CURVE SMOOTH",
"66 383 OFFCURVE",
"68 379 OFFCURVE",
"73 379 CURVE SMOOTH",
"95 379 OFFCURVE",
"149 444 OFFCURVE",
"149 469 CURVE SMOOTH",
"149 481 OFFCURVE",
"133 495 OFFCURVE",
"133 534 CURVE SMOOTH",
"133 587 OFFCURVE",
"162 604 OFFCURVE",
"257 604 CURVE SMOOTH",
"317 604 LINE",
"242 176 LINE SMOOTH",
"229 105 OFFCURVE",
"223 92 OFFCURVE",
"195 64 CURVE SMOOTH",
"179 50 OFFCURVE",
"162 32 OFFCURVE",
"162 12 CURVE SMOOTH",
"162 2 OFFCURVE",
"166 0 OFFCURVE",
"170 0 CURVE SMOOTH"
);
}
);
};
layerId = "56450C88-1299-454A-B666-E6F9AF06B23F";
paths = (
{
closed = 1;
nodes = (
"180 0 OFFCURVE",
"198 16 OFFCURVE",
"232 16 CURVE SMOOTH",
"265 16 OFFCURVE",
"295 0 OFFCURVE",
"321 0 CURVE SMOOTH",
"343 0 OFFCURVE",
"367 10 OFFCURVE",
"401 52 CURVE SMOOTH",
"407 62 OFFCURVE",
"412 69 OFFCURVE",
"412 79 CURVE SMOOTH",
"412 86 OFFCURVE",
"410 88 OFFCURVE",
"404 88 CURVE SMOOTH",
"393 88 OFFCURVE",
"381 77 OFFCURVE",
"357 77 CURVE SMOOTH",
"345 77 OFFCURVE",
"330 79 OFFCURVE",
"317 86 CURVE",
"317 87 LINE",
"329 97 OFFCURVE",
"337 114 OFFCURVE",
"341 131 CURVE SMOOTH",
"424 604 LINE",
"453 604 LINE SMOOTH",
"606 604 OFFCURVE",
"708 680 OFFCURVE",
"708 806 CURVE SMOOTH",
"708 843 OFFCURVE",
"699 882 OFFCURVE",
"680 905 CURVE SMOOTH",
"678 906 OFFCURVE",
"676 909 OFFCURVE",
"672 909 CURVE SMOOTH",
"655 909 OFFCURVE",
"605 837 OFFCURVE",
"605 820 CURVE SMOOTH",
"605 807 OFFCURVE",
"625 791 OFFCURVE",
"625 754 CURVE SMOOTH",
"625 707 OFFCURVE",
"594 694 OFFCURVE",
"515 694 CURVE SMOOTH",
"301 694 LINE SMOOTH",
"149 694 OFFCURVE",
"47 596 OFFCURVE",
"47 469 CURVE SMOOTH",
"47 438 OFFCURVE",
"53 408 OFFCURVE",
"63 387 CURVE SMOOTH",
"66 383 OFFCURVE",
"68 379 OFFCURVE",
"73 379 CURVE SMOOTH",
"95 379 OFFCURVE",
"149 444 OFFCURVE",
"149 469 CURVE SMOOTH",
"149 481 OFFCURVE",
"133 495 OFFCURVE",
"133 534 CURVE SMOOTH",
"133 587 OFFCURVE",
"162 604 OFFCURVE",
"257 604 CURVE SMOOTH",
"317 604 LINE",
"242 176 LINE SMOOTH",
"229 105 OFFCURVE",
"223 92 OFFCURVE",
"195 64 CURVE SMOOTH",
"179 50 OFFCURVE",
"162 32 OFFCURVE",
"162 12 CURVE SMOOTH",
"162 2 OFFCURVE",
"166 0 OFFCURVE",
"170 0 CURVE SMOOTH"
);
}
);
width = 606;
},
{
anchors = (
{
name = bottom;
position = "{241, 0}";
},
{
name = center;
position = "{300, 347}";
},
{
name = top;
position = "{356, 694}";
}
);
background = {
anchors = (
{
name = bottom;
position = "{241, 0}";
},
{
name = center;
position = "{300, 347}";
},
{
name = top;
position = "{356, 694}";
}
);
paths = (
{
closed = 1;
nodes = (
"167 -1 OFFCURVE",
"191 15 OFFCURVE",
"213 15 CURVE SMOOTH",
"236 15 OFFCURVE",
"267 -1 OFFCURVE",
"289 -1 CURVE SMOOTH",
"306 -1 OFFCURVE",
"325 10 OFFCURVE",
"355 45 CURVE SMOOTH",
"361 52 OFFCURVE",
"363 57 OFFCURVE",
"363 62 CURVE SMOOTH",
"363 66 OFFCURVE",
"361 67 OFFCURVE",
"357 67 CURVE SMOOTH",
"348 67 OFFCURVE",
"337 57 OFFCURVE",
"315 57 CURVE SMOOTH",
"305 57 OFFCURVE",
"290 58 OFFCURVE",
"275 64 CURVE",
"275 66 LINE",
"284 77 OFFCURVE",
"293 88 OFFCURVE",
"296 112 CURVE SMOOTH",
"384 627 LINE",
"415 627 LINE SMOOTH",
"565 627 OFFCURVE",
"660 706 OFFCURVE",
"660 825 CURVE SMOOTH",
"660 851 OFFCURVE",
"655 882 OFFCURVE",
"642 903 CURVE SMOOTH",
"641 905 OFFCURVE",
"639 906 OFFCURVE",
"636 906 CURVE SMOOTH",
"619 906 OFFCURVE",
"583 851 OFFCURVE",
"583 837 CURVE SMOOTH",
"583 827 OFFCURVE",
"601 812 OFFCURVE",
"601 768 CURVE SMOOTH",
"601 717 OFFCURVE",
"577 694 OFFCURVE",
"472 694 CURVE SMOOTH",
"300 694 LINE SMOOTH",
"156 694 OFFCURVE",
"60 615 OFFCURVE",
"57 498 CURVE SMOOTH",
"56 467 OFFCURVE",
"62 434 OFFCURVE",
"73 417 CURVE SMOOTH",
"76 413 OFFCURVE",
"78 413 OFFCURVE",
"79 413 CURVE SMOOTH",
"97 413 OFFCURVE",
"133 467 OFFCURVE",
"133 482 CURVE SMOOTH",
"133 494 OFFCURVE",
"114 508 OFFCURVE",
"114 552 CURVE SMOOTH",
"114 608 OFFCURVE",
"145 627 OFFCURVE",
"243 627 CURVE SMOOTH",
"311 627 LINE",
"231 162 LINE SMOOTH",
"216 83 OFFCURVE",
"205 72 OFFCURVE",
"176 47 CURVE SMOOTH",
"166 38 OFFCURVE",
"151 17 OFFCURVE",
"151 5 CURVE SMOOTH",
"151 1 OFFCURVE",
"154 -1 OFFCURVE",
"156 -1 CURVE SMOOTH"
);
}
);
};
layerId = "0B1DFD06-3317-40CA-B510-4969A0718C16";
paths = (
{
closed = 1;
nodes = (
"167 -1 OFFCURVE",
"191 15 OFFCURVE",
"213 15 CURVE SMOOTH",
"236 15 OFFCURVE",
"267 -1 OFFCURVE",
"289 -1 CURVE SMOOTH",
"306 -1 OFFCURVE",
"325 10 OFFCURVE",
"355 45 CURVE SMOOTH",
"361 52 OFFCURVE",
"363 57 OFFCURVE",
"363 62 CURVE SMOOTH",
"363 66 OFFCURVE",
"361 67 OFFCURVE",
"357 67 CURVE SMOOTH",
"348 67 OFFCURVE",
"337 57 OFFCURVE",
"315 57 CURVE SMOOTH",
"305 57 OFFCURVE",
"290 58 OFFCURVE",
"275 64 CURVE",
"275 66 LINE",
"284 77 OFFCURVE",
"293 88 OFFCURVE",
"296 112 CURVE SMOOTH",
"384 627 LINE",
"415 627 LINE SMOOTH",
"565 627 OFFCURVE",
"660 706 OFFCURVE",
"660 825 CURVE SMOOTH",
"660 851 OFFCURVE",
"655 882 OFFCURVE",
"642 903 CURVE SMOOTH",
"641 905 OFFCURVE",
"639 906 OFFCURVE",
"636 906 CURVE SMOOTH",
"619 906 OFFCURVE",
"583 851 OFFCURVE",
"583 837 CURVE SMOOTH",
"583 827 OFFCURVE",
"601 812 OFFCURVE",
"601 768 CURVE SMOOTH",
"601 717 OFFCURVE",
"577 694 OFFCURVE",
"472 694 CURVE SMOOTH",
"300 694 LINE SMOOTH",
"156 694 OFFCURVE",
"60 615 OFFCURVE",
"57 498 CURVE SMOOTH",
"56 467 OFFCURVE",
"62 434 OFFCURVE",
"73 417 CURVE SMOOTH",
"76 413 OFFCURVE",
"78 413 OFFCURVE",
"79 413 CURVE SMOOTH",
"97 413 OFFCURVE",
"133 467 OFFCURVE",
"133 482 CURVE SMOOTH",
"133 494 OFFCURVE",
"114 508 OFFCURVE",
"114 552 CURVE SMOOTH",
"114 608 OFFCURVE",
"145 627 OFFCURVE",
"243 627 CURVE SMOOTH",
"311 627 LINE",
"231 162 LINE SMOOTH",
"216 83 OFFCURVE",
"205 72 OFFCURVE",
"176 47 CURVE SMOOTH",
"166 38 OFFCURVE",
"151 17 OFFCURVE",
"151 5 CURVE SMOOTH",
"151 1 OFFCURVE",
"154 -1 OFFCURVE",
"156 -1 CURVE SMOOTH"
);
}
);
width = 568;
}
);
leftKerningGroup = T;
note = T;
rightKerningGroup = T;
unicode = 0054;
},
{
glyphname = U;
layers = (
{
anchors = (
{
name = bottom;
position = "{295, 0}";
},
{
name = ogonek;
position = "{376, 6}";
},
{
name = top;
position = "{434, 694}";
},
{
name = topright;
position = "{636, 593}";
}
);
background = {
anchors = (
{
name = bottom;
position = "{295, 0}";
},
{
name = ogonek;
position = "{376, 6}";
},
{
name = top;
position = "{434, 694}";
},
{
name = topright;
position = "{636, 593}";
}
);
paths = (
{
closed = 1;
nodes = (
"444 -10 OFFCURVE",
"564 112 OFFCURVE",
"594 306 CURVE SMOOTH",
"642 613 LINE SMOOTH",
"650 667 OFFCURVE",
"668 677 OFFCURVE",
"668 693 CURVE SMOOTH",
"668 702 OFFCURVE",
"663 704 OFFCURVE",
"651 704 CURVE SMOOTH",
"604 704 OFFCURVE",
"544 661 OFFCURVE",
"538 621 CURVE SMOOTH",
"490 321 LINE SMOOTH",
"461 141 OFFCURVE",
"415 72 OFFCURVE",
"326 72 CURVE SMOOTH",
"241 72 OFFCURVE",
"210 134 OFFCURVE",
"232 267 CURVE SMOOTH",
"279 538 LINE SMOOTH",
"295 631 OFFCURVE",
"310 677 OFFCURVE",
"320 694 CURVE",
"300 694 OFFCURVE",
"285 689 OFFCURVE",
"252 689 CURVE SMOOTH",
"218 689 OFFCURVE",
"192 694 OFFCURVE",
"166 694 CURVE SMOOTH",
"91 694 OFFCURVE",
"32 652 OFFCURVE",
"20 589 CURVE SMOOTH",
"19 583 OFFCURVE",
"17 577 OFFCURVE",
"17 568 CURVE SMOOTH",
"17 562 OFFCURVE",
"20 558 OFFCURVE",
"25 558 CURVE SMOOTH",
"32 558 OFFCURVE",
"37 564 OFFCURVE",
"45 574 CURVE SMOOTH",
"67 604 OFFCURVE",
"93 611 OFFCURVE",
"129 611 CURVE SMOOTH",
"161 611 OFFCURVE",
"172 605 OFFCURVE",
"185 605 CURVE",
"125 270 LINE SMOOTH",
"95 105 OFFCURVE",
"162 -10 OFFCURVE",
"301 -10 CURVE SMOOTH"
);
}
);
};
layerId = "56450C88-1299-454A-B666-E6F9AF06B23F";
paths = (
{
closed = 1;
nodes = (
"444 -10 OFFCURVE",
"564 112 OFFCURVE",
"594 306 CURVE SMOOTH",
"642 613 LINE SMOOTH",
"650 667 OFFCURVE",
"668 677 OFFCURVE",
"668 693 CURVE SMOOTH",
"668 702 OFFCURVE",
"663 704 OFFCURVE",
"651 704 CURVE SMOOTH",
"604 704 OFFCURVE",
"544 661 OFFCURVE",
"538 621 CURVE SMOOTH",
"490 321 LINE SMOOTH",
"461 141 OFFCURVE",
"415 72 OFFCURVE",
"326 72 CURVE SMOOTH",
"241 72 OFFCURVE",
"210 134 OFFCURVE",
"232 267 CURVE SMOOTH",
"279 538 LINE SMOOTH",
"295 631 OFFCURVE",
"310 677 OFFCURVE",
"320 694 CURVE",
"300 694 OFFCURVE",
"285 689 OFFCURVE",
"252 689 CURVE SMOOTH",
"218 689 OFFCURVE",
"192 694 OFFCURVE",
"166 694 CURVE SMOOTH",
"91 694 OFFCURVE",
"32 652 OFFCURVE",
"20 589 CURVE SMOOTH",
"19 583 OFFCURVE",
"17 577 OFFCURVE",
"17 568 CURVE SMOOTH",
"17 562 OFFCURVE",
"20 558 OFFCURVE",
"25 558 CURVE SMOOTH",
"32 558 OFFCURVE",
"37 564 OFFCURVE",
"45 574 CURVE SMOOTH",
"67 604 OFFCURVE",
"93 611 OFFCURVE",
"129 611 CURVE SMOOTH",
"161 611 OFFCURVE",
"172 605 OFFCURVE",
"185 605 CURVE",
"125 270 LINE SMOOTH",
"95 105 OFFCURVE",
"162 -10 OFFCURVE",
"301 -10 CURVE SMOOTH"
);
}
);
width = 671;
},
{
anchors = (
{
name = bottom;
position = "{278, 0}";
},
{
name = ogonek;
position = "{350, 10}";
},
{
name = top;
position = "{425, 694}";
},
{
name = topright;
position = "{609, 603}";
}
);
background = {
anchors = (
{
name = bottom;
position = "{278, 0}";
},
{
name = ogonek;
position = "{350, 10}";
},
{
name = top;
position = "{425, 694}";
},
{
name = topright;
position = "{609, 603}";
}
);
paths = (
{
closed = 1;
nodes = (
"414 -10 OFFCURVE",
"528 113 OFFCURVE",
"559 299 CURVE SMOOTH",
"614 634 LINE SMOOTH",
"622 680 OFFCURVE",
"639 692 OFFCURVE",
"639 699 CURVE SMOOTH",
"639 703 OFFCURVE",
"634 704 OFFCURVE",
"626 704 CURVE SMOOTH",
"591 704 OFFCURVE",
"541 663 OFFCURVE",
"536 631 CURVE SMOOTH",
"485 311 LINE SMOOTH",
"455 125 OFFCURVE",
"389 32 OFFCURVE",
"290 32 CURVE SMOOTH",
"191 32 OFFCURVE",
"181 126 OFFCURVE",
"202 247 CURVE SMOOTH",
"250 523 LINE SMOOTH",
"263 598 OFFCURVE",
"279 673 OFFCURVE",
"293 694 CURVE",
"275 694 OFFCURVE",
"260 691 OFFCURVE",
"231 691 CURVE SMOOTH",
"201 691 OFFCURVE",
"175 694 OFFCURVE",
"153 694 CURVE SMOOTH",
"89 694 OFFCURVE",
"41 662 OFFCURVE",
"30 606 CURVE SMOOTH",
"29 601 OFFCURVE",
"27 595 OFFCURVE",
"27 589 CURVE SMOOTH",
"27 584 OFFCURVE",
"29 580 OFFCURVE",
"32 580 CURVE SMOOTH",
"37 580 OFFCURVE",
"41 588 OFFCURVE",
"48 598 CURVE SMOOTH",
"66 624 OFFCURVE",
"93 635 OFFCURVE",
"131 635 CURVE SMOOTH",
"155 635 OFFCURVE",
"180 630 OFFCURVE",
"195 630 CURVE",
"126 248 LINE SMOOTH",
"97 87 OFFCURVE",
"146 -10 OFFCURVE",
"272 -10 CURVE SMOOTH"
);
}
);
};
layerId = "0B1DFD06-3317-40CA-B510-4969A0718C16";
paths = (
{
closed = 1;
nodes = (
"414 -10 OFFCURVE",
"528 113 OFFCURVE",
"559 299 CURVE SMOOTH",
"614 634 LINE SMOOTH",
"622 680 OFFCURVE",
"639 692 OFFCURVE",
"639 699 CURVE SMOOTH",
"639 703 OFFCURVE",
"634 704 OFFCURVE",
"626 704 CURVE SMOOTH",
"591 704 OFFCURVE",
"541 663 OFFCURVE",
"536 631 CURVE SMOOTH",
"485 311 LINE SMOOTH",
"455 125 OFFCURVE",
"389 32 OFFCURVE",
"290 32 CURVE SMOOTH",
"191 32 OFFCURVE",
"181 126 OFFCURVE",
"202 247 CURVE SMOOTH",
"250 523 LINE SMOOTH",
"263 598 OFFCURVE",
"279 673 OFFCURVE",
"293 694 CURVE",
"275 694 OFFCURVE",
"260 691 OFFCURVE",
"231 691 CURVE SMOOTH",
"201 691 OFFCURVE",
"175 694 OFFCURVE",
"153 694 CURVE SMOOTH",
"89 694 OFFCURVE",
"41 662 OFFCURVE",
"30 606 CURVE SMOOTH",
"29 601 OFFCURVE",
"27 595 OFFCURVE",
"27 589 CURVE SMOOTH",
"27 584 OFFCURVE",
"29 580 OFFCURVE",
"32 580 CURVE SMOOTH",
"37 580 OFFCURVE",
"41 588 OFFCURVE",
"48 598 CURVE SMOOTH",
"66 624 OFFCURVE",
"93 635 OFFCURVE",
"131 635 CURVE SMOOTH",
"155 635 OFFCURVE",
"180 630 OFFCURVE",
"195 630 CURVE",
"126 248 LINE SMOOTH",
"97 87 OFFCURVE",
"146 -10 OFFCURVE",
"272 -10 CURVE SMOOTH"
);
}
);
width = 651;
}
);
leftKerningGroup = U;
note = U;
rightKerningGroup = U;
unicode = 0055;
},
{
glyphname = V;
layers = (
{
anchors = (
{
name = bottom;
position = "{289, 0}";
},
{
name = top;
position = "{393, 694}";
}
);
background = {
anchors = (
{
name = bottom;
position = "{289, 0}";
},
{
name = top;
position = "{393, 694}";
}
);
paths = (
{
closed = 1;
nodes = (
"289 -10 OFFCURVE",
"327 14 OFFCURVE",
"348 42 CURVE SMOOTH",
"358 57 OFFCURVE",
"373 83 OFFCURVE",
"376 87 CURVE SMOOTH",
"521 334 LINE SMOOTH",
"588 449 OFFCURVE",
"621 546 OFFCURVE",
"622 599 CURVE SMOOTH",
"625 652 OFFCURVE",
"595 704 OFFCURVE",
"567 704 CURVE SMOOTH",
"531 704 OFFCURVE",
"467 608 OFFCURVE",
"477 598 CURVE SMOOTH",
"491 587 OFFCURVE",
"507 570 OFFCURVE",
"507 523 CURVE SMOOTH",
"507 434 OFFCURVE",
"449 306 OFFCURVE",
"343 131 CURVE",
"343 262 OFFCURVE",
"319 491 OFFCURVE",
"284 603 CURVE SMOOTH",
"260 681 OFFCURVE",
"229 704 OFFCURVE",
"190 704 CURVE SMOOTH",
"105 704 OFFCURVE",
"35 594 OFFCURVE",
"35 508 CURVE SMOOTH",
"35 500 OFFCURVE",
"36 492 OFFCURVE",
"43 492 CURVE SMOOTH",
"51 492 OFFCURVE",
"55 497 OFFCURVE",
"61 511 CURVE SMOOTH",
"82 558 OFFCURVE",
"102 595 OFFCURVE",
"135 595 CURVE SMOOTH",
"159 595 OFFCURVE",
"167 574 OFFCURVE",
"174 557 CURVE SMOOTH",
"211 444 OFFCURVE",
"243 140 OFFCURVE",
"246 22 CURVE SMOOTH",
"247 1 OFFCURVE",
"244 -10 OFFCURVE",
"262 -10 CURVE SMOOTH"
);
}
);
};
layerId = "56450C88-1299-454A-B666-E6F9AF06B23F";
paths = (
{
closed = 1;
nodes = (
"289 -10 OFFCURVE",
"327 14 OFFCURVE",
"348 42 CURVE SMOOTH",
"358 57 OFFCURVE",
"373 83 OFFCURVE",
"376 87 CURVE SMOOTH",
"521 334 LINE SMOOTH",
"588 449 OFFCURVE",
"621 546 OFFCURVE",
"622 599 CURVE SMOOTH",
"625 652 OFFCURVE",
"595 704 OFFCURVE",
"567 704 CURVE SMOOTH",
"531 704 OFFCURVE",
"467 608 OFFCURVE",
"477 598 CURVE SMOOTH",
"491 587 OFFCURVE",
"507 570 OFFCURVE",
"507 523 CURVE SMOOTH",
"507 434 OFFCURVE",
"449 306 OFFCURVE",
"343 131 CURVE",
"343 262 OFFCURVE",
"319 491 OFFCURVE",
"284 603 CURVE SMOOTH",
"260 681 OFFCURVE",
"229 704 OFFCURVE",
"190 704 CURVE SMOOTH",
"105 704 OFFCURVE",
"35 594 OFFCURVE",
"35 508 CURVE SMOOTH",
"35 500 OFFCURVE",
"36 492 OFFCURVE",
"43 492 CURVE SMOOTH",
"51 492 OFFCURVE",
"55 497 OFFCURVE",
"61 511 CURVE SMOOTH",
"82 558 OFFCURVE",
"102 595 OFFCURVE",
"135 595 CURVE SMOOTH",
"159 595 OFFCURVE",
"167 574 OFFCURVE",
"174 557 CURVE SMOOTH",
"211 444 OFFCURVE",
"243 140 OFFCURVE",
"246 22 CURVE SMOOTH",
"247 1 OFFCURVE",
"244 -10 OFFCURVE",
"262 -10 CURVE SMOOTH"
);
}
);
width = 618;
},
{
anchors = (
{
name = bottom;
position = "{291, 0}";
},
{
name = top;
position = "{381, 694}";
}
);
background = {
anchors = (
{
name = bottom;
position = "{291, 0}";
},
{
name = top;
position = "{381, 694}";
}
);
paths = (
{
closed = 1;
nodes = (
"284 -10 OFFCURVE",
"310 7 OFFCURVE",
"322 22 CURVE SMOOTH",
"334 37 OFFCURVE",
"352 72 OFFCURVE",
"355 77 CURVE SMOOTH",
"501 330 LINE SMOOTH",
"572 453 OFFCURVE",
"598 567 OFFCURVE",
"598 620 CURVE SMOOTH",
"598 668 OFFCURVE",
"577 704 OFFCURVE",
"562 704 CURVE SMOOTH",
"539 704 OFFCURVE",
"482 626 OFFCURVE",
"489 619 CURVE SMOOTH",
"505 601 OFFCURVE",
"513 589 OFFCURVE",
"513 553 CURVE SMOOTH",
"513 449 OFFCURVE",
"443 296 OFFCURVE",
"324 108 CURVE",
"315 298 OFFCURVE",
"288 515 OFFCURVE",
"259 610 CURVE SMOOTH",
"234 696 OFFCURVE",
"202 704 OFFCURVE",
"180 704 CURVE SMOOTH",
"104 704 OFFCURVE",
"45 605 OFFCURVE",
"45 529 CURVE SMOOTH",
"45 517 OFFCURVE",
"47 512 OFFCURVE",
"52 512 CURVE SMOOTH",
"58 512 OFFCURVE",
"62 518 OFFCURVE",
"67 533 CURVE SMOOTH",
"89 599 OFFCURVE",
"115 619 OFFCURVE",
"140 619 CURVE SMOOTH",
"165 619 OFFCURVE",
"174 599 OFFCURVE",
"182 569 CURVE SMOOTH",
"222 441 OFFCURVE",
"239 231 OFFCURVE",
"250 17 CURVE SMOOTH",
"252 -6 OFFCURVE",
"254 -10 OFFCURVE",
"264 -10 CURVE SMOOTH"
);
}
);
};
layerId = "0B1DFD06-3317-40CA-B510-4969A0718C16";
paths = (
{
closed = 1;
nodes = (
"284 -10 OFFCURVE",
"310 7 OFFCURVE",
"322 22 CURVE SMOOTH",
"334 37 OFFCURVE",
"352 72 OFFCURVE",
"355 77 CURVE SMOOTH",
"501 330 LINE SMOOTH",
"572 453 OFFCURVE",
"598 567 OFFCURVE",
"598 620 CURVE SMOOTH",
"598 668 OFFCURVE",
"577 704 OFFCURVE",
"562 704 CURVE SMOOTH",
"539 704 OFFCURVE",
"482 626 OFFCURVE",
"489 619 CURVE SMOOTH",
"505 601 OFFCURVE",
"513 589 OFFCURVE",
"513 553 CURVE SMOOTH",
"513 449 OFFCURVE",
"443 296 OFFCURVE",
"324 108 CURVE",
"315 298 OFFCURVE",
"288 515 OFFCURVE",
"259 610 CURVE SMOOTH",
"234 696 OFFCURVE",
"202 704 OFFCURVE",
"180 704 CURVE SMOOTH",
"104 704 OFFCURVE",
"45 605 OFFCURVE",
"45 529 CURVE SMOOTH",
"45 517 OFFCURVE",
"47 512 OFFCURVE",
"52 512 CURVE SMOOTH",
"58 512 OFFCURVE",
"62 518 OFFCURVE",
"67 533 CURVE SMOOTH",
"89 599 OFFCURVE",
"115 619 OFFCURVE",
"140 619 CURVE SMOOTH",
"165 619 OFFCURVE",
"174 599 OFFCURVE",
"182 569 CURVE SMOOTH",
"222 441 OFFCURVE",
"239 231 OFFCURVE",
"250 17 CURVE SMOOTH",
"252 -6 OFFCURVE",
"254 -10 OFFCURVE",
"264 -10 CURVE SMOOTH"
);
}
);
width = 603;
}
);
note = V;
unicode = 0056;
},
{
glyphname = W;
layers = (
{
anchors = (
{
name = bottom;
position = "{337, 0}";
},
{
name = top;
position = "{486, 694}";
}
);
background = {
anchors = (
{
name = bottom;
position = "{337, 0}";
},
{
name = top;
position = "{486, 694}";
}
);
paths = (
{
closed = 1;
nodes = (
"177 -10 OFFCURVE",
"187 -2 OFFCURVE",
"196 4 CURVE SMOOTH",
"222 24 OFFCURVE",
"246 53 OFFCURVE",
"263 89 CURVE SMOOTH",
"285 136 OFFCURVE",
"348 303 OFFCURVE",
"423 430 CURVE",
"424 430 LINE",
"428 334 OFFCURVE",
"450 151 OFFCURVE",
"450 43 CURVE SMOOTH",
"450 5 OFFCURVE",
"448 -10 OFFCURVE",
"463 -10 CURVE SMOOTH",
"472 -10 OFFCURVE",
"484 -1 OFFCURVE",
"497 11 CURVE SMOOTH",
"525 37 OFFCURVE",
"543 68 OFFCURVE",
"554 92 CURVE SMOOTH",
"673 345 OFFCURVE",
"719 441 OFFCURVE",
"734 474 CURVE SMOOTH",
"760 533 OFFCURVE",
"779 577 OFFCURVE",
"779 611 CURVE SMOOTH",
"779 661 OFFCURVE",
"742 704 OFFCURVE",
"723 704 CURVE SMOOTH",
"696 704 OFFCURVE",
"629 613 OFFCURVE",
"636 598 CURVE SMOOTH",
"639 591 OFFCURVE",
"667 583 OFFCURVE",
"667 533 CURVE SMOOTH",
"667 489 OFFCURVE",
"645 430 OFFCURVE",
"613 361 CURVE SMOOTH",
"583 295 OFFCURVE",
"547 224 OFFCURVE",
"542 211 CURVE",
"541 211 LINE",
"539 223 OFFCURVE",
"538 238 OFFCURVE",
"532 335 CURVE SMOOTH",
"527 414 OFFCURVE",
"522 512 OFFCURVE",
"522 563 CURVE SMOOTH",
"522 609 OFFCURVE",
"527 640 OFFCURVE",
"532 671 CURVE SMOOTH",
"537 699 OFFCURVE",
"458 652 OFFCURVE",
"427 590 CURVE SMOOTH",
"418 572 OFFCURVE",
"308 342 OFFCURVE",
"281 288 CURVE",
"280 288 LINE",
"283 315 OFFCURVE",
"284 368 OFFCURVE",
"284 419 CURVE SMOOTH",
"284 609 OFFCURVE",
"269 704 OFFCURVE",
"190 704 CURVE SMOOTH",
"105 704 OFFCURVE",
"35 596 OFFCURVE",
"35 511 CURVE SMOOTH",
"35 500 OFFCURVE",
"36 494 OFFCURVE",
"43 494 CURVE SMOOTH",
"51 494 OFFCURVE",
"55 498 OFFCURVE",
"61 513 CURVE SMOOTH",
"79 556 OFFCURVE",
"100 598 OFFCURVE",
"139 598 CURVE SMOOTH",
"176 598 OFFCURVE",
"182 558 OFFCURVE",
"182 415 CURVE SMOOTH",
"182 273 OFFCURVE",
"176 216 OFFCURVE",
"153 4 CURVE SMOOTH",
"151 -5 OFFCURVE",
"151 -10 OFFCURVE",
"164 -10 CURVE SMOOTH"
);
}
);
};
layerId = "56450C88-1299-454A-B666-E6F9AF06B23F";
paths = (
{
closed = 1;
nodes = (
"177 -10 OFFCURVE",
"187 -2 OFFCURVE",
"196 4 CURVE SMOOTH",
"222 24 OFFCURVE",
"246 53 OFFCURVE",
"263 89 CURVE SMOOTH",
"285 136 OFFCURVE",
"348 303 OFFCURVE",
"423 430 CURVE",
"424 430 LINE",
"428 334 OFFCURVE",
"450 151 OFFCURVE",
"450 43 CURVE SMOOTH",
"450 5 OFFCURVE",
"448 -10 OFFCURVE",
"463 -10 CURVE SMOOTH",
"472 -10 OFFCURVE",
"484 -1 OFFCURVE",
"497 11 CURVE SMOOTH",
"525 37 OFFCURVE",
"543 68 OFFCURVE",
"554 92 CURVE SMOOTH",
"673 345 OFFCURVE",
"719 441 OFFCURVE",
"734 474 CURVE SMOOTH",
"760 533 OFFCURVE",
"779 577 OFFCURVE",
"779 611 CURVE SMOOTH",
"779 661 OFFCURVE",
"742 704 OFFCURVE",
"723 704 CURVE SMOOTH",
"696 704 OFFCURVE",
"629 613 OFFCURVE",
"636 598 CURVE SMOOTH",
"639 591 OFFCURVE",
"667 583 OFFCURVE",
"667 533 CURVE SMOOTH",
"667 489 OFFCURVE",
"645 430 OFFCURVE",
"613 361 CURVE SMOOTH",
"583 295 OFFCURVE",
"547 224 OFFCURVE",
"542 211 CURVE",
"541 211 LINE",
"539 223 OFFCURVE",
"538 238 OFFCURVE",
"532 335 CURVE SMOOTH",
"527 414 OFFCURVE",
"522 512 OFFCURVE",
"522 563 CURVE SMOOTH",
"522 609 OFFCURVE",
"527 640 OFFCURVE",
"532 671 CURVE SMOOTH",
"537 699 OFFCURVE",
"458 652 OFFCURVE",
"427 590 CURVE SMOOTH",
"418 572 OFFCURVE",
"308 342 OFFCURVE",
"281 288 CURVE",
"280 288 LINE",
"283 315 OFFCURVE",
"284 368 OFFCURVE",
"284 419 CURVE SMOOTH",
"284 609 OFFCURVE",
"269 704 OFFCURVE",
"190 704 CURVE SMOOTH",
"105 704 OFFCURVE",
"35 596 OFFCURVE",
"35 511 CURVE SMOOTH",
"35 500 OFFCURVE",
"36 494 OFFCURVE",
"43 494 CURVE SMOOTH",
"51 494 OFFCURVE",
"55 498 OFFCURVE",
"61 513 CURVE SMOOTH",
"79 556 OFFCURVE",
"100 598 OFFCURVE",
"139 598 CURVE SMOOTH",
"176 598 OFFCURVE",
"182 558 OFFCURVE",
"182 415 CURVE SMOOTH",
"182 273 OFFCURVE",
"176 216 OFFCURVE",
"153 4 CURVE SMOOTH",
"151 -5 OFFCURVE",
"151 -10 OFFCURVE",
"164 -10 CURVE SMOOTH"
);
}
);
width = 769;
},
{
anchors = (
{
name = bottom;
position = "{339, 0}";
},
{
name = top;
position = "{507, 694}";
}
);
background = {
anchors = (
{
name = bottom;
position = "{339, 0}";
},
{
name = top;
position = "{507, 694}";
}
);
paths = (
{
closed = 1;
nodes = (
"169 -10 OFFCURVE",
"182 -7 OFFCURVE",
"195 6 CURVE SMOOTH",
"215 27 OFFCURVE",
"234 67 OFFCURVE",
"242 82 CURVE",
"263 135 OFFCURVE",
"381 394 OFFCURVE",
"432 495 CURVE",
"433 495 LINE",
"435 394 OFFCURVE",
"459 146 OFFCURVE",
"459 29 CURVE SMOOTH",
"459 5 OFFCURVE",
"458 -10 OFFCURVE",
"464 -10 CURVE SMOOTH",
"467 -10 OFFCURVE",
"480 -5 OFFCURVE",
"489 7 CURVE SMOOTH",
"500 22 OFFCURVE",
"528 73 OFFCURVE",
"533 84 CURVE",
"542 104 OFFCURVE",
"689 434 OFFCURVE",
"718 500 CURVE SMOOTH",
"743 557 OFFCURVE",
"758 598 OFFCURVE",
"758 631 CURVE SMOOTH",
"758 670 OFFCURVE",
"738 704 OFFCURVE",
"722 704 CURVE SMOOTH",
"698 704 OFFCURVE",
"646 622 OFFCURVE",
"651 619 CURVE SMOOTH",
"662 608 OFFCURVE",
"677 594 OFFCURVE",
"677 553 CURVE SMOOTH",
"677 494 OFFCURVE",
"645 433 OFFCURVE",
"616 366 CURVE SMOOTH",
"538 190 OFFCURVE",
"606 345 OFFCURVE",
"525 157 CURVE",
"523 157 LINE",
"522 188 OFFCURVE",
"511 325 OFFCURVE",
"510 345 CURVE SMOOTH",
"505 407 OFFCURVE",
"502 525 OFFCURVE",
"502 584 CURVE SMOOTH",
"502 619 OFFCURVE",
"502 626 OFFCURVE",
"507 656 CURVE SMOOTH",
"511 676 OFFCURVE",
"454 636 OFFCURVE",
"435 598 CURVE SMOOTH",
"428 580 OFFCURVE",
"296 301 OFFCURVE",
"257 216 CURVE",
"255 216 LINE",
"262 322 OFFCURVE",
"264 374 OFFCURVE",
"264 432 CURVE SMOOTH",
"264 572 OFFCURVE",
"252 704 OFFCURVE",
"174 704 CURVE SMOOTH",
"108 704 OFFCURVE",
"45 614 OFFCURVE",
"45 536 CURVE SMOOTH",
"45 523 OFFCURVE",
"47 518 OFFCURVE",
"52 518 CURVE SMOOTH",
"60 518 OFFCURVE",
"62 523 OFFCURVE",
"67 538 CURVE SMOOTH",
"86 590 OFFCURVE",
"109 619 OFFCURVE",
"139 619 CURVE SMOOTH",
"180 619 OFFCURVE",
"190 563 OFFCURVE",
"190 415 CURVE SMOOTH",
"190 263 OFFCURVE",
"179 146 OFFCURVE",
"162 0 CURVE SMOOTH",
"161 -7 OFFCURVE",
"164 -10 OFFCURVE",
"166 -10 CURVE SMOOTH"
);
}
);
};
layerId = "0B1DFD06-3317-40CA-B510-4969A0718C16";
paths = (
{
closed = 1;
nodes = (
"169 -10 OFFCURVE",
"182 -7 OFFCURVE",
"195 6 CURVE SMOOTH",
"215 27 OFFCURVE",
"234 67 OFFCURVE",
"242 82 CURVE",
"263 135 OFFCURVE",
"381 394 OFFCURVE",
"432 495 CURVE",
"433 495 LINE",
"435 394 OFFCURVE",
"459 146 OFFCURVE",
"459 29 CURVE SMOOTH",
"459 5 OFFCURVE",
"458 -10 OFFCURVE",
"464 -10 CURVE SMOOTH",
"467 -10 OFFCURVE",
"480 -5 OFFCURVE",
"489 7 CURVE SMOOTH",
"500 22 OFFCURVE",
"528 73 OFFCURVE",
"533 84 CURVE",
"542 104 OFFCURVE",
"689 434 OFFCURVE",
"718 500 CURVE SMOOTH",
"743 557 OFFCURVE",
"758 598 OFFCURVE",
"758 631 CURVE SMOOTH",
"758 670 OFFCURVE",
"738 704 OFFCURVE",
"722 704 CURVE SMOOTH",
"698 704 OFFCURVE",
"646 622 OFFCURVE",
"651 619 CURVE SMOOTH",
"662 608 OFFCURVE",
"677 594 OFFCURVE",
"677 553 CURVE SMOOTH",
"677 494 OFFCURVE",
"645 433 OFFCURVE",
"616 366 CURVE SMOOTH",
"538 190 OFFCURVE",
"606 345 OFFCURVE",
"525 157 CURVE",
"523 157 LINE",
"522 188 OFFCURVE",
"511 325 OFFCURVE",
"510 345 CURVE SMOOTH",
"505 407 OFFCURVE",
"502 525 OFFCURVE",
"502 584 CURVE SMOOTH",
"502 619 OFFCURVE",
"502 626 OFFCURVE",
"507 656 CURVE SMOOTH",
"511 676 OFFCURVE",
"454 636 OFFCURVE",
"435 598 CURVE SMOOTH",
"428 580 OFFCURVE",
"296 301 OFFCURVE",
"257 216 CURVE",
"255 216 LINE",
"262 322 OFFCURVE",
"264 374 OFFCURVE",
"264 432 CURVE SMOOTH",
"264 572 OFFCURVE",
"252 704 OFFCURVE",
"174 704 CURVE SMOOTH",
"108 704 OFFCURVE",
"45 614 OFFCURVE",
"45 536 CURVE SMOOTH",
"45 523 OFFCURVE",
"47 518 OFFCURVE",
"52 518 CURVE SMOOTH",
"60 518 OFFCURVE",
"62 523 OFFCURVE",
"67 538 CURVE SMOOTH",
"86 590 OFFCURVE",
"109 619 OFFCURVE",
"139 619 CURVE SMOOTH",
"180 619 OFFCURVE",
"190 563 OFFCURVE",
"190 415 CURVE SMOOTH",
"190 263 OFFCURVE",
"179 146 OFFCURVE",
"162 0 CURVE SMOOTH",
"161 -7 OFFCURVE",
"164 -10 OFFCURVE",
"166 -10 CURVE SMOOTH"
);
}
);
width = 758;
}
);
leftKerningGroup = W;
note = W;
rightKerningGroup = W;
unicode = 0057;
},
{
glyphname = X;
layers = (
{
anchors = (
{
name = bottom;
position = "{262, 0}";
},
{
name = top;
position = "{384, 694}";
}
);
background = {
anchors = (
{
name = bottom;
position = "{262, 0}";
},
{
name = top;
position = "{384, 694}";
}
);
paths = (
{
closed = 1;
nodes = (
"117 -10 OFFCURVE",
"213 74 OFFCURVE",
"290 229 CURVE SMOOTH",
"294 236 LINE",
"308 184 LINE SMOOTH",
"350 27 OFFCURVE",
"379 -10 OFFCURVE",
"425 -10 CURVE SMOOTH",
"503 -10 OFFCURVE",
"573 97 OFFCURVE",
"573 170 CURVE SMOOTH",
"573 182 OFFCURVE",
"570 187 OFFCURVE",
"564 187 CURVE SMOOTH",
"554 187 OFFCURVE",
"551 179 OFFCURVE",
"547 169 CURVE SMOOTH",
"526 120 OFFCURVE",
"498 97 OFFCURVE",
"475 97 CURVE SMOOTH",
"446 97 OFFCURVE",
"434 126 OFFCURVE",
"418 186 CURVE SMOOTH",
"370 366 LINE",
"408 441 OFFCURVE",
"459 526 OFFCURVE",
"495 568 CURVE SMOOTH",
"511 587 OFFCURVE",
"523 594 OFFCURVE",
"541 594 CURVE SMOOTH",
"557 594 OFFCURVE",
"565 588 OFFCURVE",
"579 578 CURVE SMOOTH",
"588 570 OFFCURVE",
"663 649 OFFCURVE",
"663 666 CURVE SMOOTH",
"663 677 OFFCURVE",
"634 704 OFFCURVE",
"585 704 CURVE SMOOTH",
"511 704 OFFCURVE",
"444 641 OFFCURVE",
"367 497 CURVE SMOOTH",
"343 453 LINE",
"300 622 LINE SMOOTH",
"285 682 OFFCURVE",
"255 704 OFFCURVE",
"221 704 CURVE SMOOTH",
"143 704 OFFCURVE",
"86 589 OFFCURVE",
"86 516 CURVE SMOOTH",
"86 502 OFFCURVE",
"88 497 OFFCURVE",
"94 497 CURVE SMOOTH",
"102 497 OFFCURVE",
"107 503 OFFCURVE",
"112 516 CURVE SMOOTH",
"126 554 OFFCURVE",
"144 598 OFFCURVE",
"174 598 CURVE SMOOTH",
"198 598 OFFCURVE",
"205 568 OFFCURVE",
"217 517 CURVE SMOOTH",
"263 335 LINE",
"255 320 LINE SMOOTH",
"180 156 OFFCURVE",
"119 99 OFFCURVE",
"76 99 CURVE SMOOTH",
"57 99 OFFCURVE",
"47 108 OFFCURVE",
"37 117 CURVE SMOOTH",
"25 126 OFFCURVE",
"-42 52 OFFCURVE",
"-42 27 CURVE SMOOTH",
"-42 11 OFFCURVE",
"-12 -10 OFFCURVE",
"31 -10 CURVE SMOOTH"
);
}
);
};
layerId = "56450C88-1299-454A-B666-E6F9AF06B23F";
paths = (
{
closed = 1;
nodes = (
"117 -10 OFFCURVE",
"213 74 OFFCURVE",
"290 229 CURVE SMOOTH",
"294 236 LINE",
"308 184 LINE SMOOTH",
"350 27 OFFCURVE",
"379 -10 OFFCURVE",
"425 -10 CURVE SMOOTH",
"503 -10 OFFCURVE",
"573 97 OFFCURVE",
"573 170 CURVE SMOOTH",
"573 182 OFFCURVE",
"570 187 OFFCURVE",
"564 187 CURVE SMOOTH",
"554 187 OFFCURVE",
"551 179 OFFCURVE",
"547 169 CURVE SMOOTH",
"526 120 OFFCURVE",
"498 97 OFFCURVE",
"475 97 CURVE SMOOTH",
"446 97 OFFCURVE",
"434 126 OFFCURVE",
"418 186 CURVE SMOOTH",
"370 366 LINE",
"408 441 OFFCURVE",
"459 526 OFFCURVE",
"495 568 CURVE SMOOTH",
"511 587 OFFCURVE",
"523 594 OFFCURVE",
"541 594 CURVE SMOOTH",
"557 594 OFFCURVE",
"565 588 OFFCURVE",
"579 578 CURVE SMOOTH",
"588 570 OFFCURVE",
"663 649 OFFCURVE",
"663 666 CURVE SMOOTH",
"663 677 OFFCURVE",
"634 704 OFFCURVE",
"585 704 CURVE SMOOTH",
"511 704 OFFCURVE",
"444 641 OFFCURVE",
"367 497 CURVE SMOOTH",
"343 453 LINE",
"300 622 LINE SMOOTH",
"285 682 OFFCURVE",
"255 704 OFFCURVE",
"221 704 CURVE SMOOTH",
"143 704 OFFCURVE",
"86 589 OFFCURVE",
"86 516 CURVE SMOOTH",
"86 502 OFFCURVE",
"88 497 OFFCURVE",
"94 497 CURVE SMOOTH",
"102 497 OFFCURVE",
"107 503 OFFCURVE",
"112 516 CURVE SMOOTH",
"126 554 OFFCURVE",
"144 598 OFFCURVE",
"174 598 CURVE SMOOTH",
"198 598 OFFCURVE",
"205 568 OFFCURVE",
"217 517 CURVE SMOOTH",
"263 335 LINE",
"255 320 LINE SMOOTH",
"180 156 OFFCURVE",
"119 99 OFFCURVE",
"76 99 CURVE SMOOTH",
"57 99 OFFCURVE",
"47 108 OFFCURVE",
"37 117 CURVE SMOOTH",
"25 126 OFFCURVE",
"-42 52 OFFCURVE",
"-42 27 CURVE SMOOTH",
"-42 11 OFFCURVE",
"-12 -10 OFFCURVE",
"31 -10 CURVE SMOOTH"
);
}
);
width = 639;
},
{
anchors = (
{
name = bottom;
position = "{246, 0}";
},
{
name = top;
position = "{357, 694}";
}
);
background = {
anchors = (
{
name = bottom;
position = "{246, 0}";
},
{
name = top;
position = "{357, 694}";
}
);
paths = (
{
closed = 1;
nodes = (
"110 -10 OFFCURVE",
"202 87 OFFCURVE",
"278 263 CURVE SMOOTH",
"284 277 LINE",
"310 177 LINE SMOOTH",
"345 50 OFFCURVE",
"370 -10 OFFCURVE",
"415 -10 CURVE SMOOTH",
"479 -10 OFFCURVE",
"533 105 OFFCURVE",
"533 149 CURVE SMOOTH",
"533 156 OFFCURVE",
"532 161 OFFCURVE",
"527 161 CURVE SMOOTH",
"521 161 OFFCURVE",
"517 155 OFFCURVE",
"512 144 CURVE SMOOTH",
"500 117 OFFCURVE",
"479 74 OFFCURVE",
"449 74 CURVE SMOOTH",
"429 74 OFFCURVE",
"414 91 OFFCURVE",
"398 150 CURVE SMOOTH",
"340 366 LINE",
"381 453 OFFCURVE",
"418 523 OFFCURVE",
"455 570 CURVE SMOOTH",
"481 603 OFFCURVE",
"502 618 OFFCURVE",
"528 618 CURVE SMOOTH",
"547 618 OFFCURVE",
"556 609 OFFCURVE",
"567 599 CURVE SMOOTH",
"570 595 OFFCURVE",
"622 660 OFFCURVE",
"622 677 CURVE SMOOTH",
"622 691 OFFCURVE",
"593 704 OFFCURVE",
"563 704 CURVE SMOOTH",
"500 704 OFFCURVE",
"436 635 OFFCURVE",
"365 502 CURVE SMOOTH",
"321 424 LINE",
"268 629 LINE SMOOTH",
"255 677 OFFCURVE",
"236 704 OFFCURVE",
"206 704 CURVE SMOOTH",
"143 704 OFFCURVE",
"86 590 OFFCURVE",
"86 538 CURVE SMOOTH",
"86 529 OFFCURVE",
"88 525 OFFCURVE",
"93 525 CURVE SMOOTH",
"99 525 OFFCURVE",
"102 531 OFFCURVE",
"107 542 CURVE SMOOTH",
"119 568 OFFCURVE",
"143 619 OFFCURVE",
"171 619 CURVE SMOOTH",
"191 619 OFFCURVE",
"201 594 OFFCURVE",
"216 538 CURVE SMOOTH",
"265 335 LINE",
"257 316 LINE SMOOTH",
"212 222 OFFCURVE",
"143 77 OFFCURVE",
"68 77 CURVE SMOOTH",
"50 77 OFFCURVE",
"40 87 OFFCURVE",
"29 97 CURVE SMOOTH",
"24 102 OFFCURVE",
"-32 42 OFFCURVE",
"-32 25 CURVE SMOOTH",
"-32 12 OFFCURVE",
"-11 -10 OFFCURVE",
"29 -10 CURVE SMOOTH"
);
}
);
};
layerId = "0B1DFD06-3317-40CA-B510-4969A0718C16";
paths = (
{
closed = 1;
nodes = (
"110 -10 OFFCURVE",
"202 87 OFFCURVE",
"278 263 CURVE SMOOTH",
"284 277 LINE",
"310 177 LINE SMOOTH",
"345 50 OFFCURVE",
"370 -10 OFFCURVE",
"415 -10 CURVE SMOOTH",
"479 -10 OFFCURVE",
"533 105 OFFCURVE",
"533 149 CURVE SMOOTH",
"533 156 OFFCURVE",
"532 161 OFFCURVE",
"527 161 CURVE SMOOTH",
"521 161 OFFCURVE",
"517 155 OFFCURVE",
"512 144 CURVE SMOOTH",
"500 117 OFFCURVE",
"479 74 OFFCURVE",
"449 74 CURVE SMOOTH",
"429 74 OFFCURVE",
"414 91 OFFCURVE",
"398 150 CURVE SMOOTH",
"340 366 LINE",
"381 453 OFFCURVE",
"418 523 OFFCURVE",
"455 570 CURVE SMOOTH",
"481 603 OFFCURVE",
"502 618 OFFCURVE",
"528 618 CURVE SMOOTH",
"547 618 OFFCURVE",
"556 609 OFFCURVE",
"567 599 CURVE SMOOTH",
"570 595 OFFCURVE",
"622 660 OFFCURVE",
"622 677 CURVE SMOOTH",
"622 691 OFFCURVE",
"593 704 OFFCURVE",
"563 704 CURVE SMOOTH",
"500 704 OFFCURVE",
"436 635 OFFCURVE",
"365 502 CURVE SMOOTH",
"321 424 LINE",
"268 629 LINE SMOOTH",
"255 677 OFFCURVE",
"236 704 OFFCURVE",
"206 704 CURVE SMOOTH",
"143 704 OFFCURVE",
"86 590 OFFCURVE",
"86 538 CURVE SMOOTH",
"86 529 OFFCURVE",
"88 525 OFFCURVE",
"93 525 CURVE SMOOTH",
"99 525 OFFCURVE",
"102 531 OFFCURVE",
"107 542 CURVE SMOOTH",
"119 568 OFFCURVE",
"143 619 OFFCURVE",
"171 619 CURVE SMOOTH",
"191 619 OFFCURVE",
"201 594 OFFCURVE",
"216 538 CURVE SMOOTH",
"265 335 LINE",
"257 316 LINE SMOOTH",
"212 222 OFFCURVE",
"143 77 OFFCURVE",
"68 77 CURVE SMOOTH",
"50 77 OFFCURVE",
"40 87 OFFCURVE",
"29 97 CURVE SMOOTH",
"24 102 OFFCURVE",
"-32 42 OFFCURVE",
"-32 25 CURVE SMOOTH",
"-32 12 OFFCURVE",
"-11 -10 OFFCURVE",
"29 -10 CURVE SMOOTH"
);
}
);
width = 608;
}
);
note = X;
unicode = 0058;
},
{
glyphname = Y;
layers = (
{
anchors = (
{
name = bottom;
position = "{221, 0}";
},
{
name = top;
position = "{365, 694}";
}
);
background = {
anchors = (
{
name = bottom;
position = "{221, 0}";
},
{
name = top;
position = "{365, 694}";
}
);
paths = (
{
closed = 1;
nodes = (
"143 0 OFFCURVE",
"162 16 OFFCURVE",
"196 16 CURVE SMOOTH",
"228 16 OFFCURVE",
"258 0 OFFCURVE",
"285 0 CURVE SMOOTH",
"306 0 OFFCURVE",
"331 10 OFFCURVE",
"363 52 CURVE SMOOTH",
"371 62 OFFCURVE",
"376 69 OFFCURVE",
"376 79 CURVE SMOOTH",
"376 86 OFFCURVE",
"373 88 OFFCURVE",
"367 88 CURVE SMOOTH",
"356 88 OFFCURVE",
"345 77 OFFCURVE",
"321 77 CURVE SMOOTH",
"308 77 OFFCURVE",
"293 79 OFFCURVE",
"281 86 CURVE",
"281 87 LINE",
"291 97 OFFCURVE",
"300 113 OFFCURVE",
"304 134 CURVE SMOOTH",
"327 260 LINE SMOOTH",
"356 417 OFFCURVE",
"446 588 OFFCURVE",
"522 588 CURVE SMOOTH",
"547 588 OFFCURVE",
"557 569 OFFCURVE",
"563 567 CURVE SMOOTH",
"580 557 OFFCURVE",
"634 651 OFFCURVE",
"634 670 CURVE SMOOTH",
"634 684 OFFCURVE",
"603 704 OFFCURVE",
"563 704 CURVE SMOOTH",
"470 704 OFFCURVE",
"386 600 OFFCURVE",
"321 424 CURVE",
"320 424 LINE",
"300 598 OFFCURVE",
"247 704 OFFCURVE",
"171 704 CURVE SMOOTH",
"99 704 OFFCURVE",
"47 608 OFFCURVE",
"47 548 CURVE SMOOTH",
"47 538 OFFCURVE",
"48 533 OFFCURVE",
"55 533 CURVE SMOOTH",
"61 533 OFFCURVE",
"67 538 OFFCURVE",
"72 549 CURVE SMOOTH",
"83 573 OFFCURVE",
"103 608 OFFCURVE",
"133 608 CURVE SMOOTH",
"211 608 OFFCURVE",
"242 370 OFFCURVE",
"218 248 CURVE SMOOTH",
"202 165 LINE SMOOTH",
"190 99 OFFCURVE",
"185 91 OFFCURVE",
"157 64 CURVE SMOOTH",
"143 50 OFFCURVE",
"126 32 OFFCURVE",
"126 12 CURVE SMOOTH",
"126 2 OFFCURVE",
"129 0 OFFCURVE",
"133 0 CURVE SMOOTH"
);
}
);
};
layerId = "56450C88-1299-454A-B666-E6F9AF06B23F";
paths = (
{
closed = 1;
nodes = (
"143 0 OFFCURVE",
"162 16 OFFCURVE",
"196 16 CURVE SMOOTH",
"228 16 OFFCURVE",
"258 0 OFFCURVE",
"285 0 CURVE SMOOTH",
"306 0 OFFCURVE",
"331 10 OFFCURVE",
"363 52 CURVE SMOOTH",
"371 62 OFFCURVE",
"376 69 OFFCURVE",
"376 79 CURVE SMOOTH",
"376 86 OFFCURVE",
"373 88 OFFCURVE",
"367 88 CURVE SMOOTH",
"356 88 OFFCURVE",
"345 77 OFFCURVE",
"321 77 CURVE SMOOTH",
"308 77 OFFCURVE",
"293 79 OFFCURVE",
"281 86 CURVE",
"281 87 LINE",
"291 97 OFFCURVE",
"300 113 OFFCURVE",
"304 134 CURVE SMOOTH",
"327 260 LINE SMOOTH",
"356 417 OFFCURVE",
"446 588 OFFCURVE",
"522 588 CURVE SMOOTH",
"547 588 OFFCURVE",
"557 569 OFFCURVE",
"563 567 CURVE SMOOTH",
"580 557 OFFCURVE",
"634 651 OFFCURVE",
"634 670 CURVE SMOOTH",
"634 684 OFFCURVE",
"603 704 OFFCURVE",
"563 704 CURVE SMOOTH",
"470 704 OFFCURVE",
"386 600 OFFCURVE",
"321 424 CURVE",
"320 424 LINE",
"300 598 OFFCURVE",
"247 704 OFFCURVE",
"171 704 CURVE SMOOTH",
"99 704 OFFCURVE",
"47 608 OFFCURVE",
"47 548 CURVE SMOOTH",
"47 538 OFFCURVE",
"48 533 OFFCURVE",
"55 533 CURVE SMOOTH",
"61 533 OFFCURVE",
"67 538 OFFCURVE",
"72 549 CURVE SMOOTH",
"83 573 OFFCURVE",
"103 608 OFFCURVE",
"133 608 CURVE SMOOTH",
"211 608 OFFCURVE",
"242 370 OFFCURVE",
"218 248 CURVE SMOOTH",
"202 165 LINE SMOOTH",
"190 99 OFFCURVE",
"185 91 OFFCURVE",
"157 64 CURVE SMOOTH",
"143 50 OFFCURVE",
"126 32 OFFCURVE",
"126 12 CURVE SMOOTH",
"126 2 OFFCURVE",
"129 0 OFFCURVE",
"133 0 CURVE SMOOTH"
);
}
);
width = 582;
},
{
anchors = (
{
name = bottom;
position = "{202, 0}";
},
{
name = top;
position = "{350, 694}";
}
);
background = {
anchors = (
{
name = bottom;
position = "{202, 0}";
},
{
name = top;
position = "{350, 694}";
}
);
paths = (
{
closed = 1;
nodes = (
"143 0 OFFCURVE",
"157 17 OFFCURVE",
"185 17 CURVE SMOOTH",
"210 17 OFFCURVE",
"239 0 OFFCURVE",
"259 0 CURVE SMOOTH",
"272 0 OFFCURVE",
"293 5 OFFCURVE",
"325 41 CURVE SMOOTH",
"336 53 OFFCURVE",
"337 58 OFFCURVE",
"337 63 CURVE SMOOTH",
"337 67 OFFCURVE",
"335 69 OFFCURVE",
"331 69 CURVE SMOOTH",
"324 69 OFFCURVE",
"311 58 OFFCURVE",
"290 58 CURVE SMOOTH",
"275 58 OFFCURVE",
"265 62 OFFCURVE",
"250 67 CURVE",
"250 68 LINE",
"260 78 OFFCURVE",
"268 93 OFFCURVE",
"272 110 CURVE SMOOTH",
"301 270 LINE SMOOTH",
"325 398 OFFCURVE",
"425 609 OFFCURVE",
"515 609 CURVE SMOOTH",
"528 609 OFFCURVE",
"537 604 OFFCURVE",
"547 593 CURVE SMOOTH",
"551 589 OFFCURVE",
"604 662 OFFCURVE",
"604 677 CURVE SMOOTH",
"604 687 OFFCURVE",
"582 704 OFFCURVE",
"549 704 CURVE SMOOTH",
"448 704 OFFCURVE",
"346 526 OFFCURVE",
"296 384 CURVE",
"295 384 LINE",
"285 513 OFFCURVE",
"252 704 OFFCURVE",
"155 704 CURVE SMOOTH",
"99 704 OFFCURVE",
"57 641 OFFCURVE",
"57 582 CURVE SMOOTH",
"57 573 OFFCURVE",
"60 568 OFFCURVE",
"64 568 CURVE SMOOTH",
"69 568 OFFCURVE",
"72 573 OFFCURVE",
"81 588 CURVE SMOOTH",
"97 616 OFFCURVE",
"114 629 OFFCURVE",
"133 629 CURVE SMOOTH",
"211 629 OFFCURVE",
"244 358 OFFCURVE",
"224 255 CURVE SMOOTH",
"210 176 LINE SMOOTH",
"190 73 OFFCURVE",
"186 84 OFFCURVE",
"151 51 CURVE SMOOTH",
"133 32 OFFCURVE",
"129 22 OFFCURVE",
"129 11 CURVE SMOOTH",
"129 4 OFFCURVE",
"130 0 OFFCURVE",
"134 0 CURVE SMOOTH"
);
}
);
};
layerId = "0B1DFD06-3317-40CA-B510-4969A0718C16";
paths = (
{
closed = 1;
nodes = (
"143 0 OFFCURVE",
"157 17 OFFCURVE",
"185 17 CURVE SMOOTH",
"210 17 OFFCURVE",
"239 0 OFFCURVE",
"259 0 CURVE SMOOTH",
"272 0 OFFCURVE",
"293 5 OFFCURVE",
"325 41 CURVE SMOOTH",
"336 53 OFFCURVE",
"337 58 OFFCURVE",
"337 63 CURVE SMOOTH",
"337 67 OFFCURVE",
"335 69 OFFCURVE",
"331 69 CURVE SMOOTH",
"324 69 OFFCURVE",
"311 58 OFFCURVE",
"290 58 CURVE SMOOTH",
"275 58 OFFCURVE",
"265 62 OFFCURVE",
"250 67 CURVE",
"250 68 LINE",
"260 78 OFFCURVE",
"268 93 OFFCURVE",
"272 110 CURVE SMOOTH",
"301 270 LINE SMOOTH",
"325 398 OFFCURVE",
"425 609 OFFCURVE",
"515 609 CURVE SMOOTH",
"528 609 OFFCURVE",
"537 604 OFFCURVE",
"547 593 CURVE SMOOTH",
"551 589 OFFCURVE",
"604 662 OFFCURVE",
"604 677 CURVE SMOOTH",
"604 687 OFFCURVE",
"582 704 OFFCURVE",
"549 704 CURVE SMOOTH",
"448 704 OFFCURVE",
"346 526 OFFCURVE",
"296 384 CURVE",
"295 384 LINE",
"285 513 OFFCURVE",
"252 704 OFFCURVE",
"155 704 CURVE SMOOTH",
"99 704 OFFCURVE",
"57 641 OFFCURVE",
"57 582 CURVE SMOOTH",
"57 573 OFFCURVE",
"60 568 OFFCURVE",
"64 568 CURVE SMOOTH",
"69 568 OFFCURVE",
"72 573 OFFCURVE",
"81 588 CURVE SMOOTH",
"97 616 OFFCURVE",
"114 629 OFFCURVE",
"133 629 CURVE SMOOTH",
"211 629 OFFCURVE",
"244 358 OFFCURVE",
"224 255 CURVE SMOOTH",
"210 176 LINE SMOOTH",
"190 73 OFFCURVE",
"186 84 OFFCURVE",
"151 51 CURVE SMOOTH",
"133 32 OFFCURVE",
"129 22 OFFCURVE",
"129 11 CURVE SMOOTH",
"129 4 OFFCURVE",
"130 0 OFFCURVE",
"134 0 CURVE SMOOTH"
);
}
);
width = 562;
}
);
leftKerningGroup = Y;
note = Y;
rightKerningGroup = Y;
unicode = 0059;
},
{
glyphname = Z;
layers = (
{
anchors = (
{
name = bottom;
position = "{212, 0}";
},
{
name = top;
position = "{339, 694}";
}
);
background = {
anchors = (
{
name = bottom;
position = "{212, 0}";
},
{
name = top;
position = "{339, 694}";
}
);
paths = (
{
closed = 1;
nodes = (
"31 0 OFFCURVE",
"68 57 OFFCURVE",
"140 57 CURVE SMOOTH",
"212 57 OFFCURVE",
"280 0 OFFCURVE",
"348 0 CURVE SMOOTH",
"418 0 OFFCURVE",
"485 57 OFFCURVE",
"485 146 CURVE SMOOTH",
"485 166 OFFCURVE",
"481 177 OFFCURVE",
"472 177 CURVE SMOOTH",
"464 177 OFFCURVE",
"461 170 OFFCURVE",
"455 157 CURVE SMOOTH",
"438 122 OFFCURVE",
"409 105 OFFCURVE",
"371 105 CURVE SMOOTH",
"306 105 OFFCURVE",
"255 151 OFFCURVE",
"201 151 CURVE SMOOTH",
"187 151 OFFCURVE",
"164 148 OFFCURVE",
"148 140 CURVE",
"146 141 LINE",
"517 604 LINE SMOOTH",
"528 618 OFFCURVE",
"547 642 OFFCURVE",
"547 662 CURVE SMOOTH",
"547 675 OFFCURVE",
"537 698 OFFCURVE",
"527 698 CURVE SMOOTH",
"516 698 OFFCURVE",
"498 662 OFFCURVE",
"433 662 CURVE SMOOTH",
"368 662 OFFCURVE",
"320 694 OFFCURVE",
"246 694 CURVE SMOOTH",
"153 694 OFFCURVE",
"94 646 OFFCURVE",
"81 567 CURVE SMOOTH",
"77 546 OFFCURVE",
"82 533 OFFCURVE",
"91 533 CURVE SMOOTH",
"98 533 OFFCURVE",
"102 543 OFFCURVE",
"113 556 CURVE SMOOTH",
"141 588 OFFCURVE",
"180 605 OFFCURVE",
"231 605 CURVE SMOOTH",
"309 605 OFFCURVE",
"339 570 OFFCURVE",
"398 570 CURVE SMOOTH",
"405 570 LINE",
"115 208 LINE SMOOTH",
"40 114 OFFCURVE",
"16 86 OFFCURVE",
"5 67 CURVE SMOOTH",
"-4 52 OFFCURVE",
"-5 45 OFFCURVE",
"-5 37 CURVE SMOOTH",
"-5 22 OFFCURVE",
"2 0 OFFCURVE",
"16 0 CURVE SMOOTH"
);
}
);
};
layerId = "56450C88-1299-454A-B666-E6F9AF06B23F";
paths = (
{
closed = 1;
nodes = (
"31 0 OFFCURVE",
"68 57 OFFCURVE",
"140 57 CURVE SMOOTH",
"212 57 OFFCURVE",
"280 0 OFFCURVE",
"348 0 CURVE SMOOTH",
"418 0 OFFCURVE",
"485 57 OFFCURVE",
"485 146 CURVE SMOOTH",
"485 166 OFFCURVE",
"481 177 OFFCURVE",
"472 177 CURVE SMOOTH",
"464 177 OFFCURVE",
"461 170 OFFCURVE",
"455 157 CURVE SMOOTH",
"438 122 OFFCURVE",
"409 105 OFFCURVE",
"371 105 CURVE SMOOTH",
"306 105 OFFCURVE",
"255 151 OFFCURVE",
"201 151 CURVE SMOOTH",
"187 151 OFFCURVE",
"164 148 OFFCURVE",
"148 140 CURVE",
"146 141 LINE",
"517 604 LINE SMOOTH",
"528 618 OFFCURVE",
"547 642 OFFCURVE",
"547 662 CURVE SMOOTH",
"547 675 OFFCURVE",
"537 698 OFFCURVE",
"527 698 CURVE SMOOTH",
"516 698 OFFCURVE",
"498 662 OFFCURVE",
"433 662 CURVE SMOOTH",
"368 662 OFFCURVE",
"320 694 OFFCURVE",
"246 694 CURVE SMOOTH",
"153 694 OFFCURVE",
"94 646 OFFCURVE",
"81 567 CURVE SMOOTH",
"77 546 OFFCURVE",
"82 533 OFFCURVE",
"91 533 CURVE SMOOTH",
"98 533 OFFCURVE",
"102 543 OFFCURVE",
"113 556 CURVE SMOOTH",
"141 588 OFFCURVE",
"180 605 OFFCURVE",
"231 605 CURVE SMOOTH",
"309 605 OFFCURVE",
"339 570 OFFCURVE",
"398 570 CURVE SMOOTH",
"405 570 LINE",
"115 208 LINE SMOOTH",
"40 114 OFFCURVE",
"16 86 OFFCURVE",
"5 67 CURVE SMOOTH",
"-4 52 OFFCURVE",
"-5 45 OFFCURVE",
"-5 37 CURVE SMOOTH",
"-5 22 OFFCURVE",
"2 0 OFFCURVE",
"16 0 CURVE SMOOTH"
);
}
);
width = 537;
},
{
anchors = (
{
name = bottom;
position = "{221, 0}";
},
{
name = top;
position = "{357, 694}";
}
);
background = {
anchors = (
{
name = bottom;
position = "{221, 0}";
},
{
name = top;
position = "{357, 694}";
}
);
paths = (
{
closed = 1;
nodes = (
"31 0 OFFCURVE",
"60 57 OFFCURVE",
"126 57 CURVE SMOOTH",
"192 57 OFFCURVE",
"269 0 OFFCURVE",
"339 0 CURVE SMOOTH",
"393 0 OFFCURVE",
"463 52 OFFCURVE",
"463 125 CURVE SMOOTH",
"463 139 OFFCURVE",
"458 150 OFFCURVE",
"453 150 CURVE SMOOTH",
"448 150 OFFCURVE",
"446 144 OFFCURVE",
"443 136 CURVE SMOOTH",
"424 100 OFFCURVE",
"396 83 OFFCURVE",
"352 83 CURVE SMOOTH",
"295 83 OFFCURVE",
"215 136 OFFCURVE",
"165 136 CURVE SMOOTH",
"149 136 OFFCURVE",
"131 133 OFFCURVE",
"123 128 CURVE",
"122 129 LINE",
"497 621 LINE",
"506 632 OFFCURVE",
"525 656 OFFCURVE",
"525 672 CURVE SMOOTH",
"525 684 OFFCURVE",
"520 697 OFFCURVE",
"512 697 CURVE SMOOTH",
"503 697 OFFCURVE",
"490 662 OFFCURVE",
"433 662 CURVE SMOOTH",
"362 662 OFFCURVE",
"309 694 OFFCURVE",
"238 694 CURVE SMOOTH",
"154 694 OFFCURVE",
"99 636 OFFCURVE",
"91 564 CURVE SMOOTH",
"89 554 OFFCURVE",
"93 551 OFFCURVE",
"97 551 CURVE SMOOTH",
"105 551 OFFCURVE",
"114 568 OFFCURVE",
"131 582 CURVE SMOOTH",
"159 603 OFFCURVE",
"190 613 OFFCURVE",
"228 613 CURVE SMOOTH",
"270 613 OFFCURVE",
"345 582 OFFCURVE",
"408 582 CURVE SMOOTH",
"414 582 LINE",
"115 193 LINE SMOOTH",
"40 95 OFFCURVE",
"25 64 OFFCURVE",
"12 47 CURVE SMOOTH",
"9 41 OFFCURVE",
"5 32 OFFCURVE",
"5 24 CURVE SMOOTH",
"5 12 OFFCURVE",
"14 0 OFFCURVE",
"21 0 CURVE SMOOTH"
);
}
);
};
layerId = "0B1DFD06-3317-40CA-B510-4969A0718C16";
paths = (
{
closed = 1;
nodes = (
"31 0 OFFCURVE",
"60 57 OFFCURVE",
"126 57 CURVE SMOOTH",
"192 57 OFFCURVE",
"269 0 OFFCURVE",
"339 0 CURVE SMOOTH",
"393 0 OFFCURVE",
"463 52 OFFCURVE",
"463 125 CURVE SMOOTH",
"463 139 OFFCURVE",
"458 150 OFFCURVE",
"453 150 CURVE SMOOTH",
"448 150 OFFCURVE",
"446 144 OFFCURVE",
"443 136 CURVE SMOOTH",
"424 100 OFFCURVE",
"396 83 OFFCURVE",
"352 83 CURVE SMOOTH",
"295 83 OFFCURVE",
"215 136 OFFCURVE",
"165 136 CURVE SMOOTH",
"149 136 OFFCURVE",
"131 133 OFFCURVE",
"123 128 CURVE",
"122 129 LINE",
"497 621 LINE",
"506 632 OFFCURVE",
"525 656 OFFCURVE",
"525 672 CURVE SMOOTH",
"525 684 OFFCURVE",
"520 697 OFFCURVE",
"512 697 CURVE SMOOTH",
"503 697 OFFCURVE",
"490 662 OFFCURVE",
"433 662 CURVE SMOOTH",
"362 662 OFFCURVE",
"309 694 OFFCURVE",
"238 694 CURVE SMOOTH",
"154 694 OFFCURVE",
"99 636 OFFCURVE",
"91 564 CURVE SMOOTH",
"89 554 OFFCURVE",
"93 551 OFFCURVE",
"97 551 CURVE SMOOTH",
"105 551 OFFCURVE",
"114 568 OFFCURVE",
"131 582 CURVE SMOOTH",
"159 603 OFFCURVE",
"190 613 OFFCURVE",
"228 613 CURVE SMOOTH",
"270 613 OFFCURVE",
"345 582 OFFCURVE",
"408 582 CURVE SMOOTH",
"414 582 LINE",
"115 193 LINE SMOOTH",
"40 95 OFFCURVE",
"25 64 OFFCURVE",
"12 47 CURVE SMOOTH",
"9 41 OFFCURVE",
"5 32 OFFCURVE",
"5 24 CURVE SMOOTH",
"5 12 OFFCURVE",
"14 0 OFFCURVE",
"21 0 CURVE SMOOTH"
);
}
);
width = 525;
}
);
leftKerningGroup = Z;
note = Z;
rightKerningGroup = Z;
unicode = 005A;
},
{
glyphname = a;
layers = (
{
anchors = (
{
name = bottom;
position = "{200, 0}";
},
{
name = ogonek;
position = "{345, 10}";
},
{
name = top;
position = "{317, 466}";
}
);
background = {
anchors = (
{
name = bottom;
position = "{200, 0}";
},
{
name = ogonek;
position = "{345, 10}";
},
{
name = top;
position = "{317, 466}";
}
);
paths = (
{
closed = 1;
nodes = (
"130 -10 OFFCURVE",
"200 43 OFFCURVE",
"250 118 CURVE",
"252 118 LINE",
"247 84 LINE SMOOTH",
"239 31 OFFCURVE",
"257 -10 OFFCURVE",
"300 -10 CURVE SMOOTH",
"366 -10 OFFCURVE",
"430 74 OFFCURVE",
"440 151 CURVE SMOOTH",
"443 172 OFFCURVE",
"438 176 OFFCURVE",
"432 176 CURVE SMOOTH",
"425 176 OFFCURVE",
"423 171 OFFCURVE",
"419 162 CURVE SMOOTH",
"401 119 OFFCURVE",
"382 84 OFFCURVE",
"358 84 CURVE SMOOTH",
"341 84 OFFCURVE",
"341 103 OFFCURVE",
"350 151 CURVE SMOOTH",
"362 221 OFFCURVE",
"393 386 OFFCURVE",
"396 401 CURVE SMOOTH",
"401 422 OFFCURVE",
"402 429 OFFCURVE",
"412 455 CURVE",
"391 467 OFFCURVE",
"355 476 OFFCURVE",
"319 476 CURVE SMOOTH",
"148 476 OFFCURVE",
"17 267 OFFCURVE",
"17 104 CURVE SMOOTH",
"17 35 OFFCURVE",
"41 -10 OFFCURVE",
"83 -10 CURVE SMOOTH"
);
},
{
closed = 1;
nodes = (
"128 89 OFFCURVE",
"124 98 OFFCURVE",
"124 130 CURVE SMOOTH",
"124 263 OFFCURVE",
"196 399 OFFCURVE",
"262 399 CURVE SMOOTH",
"274 399 OFFCURVE",
"291 394 OFFCURVE",
"308 384 CURVE",
"301 345 LINE SMOOTH",
"279 221 OFFCURVE",
"184 89 OFFCURVE",
"140 89 CURVE SMOOTH"
);
}
);
};
layerId = "56450C88-1299-454A-B666-E6F9AF06B23F";
paths = (
{
closed = 1;
nodes = (
"130 -10 OFFCURVE",
"200 43 OFFCURVE",
"250 118 CURVE",
"252 118 LINE",
"247 84 LINE SMOOTH",
"239 31 OFFCURVE",
"257 -10 OFFCURVE",
"300 -10 CURVE SMOOTH",
"366 -10 OFFCURVE",
"430 74 OFFCURVE",
"440 151 CURVE SMOOTH",
"443 172 OFFCURVE",
"438 176 OFFCURVE",
"432 176 CURVE SMOOTH",
"425 176 OFFCURVE",
"423 171 OFFCURVE",
"419 162 CURVE SMOOTH",
"401 119 OFFCURVE",
"382 84 OFFCURVE",
"358 84 CURVE SMOOTH",
"341 84 OFFCURVE",
"341 103 OFFCURVE",
"350 151 CURVE SMOOTH",
"362 221 OFFCURVE",
"393 386 OFFCURVE",
"396 401 CURVE SMOOTH",
"401 422 OFFCURVE",
"402 429 OFFCURVE",
"412 455 CURVE",
"391 467 OFFCURVE",
"355 476 OFFCURVE",
"319 476 CURVE SMOOTH",
"148 476 OFFCURVE",
"17 267 OFFCURVE",
"17 104 CURVE SMOOTH",
"17 35 OFFCURVE",
"41 -10 OFFCURVE",
"83 -10 CURVE SMOOTH"
);
},
{
closed = 1;
nodes = (
"128 89 OFFCURVE",
"124 98 OFFCURVE",
"124 130 CURVE SMOOTH",
"124 263 OFFCURVE",
"196 399 OFFCURVE",
"262 399 CURVE SMOOTH",
"274 399 OFFCURVE",
"291 394 OFFCURVE",
"308 384 CURVE",
"301 345 LINE SMOOTH",
"279 221 OFFCURVE",
"184 89 OFFCURVE",
"140 89 CURVE SMOOTH"
);
}
);
width = 471;
},
{
anchors = (
{
name = bottom;
position = "{177, 0}";
},
{
name = ogonek;
position = "{325, 14}";
},
{
name = top;
position = "{315, 466}";
}
);
background = {
anchors = (
{
name = bottom;
position = "{177, 0}";
},
{
name = ogonek;
position = "{325, 14}";
},
{
name = top;
position = "{315, 466}";
}
);
paths = (
{
closed = 1;
nodes = (
"130 -10 OFFCURVE",
"210 66 OFFCURVE",
"274 179 CURVE",
"275 179 LINE",
"258 92 LINE SMOOTH",
"250 52 OFFCURVE",
"247 -10 OFFCURVE",
"288 -10 CURVE SMOOTH",
"331 -10 OFFCURVE",
"397 57 OFFCURVE",
"412 126 CURVE SMOOTH",
"415 144 OFFCURVE",
"414 154 OFFCURVE",
"408 154 CURVE SMOOTH",
"403 154 OFFCURVE",
"401 148 OFFCURVE",
"398 143 CURVE SMOOTH",
"382 110 OFFCURVE",
"361 64 OFFCURVE",
"336 64 CURVE SMOOTH",
"324 64 OFFCURVE",
"320 76 OFFCURVE",
"324 103 CURVE SMOOTH",
"330 151 OFFCURVE",
"367 322 OFFCURVE",
"379 388 CURVE SMOOTH",
"386 420 OFFCURVE",
"391 439 OFFCURVE",
"397 463 CURVE",
"376 472 OFFCURVE",
"348 476 OFFCURVE",
"326 476 CURVE SMOOTH",
"159 476 OFFCURVE",
"27 272 OFFCURVE",
"27 87 CURVE SMOOTH",
"27 24 OFFCURVE",
"43 -10 OFFCURVE",
"78 -10 CURVE SMOOTH"
);
},
{
closed = 1;
nodes = (
"105 72 OFFCURVE",
"100 91 OFFCURVE",
"100 122 CURVE SMOOTH",
"100 231 OFFCURVE",
"162 419 OFFCURVE",
"254 419 CURVE SMOOTH",
"272 419 OFFCURVE",
"296 413 OFFCURVE",
"317 399 CURVE",
"301 335 LINE SMOOTH",
"277 236 OFFCURVE",
"184 72 OFFCURVE",
"125 72 CURVE SMOOTH"
);
}
);
};
layerId = "0B1DFD06-3317-40CA-B510-4969A0718C16";
paths = (
{
closed = 1;
nodes = (
"130 -10 OFFCURVE",
"210 66 OFFCURVE",
"274 179 CURVE",
"275 179 LINE",
"258 92 LINE SMOOTH",
"250 52 OFFCURVE",
"247 -10 OFFCURVE",
"288 -10 CURVE SMOOTH",
"331 -10 OFFCURVE",
"397 57 OFFCURVE",
"412 126 CURVE SMOOTH",
"415 144 OFFCURVE",
"414 154 OFFCURVE",
"408 154 CURVE SMOOTH",
"403 154 OFFCURVE",
"401 148 OFFCURVE",
"398 143 CURVE SMOOTH",
"382 110 OFFCURVE",
"361 64 OFFCURVE",
"336 64 CURVE SMOOTH",
"324 64 OFFCURVE",
"320 76 OFFCURVE",
"324 103 CURVE SMOOTH",
"330 151 OFFCURVE",
"367 322 OFFCURVE",
"379 388 CURVE SMOOTH",
"386 420 OFFCURVE",
"391 439 OFFCURVE",
"397 463 CURVE",
"376 472 OFFCURVE",
"348 476 OFFCURVE",
"326 476 CURVE SMOOTH",
"159 476 OFFCURVE",
"27 272 OFFCURVE",
"27 87 CURVE SMOOTH",
"27 24 OFFCURVE",
"43 -10 OFFCURVE",
"78 -10 CURVE SMOOTH"
);
},
{
closed = 1;
nodes = (
"105 72 OFFCURVE",
"100 91 OFFCURVE",
"100 122 CURVE SMOOTH",
"100 231 OFFCURVE",
"162 419 OFFCURVE",
"254 419 CURVE SMOOTH",
"272 419 OFFCURVE",
"296 413 OFFCURVE",
"317 399 CURVE",
"301 335 LINE SMOOTH",
"277 236 OFFCURVE",
"184 72 OFFCURVE",
"125 72 CURVE SMOOTH"
);
}
);
width = 454;
}
);
leftKerningGroup = a;
note = a;
rightKerningGroup = a;
unicode = 0061;
},
{
glyphname = b;
layers = (
{
anchors = (
{
name = bottom;
position = "{171, 0}";
},
{
name = top;
position = "{340, 877}";
}
);
background = {
anchors = (
{
name = bottom;
position = "{171, 0}";
},
{
name = top;
position = "{340, 877}";
}
);
paths = (
{
closed = 1;
nodes = (
"296 -10 OFFCURVE",
"414 151 OFFCURVE",
"417 343 CURVE SMOOTH",
"418 434 OFFCURVE",
"392 476 OFFCURVE",
"345 476 CURVE SMOOTH",
"293 476 OFFCURVE",
"231 424 OFFCURVE",
"184 346 CURVE",
"182 346 LINE",
"193 427 LINE SMOOTH",
"219 618 OFFCURVE",
"241 697 OFFCURVE",
"274 746 CURVE SMOOTH",
"305 794 OFFCURVE",
"343 804 OFFCURVE",
"374 806 CURVE SMOOTH",
"396 806 OFFCURVE",
"409 810 OFFCURVE",
"423 821 CURVE SMOOTH",
"436 835 OFFCURVE",
"449 854 OFFCURVE",
"449 866 CURVE SMOOTH",
"449 873 OFFCURVE",
"446 877 OFFCURVE",
"440 877 CURVE SMOOTH",
"434 877 OFFCURVE",
"434 874 OFFCURVE",
"386 867 CURVE SMOOTH",
"345 861 OFFCURVE",
"283 851 OFFCURVE",
"229 796 CURVE SMOOTH",
"164 728 OFFCURVE",
"130 613 OFFCURVE",
"104 458 CURVE SMOOTH",
"42 82 LINE SMOOTH",
"37 52 OFFCURVE",
"33 33 OFFCURVE",
"22 -5 CURVE",
"24 -5 LINE",
"33 -2 OFFCURVE",
"47 0 OFFCURVE",
"62 0 CURVE SMOOTH",
"95 0 OFFCURVE",
"105 -10 OFFCURVE",
"143 -10 CURVE SMOOTH"
);
},
{
closed = 1;
nodes = (
"174 68 OFFCURVE",
"155 73 OFFCURVE",
"139 84 CURVE",
"145 126 LINE SMOOTH",
"161 250 OFFCURVE",
"243 373 OFFCURVE",
"288 373 CURVE SMOOTH",
"306 373 OFFCURVE",
"311 351 OFFCURVE",
"311 310 CURVE SMOOTH",
"311 184 OFFCURVE",
"264 68 OFFCURVE",
"190 68 CURVE SMOOTH"
);
}
);
};
layerId = "56450C88-1299-454A-B666-E6F9AF06B23F";
paths = (
{
closed = 1;
nodes = (
"296 -10 OFFCURVE",
"414 151 OFFCURVE",
"417 343 CURVE SMOOTH",
"418 434 OFFCURVE",
"392 476 OFFCURVE",
"345 476 CURVE SMOOTH",
"293 476 OFFCURVE",
"231 424 OFFCURVE",
"184 346 CURVE",
"182 346 LINE",
"193 427 LINE SMOOTH",
"219 618 OFFCURVE",
"241 697 OFFCURVE",
"274 746 CURVE SMOOTH",
"305 794 OFFCURVE",
"343 804 OFFCURVE",
"374 806 CURVE SMOOTH",
"396 806 OFFCURVE",
"409 810 OFFCURVE",
"423 821 CURVE SMOOTH",
"436 835 OFFCURVE",
"449 854 OFFCURVE",
"449 866 CURVE SMOOTH",
"449 873 OFFCURVE",
"446 877 OFFCURVE",
"440 877 CURVE SMOOTH",
"434 877 OFFCURVE",
"434 874 OFFCURVE",
"386 867 CURVE SMOOTH",
"345 861 OFFCURVE",
"283 851 OFFCURVE",
"229 796 CURVE SMOOTH",
"164 728 OFFCURVE",
"130 613 OFFCURVE",
"104 458 CURVE SMOOTH",
"42 82 LINE SMOOTH",
"37 52 OFFCURVE",
"33 33 OFFCURVE",
"22 -5 CURVE",
"24 -5 LINE",
"33 -2 OFFCURVE",
"47 0 OFFCURVE",
"62 0 CURVE SMOOTH",
"95 0 OFFCURVE",
"105 -10 OFFCURVE",
"143 -10 CURVE SMOOTH"
);
},
{
closed = 1;
nodes = (
"174 68 OFFCURVE",
"155 73 OFFCURVE",
"139 84 CURVE",
"145 126 LINE SMOOTH",
"161 250 OFFCURVE",
"243 373 OFFCURVE",
"288 373 CURVE SMOOTH",
"306 373 OFFCURVE",
"311 351 OFFCURVE",
"311 310 CURVE SMOOTH",
"311 184 OFFCURVE",
"264 68 OFFCURVE",
"190 68 CURVE SMOOTH"
);
}
);
width = 436;
},
{
anchors = (
{
name = bottom;
position = "{149, 0}";
},
{
name = top;
position = "{350, 875}";
}
);
background = {
anchors = (
{
name = bottom;
position = "{149, 0}";
},
{
name = top;
position = "{350, 875}";
}
);
paths = (
{
closed = 1;
nodes = (
"250 -10 OFFCURVE",
"379 156 OFFCURVE",
"389 355 CURVE SMOOTH",
"394 438 OFFCURVE",
"374 476 OFFCURVE",
"339 476 CURVE SMOOTH",
"283 476 OFFCURVE",
"201 382 OFFCURVE",
"156 300 CURVE",
"155 300 LINE",
"179 448 LINE SMOOTH",
"206 615 OFFCURVE",
"228 702 OFFCURVE",
"270 763 CURVE SMOOTH",
"298 801 OFFCURVE",
"320 812 OFFCURVE",
"360 817 CURVE SMOOTH",
"374 820 OFFCURVE",
"388 821 OFFCURVE",
"405 835 CURVE SMOOTH",
"419 846 OFFCURVE",
"424 857 OFFCURVE",
"424 864 CURVE SMOOTH",
"424 869 OFFCURVE",
"423 872 OFFCURVE",
"418 872 CURVE SMOOTH",
"410 872 OFFCURVE",
"403 866 OFFCURVE",
"377 861 CURVE SMOOTH",
"327 852 OFFCURVE",
"296 846 OFFCURVE",
"253 806 CURVE SMOOTH",
"182 739 OFFCURVE",
"141 624 OFFCURVE",
"112 440 CURVE SMOOTH",
"52 82 LINE SMOOTH",
"48 56 OFFCURVE",
"45 32 OFFCURVE",
"32 -4 CURVE",
"33 -4 LINE SMOOTH",
"37 -4 OFFCURVE",
"43 -2 OFFCURVE",
"55 -2 CURVE SMOOTH",
"77 -2 OFFCURVE",
"94 -10 OFFCURVE",
"122 -10 CURVE SMOOTH"
);
},
{
closed = 1;
nodes = (
"162 50 OFFCURVE",
"140 52 OFFCURVE",
"117 68 CURVE",
"126 130 LINE SMOOTH",
"148 255 OFFCURVE",
"243 394 OFFCURVE",
"293 394 CURVE SMOOTH",
"310 394 OFFCURVE",
"316 379 OFFCURVE",
"316 335 CURVE SMOOTH",
"316 219 OFFCURVE",
"265 50 OFFCURVE",
"175 50 CURVE SMOOTH"
);
}
);
};
layerId = "0B1DFD06-3317-40CA-B510-4969A0718C16";
paths = (
{
closed = 1;
nodes = (
"250 -10 OFFCURVE",
"379 156 OFFCURVE",
"389 355 CURVE SMOOTH",
"394 438 OFFCURVE",
"374 476 OFFCURVE",
"339 476 CURVE SMOOTH",
"283 476 OFFCURVE",
"201 382 OFFCURVE",
"156 300 CURVE",
"155 300 LINE",
"179 448 LINE SMOOTH",
"206 615 OFFCURVE",
"228 702 OFFCURVE",
"270 763 CURVE SMOOTH",
"298 801 OFFCURVE",
"320 812 OFFCURVE",
"360 817 CURVE SMOOTH",
"374 820 OFFCURVE",
"388 821 OFFCURVE",
"405 835 CURVE SMOOTH",
"419 846 OFFCURVE",
"424 857 OFFCURVE",
"424 864 CURVE SMOOTH",
"424 869 OFFCURVE",
"423 872 OFFCURVE",
"418 872 CURVE SMOOTH",
"410 872 OFFCURVE",
"403 866 OFFCURVE",
"377 861 CURVE SMOOTH",
"327 852 OFFCURVE",
"296 846 OFFCURVE",
"253 806 CURVE SMOOTH",
"182 739 OFFCURVE",
"141 624 OFFCURVE",
"112 440 CURVE SMOOTH",
"52 82 LINE SMOOTH",
"48 56 OFFCURVE",
"45 32 OFFCURVE",
"32 -4 CURVE",
"33 -4 LINE SMOOTH",
"37 -4 OFFCURVE",
"43 -2 OFFCURVE",
"55 -2 CURVE SMOOTH",
"77 -2 OFFCURVE",
"94 -10 OFFCURVE",
"122 -10 CURVE SMOOTH"
);
},
{
closed = 1;
nodes = (
"162 50 OFFCURVE",
"140 52 OFFCURVE",
"117 68 CURVE",
"126 130 LINE SMOOTH",
"148 255 OFFCURVE",
"243 394 OFFCURVE",
"293 394 CURVE SMOOTH",
"310 394 OFFCURVE",
"316 379 OFFCURVE",
"316 335 CURVE SMOOTH",
"316 219 OFFCURVE",
"265 50 OFFCURVE",
"175 50 CURVE SMOOTH"
);
}
);
width = 422;
}
);
note = b;
rightKerningGroup = b;
unicode = 0062;
},
{
glyphname = c;
layers = (
{
anchors = (
{
name = bottom;
position = "{133, 0}";
},
{
name = top;
position = "{269, 466}";
}
);
background = {
anchors = (
{
name = bottom;
position = "{133, 0}";
},
{
name = top;
position = "{269, 466}";
}
);
paths = (
{
closed = 1;
nodes = (
"215 -10 OFFCURVE",
"306 93 OFFCURVE",
"306 161 CURVE SMOOTH",
"306 172 OFFCURVE",
"304 179 OFFCURVE",
"296 179 CURVE SMOOTH",
"289 179 OFFCURVE",
"286 175 OFFCURVE",
"279 161 CURVE SMOOTH",
"252 112 OFFCURVE",
"222 87 OFFCURVE",
"185 87 CURVE SMOOTH",
"143 87 OFFCURVE",
"124 117 OFFCURVE",
"124 190 CURVE SMOOTH",
"124 311 OFFCURVE",
"177 403 OFFCURVE",
"253 403 CURVE SMOOTH",
"277 403 OFFCURVE",
"296 394 OFFCURVE",
"314 376 CURVE SMOOTH",
"317 372 OFFCURVE",
"321 370 OFFCURVE",
"326 370 CURVE SMOOTH",
"332 370 OFFCURVE",
"337 373 OFFCURVE",
"343 384 CURVE SMOOTH",
"353 402 OFFCURVE",
"360 420 OFFCURVE",
"360 430 CURVE SMOOTH",
"360 459 OFFCURVE",
"331 476 OFFCURVE",
"290 476 CURVE SMOOTH",
"151 476 OFFCURVE",
"17 280 OFFCURVE",
"17 126 CURVE SMOOTH",
"17 41 OFFCURVE",
"58 -10 OFFCURVE",
"123 -10 CURVE SMOOTH"
);
}
);
};
layerId = "56450C88-1299-454A-B666-E6F9AF06B23F";
paths = (
{
closed = 1;
nodes = (
"215 -10 OFFCURVE",
"306 93 OFFCURVE",
"306 161 CURVE SMOOTH",
"306 172 OFFCURVE",
"304 179 OFFCURVE",
"296 179 CURVE SMOOTH",
"289 179 OFFCURVE",
"286 175 OFFCURVE",
"279 161 CURVE SMOOTH",
"252 112 OFFCURVE",
"222 87 OFFCURVE",
"185 87 CURVE SMOOTH",
"143 87 OFFCURVE",
"124 117 OFFCURVE",
"124 190 CURVE SMOOTH",
"124 311 OFFCURVE",
"177 403 OFFCURVE",
"253 403 CURVE SMOOTH",
"277 403 OFFCURVE",
"296 394 OFFCURVE",
"314 376 CURVE SMOOTH",
"317 372 OFFCURVE",
"321 370 OFFCURVE",
"326 370 CURVE SMOOTH",
"332 370 OFFCURVE",
"337 373 OFFCURVE",
"343 384 CURVE SMOOTH",
"353 402 OFFCURVE",
"360 420 OFFCURVE",
"360 430 CURVE SMOOTH",
"360 459 OFFCURVE",
"331 476 OFFCURVE",
"290 476 CURVE SMOOTH",
"151 476 OFFCURVE",
"17 280 OFFCURVE",
"17 126 CURVE SMOOTH",
"17 41 OFFCURVE",
"58 -10 OFFCURVE",
"123 -10 CURVE SMOOTH"
);
}
);
width = 367;
},
{
anchors = (
{
name = bottom;
position = "{103, 0}";
},
{
name = top;
position = "{277, 466}";
}
);
background = {
anchors = (
{
name = bottom;
position = "{103, 0}";
},
{
name = top;
position = "{277, 466}";
}
);
paths = (
{
closed = 1;
nodes = (
"191 -10 OFFCURVE",
"284 98 OFFCURVE",
"284 155 CURVE SMOOTH",
"284 162 OFFCURVE",
"281 167 OFFCURVE",
"277 167 CURVE SMOOTH",
"269 167 OFFCURVE",
"267 160 OFFCURVE",
"260 150 CURVE SMOOTH",
"242 118 OFFCURVE",
"211 67 OFFCURVE",
"162 67 CURVE SMOOTH",
"119 67 OFFCURVE",
"100 108 OFFCURVE",
"100 179 CURVE SMOOTH",
"100 310 OFFCURVE",
"167 423 OFFCURVE",
"249 423 CURVE SMOOTH",
"272 423 OFFCURVE",
"289 414 OFFCURVE",
"304 394 CURVE SMOOTH",
"306 391 OFFCURVE",
"309 389 OFFCURVE",
"311 389 CURVE SMOOTH",
"316 389 OFFCURVE",
"320 394 OFFCURVE",
"324 401 CURVE SMOOTH",
"331 413 OFFCURVE",
"336 425 OFFCURVE",
"336 438 CURVE SMOOTH",
"336 460 OFFCURVE",
"314 476 OFFCURVE",
"278 476 CURVE SMOOTH",
"149 476 OFFCURVE",
"27 273 OFFCURVE",
"27 120 CURVE SMOOTH",
"27 58 OFFCURVE",
"50 -10 OFFCURVE",
"112 -10 CURVE SMOOTH"
);
}
);
};
layerId = "0B1DFD06-3317-40CA-B510-4969A0718C16";
paths = (
{
closed = 1;
nodes = (
"191 -10 OFFCURVE",
"284 98 OFFCURVE",
"284 155 CURVE SMOOTH",
"284 162 OFFCURVE",
"281 167 OFFCURVE",
"277 167 CURVE SMOOTH",
"269 167 OFFCURVE",
"267 160 OFFCURVE",
"260 150 CURVE SMOOTH",
"242 118 OFFCURVE",
"211 67 OFFCURVE",
"162 67 CURVE SMOOTH",
"119 67 OFFCURVE",
"100 108 OFFCURVE",
"100 179 CURVE SMOOTH",
"100 310 OFFCURVE",
"167 423 OFFCURVE",
"249 423 CURVE SMOOTH",
"272 423 OFFCURVE",
"289 414 OFFCURVE",
"304 394 CURVE SMOOTH",
"306 391 OFFCURVE",
"309 389 OFFCURVE",
"311 389 CURVE SMOOTH",
"316 389 OFFCURVE",
"320 394 OFFCURVE",
"324 401 CURVE SMOOTH",
"331 413 OFFCURVE",
"336 425 OFFCURVE",
"336 438 CURVE SMOOTH",
"336 460 OFFCURVE",
"314 476 OFFCURVE",
"278 476 CURVE SMOOTH",
"149 476 OFFCURVE",
"27 273 OFFCURVE",
"27 120 CURVE SMOOTH",
"27 58 OFFCURVE",
"50 -10 OFFCURVE",
"112 -10 CURVE SMOOTH"
);
}
);
width = 353;
}
);
note = c;
rightKerningGroup = c;
unicode = 0063;
},
